<svg xmlns="http://www.w3.org/2000/svg" fill="none" viewBox="0 0 180 180" height="180" width="180">
<path fill="black" d="M95.5977 54.6315C95.1272 54.6989 94.6567 56.3837 93.7157 57.3272C93.0436 58.0011 92.237 58.0011 91.7665 58.7424C91.5649 59.012 91.6993 59.5511 91.4977 60.0229C91.0944 61.0338 89.8173 61.1686 89.8173 62.1795C89.8173 63.3251 90.96 63.5947 91.901 64.4034C92.6403 65.0773 92.7747 65.5491 93.5813 65.8187C94.3207 66.0882 95.4633 65.2795 96.4715 65.5491C97.3453 65.8187 98.1519 66.0208 98.3535 66.8295C98.5552 67.6383 98.3535 68.8513 97.3453 68.7165C96.942 68.7165 95.4633 68.1774 93.7157 68.3122C91.4305 68.5818 88.9435 69.2557 88.7419 71.7492C88.6747 73.1644 90.355 74.7145 91.901 74.4449C93.0436 74.2427 92.4387 72.8275 93.1108 72.221C93.9846 71.4122 98.5552 75.1188 102.857 75.1188C104.672 75.1188 106.016 74.6471 107.36 73.2318C107.427 73.1644 107.629 72.8275 107.831 72.8275C108.032 72.8275 108.301 73.0297 108.368 73.0971C111.864 75.8602 114.485 81.3863 127.121 81.4537C128.936 81.4537 130.952 82.2624 132.633 83.8125C134.112 85.2277 134.985 87.3169 135.792 89.4735C137.136 92.7083 139.354 95.8758 142.849 99.3128C143.051 99.515 145.874 101.739 146.143 101.806C146.143 101.806 146.412 102.345 146.345 102.615C146.277 104.772 145.941 110.837 150.579 111.106C151.722 111.174 151.453 110.365 151.453 109.826C151.453 108.815 151.251 107.669 151.856 106.659C152.596 105.176 150.243 104.502 150.243 101.267C150.31 98.841 148.294 99.2454 147.218 97.4258C146.681 96.4149 146.076 95.741 146.076 94.4605C146.277 87.1147 144.463 82.2624 143.656 81.1168C142.984 80.1733 142.312 79.9037 142.984 79.432C146.815 76.9384 147.689 74.5797 147.689 74.5797C149.773 69.8622 151.52 65.4817 154.074 63.5947C154.545 63.1903 155.889 62.1795 156.696 61.8425C159.048 60.6968 160.258 60.0903 160.93 59.4164C161.938 58.4055 162.879 56.1815 161.871 54.8337C160.527 53.1488 158.376 54.4293 157.368 55.1032C150.31 59.2816 149.302 66.56 146.882 70.7383C144.933 74.1079 141.841 76.6015 139.018 76.8036C136.867 77.0058 134.582 76.5341 132.364 75.5232C126.852 73.0971 123.828 70.0644 123.088 69.4579C121.61 68.3122 110.116 57.0576 100.773 56.5859C100.773 56.5859 99.6306 54.2271 99.3617 54.2271C98.6896 54.1597 97.9502 55.6424 97.4797 55.8446C96.8748 56.3163 96.0682 54.4967 95.5977 54.6315ZM54.597 121.62C53.7232 121.62 53.051 120.878 52.9838 120.002V91.0235H43.305V122.968C43.305 124.585 44.6493 125.865 46.128 125.865H62.8643C64.4775 125.865 65.6874 124.585 65.6874 122.968V91.0909H56.2101V120.07C56.1429 120.946 55.4708 121.62 54.597 121.62ZM86.7254 91.0909H72.1399C70.4596 91.0909 69.0481 92.5061 69.0481 94.1909V125.865H78.5925V96.8866C78.5925 95.9431 79.3319 95.2692 80.2057 95.2692C81.1467 95.2692 81.8188 95.9431 81.8188 96.8866V125.933H91.3632V96.7519C91.3632 95.9431 92.1026 95.1344 92.9764 95.1344C93.8502 95.1344 94.5895 95.8758 94.5895 96.7519V125.798H104.134V94.1235C104.134 92.3713 102.722 91.0235 101.042 91.0235H86.7254V91.0909ZM36.9196 117.104H27.2407V125.865H17.6963V91.0909H37.054C38.7344 91.0909 40.1459 92.5061 40.1459 94.2583V114.004C40.1459 115.757 38.7344 117.104 36.9196 117.104ZM30.5342 96.8866C30.5342 95.9431 29.7949 95.2018 28.9211 95.2018H27.3079V112.791H28.9211C29.7949 112.791 30.5342 112.117 30.5342 111.106V96.8866ZM119.526 126V117.307H116.233V126H106.621V94.4605C106.621 92.7083 108.032 91.4278 109.713 91.4278H125.911C127.592 91.4278 129.003 92.8431 129.003 94.4605V126H119.526ZM119.526 113.061V97.1562C119.526 96.3475 118.787 95.6062 117.913 95.6062C117.039 95.6062 116.3 96.3475 116.3 97.1562V113.128L119.526 113.061Z"></path>
<path fill="black" d="M137.741 125.596C135.12 125.596 133.036 123.507 133.036 120.879C133.036 118.25 135.12 116.161 137.741 116.161C140.362 116.161 142.446 118.25 142.446 120.879C142.446 123.507 140.362 125.596 137.741 125.596ZM137.741 116.902C135.523 116.902 133.775 118.722 133.775 120.879C133.775 123.035 135.59 124.855 137.741 124.855C139.892 124.855 141.707 123.035 141.707 120.879C141.707 118.722 139.959 116.902 137.741 116.902Z"></path>
<path fill="black" d="M136.329 118.924H137.875C138.211 118.924 138.48 118.991 138.682 119.194C138.95 119.396 139.085 119.665 139.085 120.07C139.085 120.609 138.816 121.013 138.346 121.215L139.287 123.035H138.547L137.741 121.283H137.001V123.035H136.396V118.924H136.329ZM136.934 120.744H137.875C138.077 120.744 138.278 120.676 138.413 120.541C138.547 120.407 138.614 120.272 138.614 120.07C138.614 119.868 138.547 119.665 138.413 119.598C138.278 119.531 138.144 119.463 137.942 119.463H137.001V120.744H136.934Z"></path>
</svg>
