<svg xmlns="http://www.w3.org/2000/svg" fill="none" viewBox="0 0 180 180" height="180" width="180">
<path fill="black" d="M89.7239 60.2637C89.7414 63.7087 89.7592 66.5322 89.7634 66.5379C89.7677 66.5437 90.1313 66.3017 90.5717 66C91.012 65.6983 91.8192 65.148 92.3655 64.7771L93.3589 64.1026L93.2618 63.8625C93.0502 63.3397 92.0819 61.1002 92.0564 61.0746C92.0331 61.0512 90.8898 61.4017 90.8347 61.4491C90.8238 61.4585 90.912 61.8552 91.0308 62.3306C91.1495 62.806 91.2347 63.2069 91.2201 63.2216C91.1819 63.2598 90.4304 62.9781 90.3674 62.902C90.3311 62.8581 90.3636 62.468 90.4719 61.6483C90.5987 60.689 90.6476 60.4423 90.7239 60.3762C90.776 60.331 91.0189 60.2402 91.2636 60.1743C91.5084 60.1083 91.7087 60.0463 91.7087 60.0363C91.7087 59.9971 91.3778 59.2623 91.3408 59.2192C91.3185 59.1933 91.2094 59.2102 91.0898 59.2581C90.9735 59.3048 90.8596 59.3429 90.8367 59.3429C90.8139 59.3429 90.8608 58.8936 90.941 58.3444C91.0928 57.3045 91.4334 55.1157 91.4817 54.8699C91.5132 54.7091 91.59 54.7544 90.4938 54.2865C90.1246 54.129 89.7931 54 89.7573 54C89.7051 54 89.6984 55.2466 89.7239 60.2637ZM87.7403 57.0719C87.7735 57.3498 88.0489 60.2435 88.2403 62.3256C88.298 62.9533 88.3587 63.5554 88.3752 63.6637L88.4052 63.8604L88.7377 63.8452L89.0702 63.83L89.0701 60.3285L89.07 56.8271L88.3888 56.8126L87.7075 56.798L87.7403 57.0719ZM79.1914 57.2589C79.1549 57.2826 79.0325 57.6504 78.9195 58.0761C78.8065 58.5018 78.5743 59.3754 78.4035 60.0173C78.2327 60.6592 77.9785 61.6163 77.8385 62.1441C77.6986 62.6719 77.537 63.273 77.4793 63.4798L77.3746 63.8559H80.3542H83.3338L83.3074 63.7392C83.2928 63.675 83.1136 63.1673 82.9093 62.611C82.7049 62.0546 82.4778 61.4244 82.4047 61.2104C82.3315 60.9964 82.2657 60.814 82.2583 60.805C82.2349 60.7761 81.635 61.0956 81.5781 61.1672C81.5479 61.2052 81.4344 61.5398 81.3258 61.9107C81.2171 62.2816 81.11 62.6064 81.0877 62.6326C81.0453 62.6824 79.7075 62.4736 79.5859 62.3983C79.5103 62.3515 79.4963 62.4094 79.9977 60.6916C80.1685 60.1068 80.3929 59.3376 80.4966 58.9823C80.6002 58.6271 80.6915 58.33 80.6994 58.3221C80.7072 58.3142 81.0034 58.6912 81.3576 59.1598C81.7118 59.6284 82.0224 60.0061 82.048 59.9991C82.0735 59.9921 82.2438 59.649 82.4265 59.2367C82.6092 58.8244 82.8637 58.2536 82.9921 57.9683C83.1205 57.683 83.237 57.4231 83.251 57.3907C83.2695 57.3481 82.8939 57.323 81.8884 57.3C81.1249 57.2825 80.2206 57.2563 79.879 57.2419C79.5373 57.2274 79.2278 57.2351 79.1914 57.2589ZM83.8014 57.9813C83.6573 58.3165 83.381 58.9725 83.1874 59.439L82.8355 60.2872L82.9975 60.7358C83.0866 60.9825 83.3031 61.5696 83.4787 62.0403C83.6543 62.5111 83.8674 63.0828 83.9522 63.3108C84.037 63.5388 84.1307 63.7547 84.1604 63.7906C84.2374 63.8835 84.989 63.8745 85.366 63.7761C85.5342 63.7322 85.839 63.6038 86.0434 63.4908C86.2477 63.3778 86.4295 63.2853 86.4473 63.2853C86.4652 63.2853 86.4798 63.402 86.4798 63.5447V63.804H87.046H87.6123L87.5895 63.6354C87.577 63.5427 87.4956 62.5104 87.4086 61.3414C87.3216 60.1724 87.2405 59.206 87.2284 59.1939C87.2163 59.1818 86.9556 59.1928 86.649 59.2185C86.1914 59.2568 86.0926 59.2798 86.0972 59.3469C86.1004 59.392 86.1562 60.0052 86.2213 60.7097C86.2863 61.4142 86.3269 62.0033 86.3114 62.0188C86.2394 62.091 85.0523 62.5958 85.0236 62.5664C85.0057 62.5481 85.0452 61.8345 85.1113 60.9805C85.2725 58.8968 85.2753 58.8094 85.184 58.6787C85.0412 58.4743 84.1243 57.3773 84.0939 57.3745C84.0772 57.373 83.9456 57.646 83.8014 57.9813ZM100.198 58.0228C100.197 58.0499 100.129 58.5272 100.047 59.0836C99.5615 62.3763 99.3662 63.7648 99.3862 63.7848C99.4096 63.8082 101.809 63.7123 101.835 63.6869C101.855 63.6669 101.948 62.1759 101.931 62.1441C101.924 62.1298 101.735 62.1298 101.512 62.1441L101.105 62.17L101.123 62.6699C101.135 63.0068 101.121 63.1817 101.081 63.2065C101.019 63.2449 100.303 63.0887 100.303 63.0366C100.303 63.0099 100.411 62.5912 100.566 62.0242C100.626 61.8025 100.599 61.8177 101.776 61.3391C102.145 61.1891 102.456 61.0396 102.467 61.007C102.478 60.9744 102.407 60.8492 102.31 60.7289C102.135 60.5132 101.798 60.0717 100.797 58.7464C100.208 57.9659 100.2 57.9564 100.198 58.0228ZM91.9676 59.1044C91.9676 59.1263 92.722 60.8997 93.5119 62.7345C93.7683 63.3303 94.0157 63.8555 94.0616 63.9017C94.1367 63.9773 96.0576 64.4947 96.1016 64.4512C96.1117 64.4413 96.0988 64.245 96.0731 64.0149C96.0473 63.7848 96.0447 63.5965 96.0673 63.5965C96.0898 63.5965 96.214 63.8074 96.3431 64.0652C96.4906 64.3593 96.6208 64.5519 96.6931 64.5826C96.8711 64.6581 97.7226 64.8503 97.7514 64.8215C97.7655 64.8074 97.7055 64.6369 97.6181 64.4426C97.5307 64.2483 97.0722 63.1804 96.5993 62.0694C96.1264 60.9585 95.7056 59.9839 95.6642 59.9037L95.5889 59.7579H94.9172C94.5478 59.7579 94.2455 59.779 94.2455 59.8049C94.2455 59.8307 94.5717 60.5216 94.9703 61.3401C95.369 62.1586 95.6951 62.8448 95.6951 62.865C95.6951 62.9249 94.7068 63.1459 94.6589 63.0967C94.6349 63.0721 94.5084 62.655 94.3778 62.17C93.9267 60.4948 93.733 59.7978 93.7133 59.7779C93.6892 59.7538 92.0285 59.0836 91.9928 59.0836C91.9789 59.0836 91.9676 59.093 91.9676 59.1044ZM97.0412 59.5369C96.9985 59.5535 96.8201 59.6314 96.6448 59.71L96.3262 59.853L96.6384 60.5965C96.8101 61.0055 97.0896 61.6669 97.2594 62.0663C97.4293 62.4657 97.6494 62.9909 97.7485 63.2334C97.8475 63.4759 97.9663 63.7036 98.0125 63.7392C98.095 63.8029 98.7045 63.8319 98.7615 63.7748C98.7776 63.7587 98.757 63.6012 98.7158 63.4247C98.6549 63.1635 98.1284 60.6893 98.1284 60.6643C98.1284 60.6443 98.6845 60.2767 98.7146 60.2767C98.7338 60.2767 98.7496 60.4984 98.7496 60.7695V61.2622H98.9842C99.125 61.2622 99.2281 61.2363 99.242 61.1974C99.2707 61.1173 99.4732 59.5838 99.4572 59.5678C99.4509 59.5614 99.0154 59.6244 98.4894 59.7076C97.2628 59.9018 97.3193 59.9031 97.2776 59.6801C97.2444 59.5028 97.1992 59.4755 97.0412 59.5369ZM56.5643 59.745C56.5349 59.8234 56.3558 60.2494 56.1664 60.6916C55.9771 61.1339 55.6991 61.7875 55.5486 62.1441C55.3982 62.5007 55.2375 62.8742 55.1915 62.9741C55.1456 63.0739 54.6525 64.2294 54.0958 65.5418C53.5391 66.8542 53.0168 68.0797 52.9351 68.2651C52.8534 68.4506 52.246 69.8745 51.5851 71.4294C50.9243 72.9843 50.2581 74.5431 50.1047 74.8935C49.9512 75.2438 49.8256 75.5414 49.8256 75.5548C49.8256 75.5681 49.735 75.7834 49.6242 76.0331C49.5135 76.2828 48.9867 77.5141 48.4535 78.7695C47.9204 80.0248 47.3936 81.2561 47.283 81.5058C47.1723 81.7555 47.0817 81.9717 47.0817 81.9864C47.0817 82.001 46.9564 82.2986 46.8032 82.6477C46.65 82.9968 46.228 83.9827 45.8653 84.8386C45.5027 85.6945 45.0805 86.6804 44.9272 87.0295C44.7739 87.3786 44.6485 87.6772 44.6485 87.6929C44.6485 87.7087 44.5679 87.9016 44.4695 88.1216C44.1265 88.888 42.3696 93.0249 42.383 93.0346C42.3904 93.0399 43.2468 92.5451 44.2861 91.935C45.3254 91.3249 46.3505 90.7259 46.564 90.6039C46.7776 90.4818 47.4416 90.0937 48.0395 89.7414C48.6375 89.3891 49.2549 89.027 49.4115 88.9368C49.7426 88.746 51.5754 87.6775 52.6989 87.0202C53.1261 86.7703 53.7784 86.3896 54.1486 86.1742C54.5187 85.9589 54.9497 85.7064 55.1063 85.6132C55.2629 85.5201 55.7405 85.2401 56.1676 84.9911C56.8981 84.5652 59.3168 83.1519 61.1118 82.1021C61.5532 81.8441 62.3087 81.4024 62.7906 81.1208C63.2727 80.8391 63.6838 80.6267 63.7043 80.6487C63.7574 80.7059 64.1823 81.483 64.9152 82.8635C65.2648 83.5219 65.9231 84.7608 66.3783 85.6167C66.8334 86.4726 67.503 87.7331 67.8662 88.4179C68.7734 90.1283 68.6972 90.0161 68.9233 89.9745C69.0263 89.9555 69.1313 89.9199 69.1568 89.8952C69.1838 89.8689 69.0795 89.3037 68.9065 88.5375C68.308 85.8883 68.0906 84.9184 67.5312 82.4006C67.3918 81.7729 67.1244 80.5824 66.937 79.755C66.7497 78.9277 66.5265 77.9239 66.4411 77.5245C66.3556 77.1251 66.217 76.5065 66.1331 76.1499C66.0491 75.7932 65.8743 75.0229 65.7446 74.438C65.348 72.6493 65.0145 71.1535 64.7098 69.7954C64.0621 66.9096 63.7921 65.7005 63.5743 64.7118C63.4486 64.1412 63.2927 63.4471 63.228 63.1695L63.1103 62.6646L62.7453 62.4902C62.5445 62.3943 61.1089 61.7053 59.5551 60.959C58.0013 60.2129 56.7047 59.6023 56.6739 59.6023C56.6431 59.6023 56.5937 59.6665 56.5643 59.745ZM127.457 59.8094C127.31 59.8481 126.983 59.9937 125.36 60.7428C124.976 60.9202 124.417 61.1774 124.118 61.3141C123.819 61.4509 123.26 61.7076 122.875 61.8847C122.491 62.0618 121.932 62.3188 121.633 62.4558C121.334 62.5929 120.751 62.8606 120.338 63.0506C119.925 63.2407 119.325 63.5146 119.004 63.6593C118.626 63.8293 118.386 63.9701 118.325 64.0577C118.022 64.4909 116.771 69.3408 116.041 72.9078C115.429 75.8992 114.946 79.307 115.023 80.0922C115.038 80.2491 115.192 80.8444 115.366 81.415C116.01 83.5336 116.666 85.2903 117.02 85.8424C117.196 86.117 117.091 86.0611 119.898 87.3705C120.354 87.583 120.913 87.8439 121.141 87.9504C121.96 88.3337 123.121 88.8748 123.781 89.1819C124.989 89.7435 126.76 90.571 127.975 91.1415C128.63 91.4491 129.503 91.8575 129.916 92.0491C130.329 92.2407 130.818 92.4677 131.003 92.5536C131.762 92.9058 132.926 93.45 133.43 93.6884C134.021 93.9676 134.138 93.9837 134.705 93.8643C135.324 93.734 135.746 93.4875 136.242 92.965C138.413 90.6795 140.644 87.8443 141.296 86.5445L141.507 86.1235L141.143 85.2476C140.944 84.7659 140.748 84.2854 140.71 84.18C140.607 83.9012 139.603 81.5197 139.107 80.3775C138.043 77.9326 137.249 76.1337 136.62 74.7493C136.458 74.3927 136.268 73.9725 136.197 73.8156C136.026 73.4362 135.142 71.5416 134.564 70.3141C133.965 69.0426 132.236 65.6049 131.825 64.8674C131.027 63.4357 130.473 62.5317 129.996 61.8821C129.682 61.4541 128.597 60.3679 128.14 60.0233C127.782 59.7533 127.731 59.7373 127.457 59.8094ZM77.2473 64.4611C77.1922 64.5163 77.2074 65.1952 77.2645 65.2305C77.2969 65.2506 77.3163 65.1446 77.3163 64.9483C77.3163 64.7733 77.3392 64.634 77.368 64.634C77.3965 64.634 77.4206 64.6515 77.4215 64.6729C77.4225 64.6943 77.4712 64.7696 77.5299 64.8402L77.6365 64.9686L77.7856 64.7883L77.9347 64.6081L77.9361 64.9323C77.9369 65.1129 77.9605 65.2565 77.9893 65.2565C78.0195 65.2565 78.0411 65.0836 78.0411 64.8415C78.0411 64.6034 78.0193 64.4265 77.99 64.4265C77.962 64.4265 77.8758 64.5222 77.7986 64.639L77.6583 64.8515L77.5145 64.6779C77.4355 64.5824 77.3702 64.4868 77.3694 64.4654C77.3677 64.4172 77.2936 64.4146 77.2473 64.4611ZM78.7411 64.8238C78.561 65.2144 78.5363 65.3858 78.6923 65.1626C78.7509 65.0788 78.8246 65.049 78.9729 65.049C79.1213 65.049 79.195 65.0788 79.2536 65.1626C79.2972 65.225 79.3463 65.2628 79.3626 65.2465C79.399 65.21 79.0174 64.4265 78.9632 64.4265C78.9418 64.4265 78.8419 64.6053 78.7411 64.8238ZM79.9059 64.8316C79.9052 65.1245 79.9226 65.2516 79.9602 65.2284C79.9906 65.2095 80.0118 65.0856 80.0073 64.9529C80.0028 64.8203 80.0012 64.6931 80.0038 64.6702C80.0063 64.6473 80.1257 64.7699 80.2691 64.9425C80.4126 65.1152 80.5407 65.2565 80.5538 65.2565C80.567 65.2565 80.5779 65.0697 80.5779 64.8415C80.5779 64.5994 80.5563 64.4265 80.5261 64.4265C80.4976 64.4265 80.4743 64.5549 80.4743 64.7118C80.4743 64.8687 80.451 64.9971 80.4226 64.9971C80.3941 64.9971 80.3699 64.9796 80.3688 64.9582C80.3677 64.9368 80.2634 64.8026 80.1369 64.6599L79.907 64.4006L79.9059 64.8316ZM81.4216 64.4914C81.3434 64.5949 81.0901 65.2164 81.1157 65.2421C81.1285 65.2549 81.165 65.2167 81.1967 65.1572C81.2829 64.9959 81.688 65.0018 81.7754 65.1656C81.9146 65.426 81.8655 65.1388 81.7123 64.7954C81.5435 64.4172 81.5067 64.3788 81.4216 64.4914ZM82.4475 64.5605C82.1556 64.9323 82.5501 65.424 82.9628 65.2028C83.0322 65.1656 83.0629 65.094 83.0629 64.9694C83.0629 64.8043 83.0503 64.7896 82.9076 64.7896C82.8222 64.7896 82.7523 64.813 82.7523 64.8415C82.7523 64.87 82.8121 64.8934 82.8853 64.8934C82.9933 64.8934 83.0152 64.9151 83.0018 65.009C82.9775 65.1789 82.7464 65.2467 82.5751 65.1342C82.3831 65.0082 82.3838 64.6744 82.5763 64.548C82.6864 64.4757 82.7389 64.4701 82.8642 64.5176C82.981 64.5617 83.0127 64.5609 82.9974 64.514C82.9863 64.4802 82.8826 64.4454 82.7671 64.4368C82.5907 64.4237 82.5393 64.4435 82.4475 64.5605ZM83.6324 64.8415V65.2565H83.9171C84.2656 65.2565 84.297 65.1645 83.956 65.1426C83.7323 65.1283 83.71 65.115 83.71 64.9971C83.71 64.8823 83.7368 64.8641 83.943 64.8381L84.176 64.8089L83.943 64.7863C83.7491 64.7675 83.7072 64.7441 83.6935 64.647C83.6785 64.5407 83.6979 64.5303 83.9104 64.5303C84.0389 64.5303 84.1584 64.5069 84.176 64.4784C84.1959 64.4462 84.0988 64.4265 83.9202 64.4265H83.6324V64.8415ZM84.7813 64.8545C84.7905 65.2492 84.7927 65.2573 84.8097 64.9582C84.8198 64.7799 84.8486 64.634 84.8739 64.634C84.899 64.634 84.9694 64.704 85.0302 64.7896C85.091 64.8752 85.1575 64.9452 85.1779 64.9452C85.1983 64.9452 85.2562 64.8752 85.3067 64.7896C85.3572 64.704 85.4193 64.634 85.4448 64.634C85.4703 64.634 85.4995 64.7799 85.5096 64.9582C85.5265 65.2573 85.5288 65.2492 85.5379 64.8545C85.5434 64.6191 85.5277 64.4265 85.503 64.4265C85.4783 64.4265 85.3965 64.5199 85.3211 64.634C85.2457 64.7481 85.1758 64.8415 85.1658 64.8415C85.1558 64.8415 85.0859 64.7481 85.0105 64.634C84.9351 64.5199 84.8505 64.4265 84.8224 64.4265C84.7922 64.4265 84.7754 64.6011 84.7813 64.8545ZM86.1692 64.8415V65.2565H86.457C86.6356 65.2565 86.7327 65.2368 86.7128 65.2046C86.6952 65.1761 86.589 65.1527 86.4768 65.1527C86.2854 65.1527 86.2727 65.1432 86.2727 65C86.2727 64.855 86.2853 64.8462 86.5186 64.8278L86.7645 64.8083L86.5186 64.799C86.2933 64.7904 86.2727 64.7787 86.2727 64.6599C86.2727 64.5432 86.2934 64.5303 86.4798 64.5303C86.5937 64.5303 86.6869 64.5069 86.6869 64.4784C86.6869 64.4499 86.5704 64.4265 86.428 64.4265H86.1692V64.8415ZM87.3179 64.8514C87.326 65.2074 87.331 65.2305 87.3464 64.9841C87.3567 64.8201 87.3859 64.6859 87.4112 64.6859C87.4366 64.6859 87.5564 64.8129 87.6774 64.9681C87.7984 65.1234 87.9163 65.2387 87.9393 65.2244C87.9998 65.1869 87.9909 64.4905 87.9294 64.4524C87.8973 64.4325 87.8776 64.5297 87.8776 64.7088C87.8776 64.8673 87.8591 64.9971 87.8365 64.9971C87.8139 64.9971 87.7063 64.8801 87.5974 64.737C87.4885 64.594 87.3789 64.4642 87.3538 64.4487C87.3285 64.433 87.3126 64.6132 87.3179 64.8514ZM88.4989 64.4784C88.4989 64.5069 88.5561 64.5303 88.626 64.5303C88.7478 64.5303 88.754 64.5464 88.7711 64.9063L88.789 65.2824L88.7992 64.9063C88.8092 64.5425 88.8137 64.5303 88.9389 64.5303C89.0101 64.5303 89.0684 64.5069 89.0684 64.4784C89.0684 64.4499 88.9402 64.4265 88.7836 64.4265C88.627 64.4265 88.4989 64.4499 88.4989 64.4784ZM79.0714 64.7455C79.1523 64.978 79.1455 64.9971 78.9816 64.9971C78.7787 64.9971 78.7599 64.9613 78.8565 64.7584C78.9604 64.54 78.9991 64.5377 79.0714 64.7455ZM81.6082 64.7455C81.6907 64.9826 81.6835 64.9971 81.4839 64.9971C81.282 64.9971 81.2667 64.9579 81.3817 64.7352C81.4826 64.5395 81.5374 64.542 81.6082 64.7455ZM83.5288 65.879C83.3935 66.0146 83.3884 66.3482 83.52 66.4675C83.6306 66.5678 83.9963 66.5829 84.088 66.4911C84.1221 66.4568 84.1501 66.3635 84.1501 66.2836C84.1501 66.1536 84.1324 66.1387 83.9818 66.1416C83.8255 66.1447 83.8221 66.1483 83.9337 66.1932C84.0188 66.2273 84.049 66.2755 84.0372 66.3585C84.0125 66.5331 83.6754 66.5547 83.5596 66.389C83.4463 66.2269 83.4562 66.0555 83.5863 65.9251C83.6759 65.8353 83.7341 65.8215 83.9099 65.848C84.061 65.8709 84.1013 65.8652 84.0466 65.8286C83.9149 65.7408 83.6401 65.7675 83.5288 65.879ZM84.7196 66.0022C84.7196 66.127 84.705 66.302 84.6872 66.3912C84.6663 66.4959 84.6755 66.5533 84.7131 66.5533C84.7452 66.5533 84.7714 66.495 84.7714 66.4236C84.7714 66.3209 84.7975 66.2939 84.897 66.2939C84.9694 66.2939 85.0659 66.3489 85.1245 66.4236C85.1805 66.495 85.2579 66.553 85.2965 66.5525C85.339 66.552 85.3462 66.5367 85.3149 66.5136C85.2865 66.4927 85.2325 66.4362 85.195 66.3882C85.1371 66.314 85.1429 66.2848 85.2338 66.1937C85.4479 65.9792 85.309 65.7752 84.9489 65.7752H84.7196V66.0022ZM85.9621 65.879C85.8268 66.0146 85.8217 66.3482 85.9532 66.4675C86.0815 66.5838 86.4396 66.5808 86.5433 66.4625C86.5871 66.4126 86.6385 66.3204 86.6575 66.2576C86.6981 66.1242 86.5749 65.8548 86.4516 65.8074C86.2872 65.7442 86.064 65.7769 85.9621 65.879ZM87.2046 66.0828C87.2046 66.4437 87.2832 66.5533 87.5419 66.5533C87.7769 66.5533 87.8776 66.4021 87.8776 66.049C87.8776 65.8984 87.8543 65.7752 87.8259 65.7752C87.7973 65.7752 87.7741 65.9101 87.7741 66.0761C87.7741 66.3962 87.7165 66.5014 87.5411 66.5014C87.3658 66.5014 87.3082 66.3962 87.3082 66.0761C87.3082 65.9101 87.285 65.7752 87.2564 65.7752C87.2277 65.7752 87.2046 65.9123 87.2046 66.0828ZM88.4471 66.1643C88.4471 66.389 88.469 66.5533 88.4989 66.5533C88.5274 66.5533 88.5507 66.495 88.5507 66.4236C88.5507 66.307 88.5715 66.2939 88.7566 66.2939C88.9191 66.2939 88.9803 66.2666 89.0473 66.1643C89.1258 66.0441 89.1258 66.025 89.0473 65.9049C88.9756 65.7953 88.9225 65.7752 88.7048 65.7752H88.4471V66.1643ZM85.2015 65.9367C85.296 66.0881 85.2067 66.1902 84.98 66.1902C84.7754 66.1902 84.7714 66.1866 84.7714 66.0055C84.7714 65.8247 84.7753 65.8212 84.9603 65.8369C85.0642 65.8458 85.1727 65.8907 85.2015 65.9367ZM86.4798 65.9308C86.604 66.0552 86.6127 66.2289 86.5027 66.3861C86.3377 66.6223 85.9103 66.4622 85.9103 66.1643C85.9103 65.9978 86.0807 65.8271 86.2468 65.8271C86.318 65.8271 86.4229 65.8738 86.4798 65.9308ZM88.933 65.9064C89.077 66.0506 88.9413 66.2399 88.693 66.2413C88.5613 66.242 88.5507 66.2266 88.5507 66.0346C88.5507 65.8397 88.5599 65.8271 88.7023 65.8271C88.7857 65.8271 88.8895 65.8628 88.933 65.9064ZM71.2871 67.2242C71.2707 67.2508 71.0421 67.4359 70.7792 67.6355C70.5163 67.8351 70.1564 68.111 69.9795 68.2485C69.8025 68.386 69.0638 68.9537 68.3378 69.5101C67.6118 70.0664 67.017 70.5333 67.016 70.5476C67.014 70.5764 67.9875 70.8575 71.0925 71.7245L71.366 71.8009L71.3254 76.7117C71.3031 79.4126 71.2849 82.4161 71.2849 83.3862V85.1499L71.606 85.1957C71.8941 85.2367 71.9661 85.2268 72.3049 85.0991C72.5128 85.0207 72.939 84.8675 73.2522 84.7585C73.5654 84.6494 74.2177 84.4171 74.7018 84.2421C75.1859 84.0671 75.8382 83.834 76.1514 83.7241C76.4646 83.6143 77.1868 83.3571 77.7563 83.1528C78.3258 82.9485 78.9258 82.7343 79.0897 82.6769L79.3876 82.5724L79.353 81.0659L79.3184 79.5594L79.6245 79.596C79.793 79.6161 80.5364 79.7142 81.2768 79.8141C82.0171 79.9139 83.147 80.0633 83.7877 80.1461C84.4284 80.2289 85.0224 80.3087 85.1079 80.3236C85.2856 80.3544 85.2155 80.4552 86.2968 78.6138C86.6319 78.0432 86.9621 77.4885 87.0306 77.3812L87.1551 77.1861L87.0375 77.1367C86.9728 77.1096 86.384 76.9704 85.7291 76.8275C85.0742 76.6845 83.9676 76.4381 83.27 76.2799C82.5724 76.1217 81.4308 75.8645 80.7332 75.7083C80.0356 75.5521 79.3949 75.4046 79.3095 75.3806L79.1542 75.337L79.1722 74.5893C79.1821 74.178 79.1994 73.8319 79.2107 73.8202C79.2419 73.7878 79.5619 73.8638 83.2425 74.7777C85.1209 75.2441 86.6609 75.6211 86.6647 75.6155C87.1073 74.9557 88.2918 73.0885 88.2918 73.0506C88.2918 73.021 88.0414 72.9139 87.7353 72.8124C87.0178 72.5745 85.6279 72.0972 84.3831 71.6613C83.8421 71.4718 83.1315 71.2272 82.804 71.1176C82.4766 71.008 81.7311 70.7516 81.1474 70.5477C80.5636 70.3438 79.7249 70.0532 79.2836 69.9018C78.8422 69.7504 76.8822 69.0751 74.928 68.4012C72.9738 67.7272 71.3619 67.1758 71.3459 67.1758C71.3299 67.1758 71.3035 67.1976 71.2871 67.2242ZM109.415 68.1065C109.343 68.1317 108.644 68.3314 107.861 68.5504C107.078 68.7695 106.17 69.0267 105.842 69.122C105.178 69.3154 103.831 69.6976 101.002 70.4954C100.518 70.6319 99.609 70.8889 98.9826 71.0665C98.3562 71.2441 97.3893 71.5182 96.8341 71.6756C94.5984 72.3095 93.8556 72.5189 92.6665 72.8506C91.9831 73.0411 91.3959 73.2254 91.3615 73.2599C91.3272 73.2945 90.8908 74.1463 90.3918 75.1528L89.4845 76.9829L89.8386 77.2417L90.1927 77.5006L90.2261 78.0054C90.2588 78.4978 90.6582 86.0199 90.6807 86.5662C90.687 86.7175 90.7069 86.8504 90.7251 86.8617C90.7801 86.8958 91.4572 86.7022 91.7605 86.5657C92.1477 86.3914 93.6584 85.544 94.7762 84.8741L95.6951 84.3233L95.6948 84.0882C95.6945 83.8296 95.4609 77.9479 95.4061 76.8169L95.3718 76.1094L95.857 76.0003C96.3506 75.8893 98.0847 75.5283 99.8627 75.1662C100.404 75.0561 101.247 74.8797 101.738 74.7744L102.629 74.5828L102.812 74.6962C103.004 74.8153 103.044 74.9235 102.922 74.9931C102.855 75.0312 101.411 76.4285 98.7762 79.0043C98.2063 79.5614 97.5472 80.2033 97.3116 80.4308L96.8831 80.8444L97.4928 81.1154C98.302 81.4751 100.25 82.3291 100.898 82.6081C101.183 82.7307 101.742 82.9755 102.141 83.1521C102.539 83.3287 103.098 83.5738 103.383 83.6968C103.668 83.8198 104.227 84.0651 104.626 84.2421C105.024 84.419 105.583 84.6642 105.868 84.787C106.153 84.9097 107.085 85.3181 107.939 85.6945C108.793 86.071 109.725 86.4796 110.01 86.6027C110.295 86.7258 110.819 86.9547 111.175 87.1114C113.426 88.1024 114.393 88.5267 114.98 88.7811C115.265 88.9045 115.929 89.1962 116.455 89.4293C117.86 90.0509 117.785 90.0282 118.049 89.9142L118.27 89.8184L116.495 88.4925C115.52 87.7633 113.987 86.6178 113.09 85.947C112.193 85.2763 110.667 84.1364 109.699 83.414C108.731 82.6915 107.409 81.704 106.762 81.2195L105.585 80.3386L106.192 79.7615C106.526 79.4441 107.359 78.6475 108.042 77.9913C108.726 77.3351 110.24 75.8878 111.406 74.7752C114.886 71.4567 114.979 71.367 115 71.31C115.023 71.25 115.033 71.2597 114.146 70.5452C112.296 69.0567 110.761 68.1904 109.79 68.087C109.655 68.0725 109.486 68.0813 109.415 68.1065ZM123.739 70.1585C124.325 71.2962 124.701 72.2843 125.984 76.0461C127.748 81.2209 128.105 82.2867 128.086 82.3064C128.067 82.3256 127.056 82.1214 123.652 81.4107C122.897 81.2532 121.664 80.9974 120.911 80.8422C120.158 80.687 119.525 80.5423 119.504 80.5206C119.483 80.499 119.532 80.1311 119.612 79.7032C120.018 77.5375 120.367 75.6621 120.621 74.2824C120.777 73.4408 120.988 72.437 121.09 72.0519C121.551 70.3225 121.7 69.9038 121.879 69.8351C122.088 69.7546 123.172 69.5171 123.289 69.5261C123.399 69.5345 123.467 69.6292 123.739 70.1585ZM60.922 75.0247C61.5389 76.2033 62.0437 77.1832 62.0437 77.2022C62.0437 77.2213 61.7933 77.3559 61.4872 77.5013C58.9787 78.6933 57.6315 79.3197 57.6141 79.3024C57.6029 79.2911 57.9804 78.1395 58.453 76.7432C58.9257 75.347 59.4069 73.907 59.5225 73.5432C59.6381 73.1795 59.7479 72.8818 59.7665 72.8818C59.7851 72.8818 60.3051 73.8461 60.922 75.0247ZM98.6383 87.1721C98.6093 87.2011 96.3607 88.1556 95.7857 88.383C95.4567 88.5131 95.4363 88.5308 95.4363 88.6857C95.4363 88.8768 95.7499 92.1725 95.9019 93.5793C95.959 94.1071 96.0983 95.5076 96.2115 96.6916C96.3247 97.8756 96.4515 99.1362 96.4933 99.4928C96.5351 99.8494 96.5525 100.158 96.5321 100.179C96.496 100.215 96.0428 100.409 94.9185 100.868C94.295 101.123 92.9652 101.675 92.6825 101.796L92.4915 101.878L92.4623 101.658C92.4311 101.423 92.3069 98.7599 92.0977 93.8386C91.9753 90.9614 91.926 90.0519 91.892 90.0519C91.8838 90.0519 91.6703 90.1429 91.4176 90.2542C91.1648 90.3654 90.5037 90.6483 89.9485 90.8826C89.3932 91.117 88.8456 91.3489 88.7315 91.398L88.5241 91.4873L87.7737 93.7338C87.3611 94.9695 87.015 96.0023 87.0047 96.0291C86.9944 96.0559 87.0548 96.0421 87.1389 95.9986C87.4333 95.8461 88.515 95.3937 88.5358 95.4145C88.5473 95.426 88.5324 96.0157 88.5026 96.7249C88.2977 101.607 88.3137 105.021 88.5466 106.107C88.7228 106.928 89.2342 108.171 89.5795 108.617L89.6759 108.742L90.524 108.364C90.9905 108.156 91.6518 107.862 91.9935 107.712C92.814 107.351 93.7525 106.935 95.2033 106.288C95.8582 105.996 96.6969 105.623 97.0671 105.458C97.4372 105.294 98.0896 105.003 98.5167 104.812C98.9438 104.621 99.5062 104.372 99.7664 104.258L100.24 104.05L100.348 103.767C100.535 103.277 100.822 101.466 100.82 100.79C100.819 100.516 100.643 99.3423 99.8613 94.4092C99.6256 92.921 99.4835 92.0061 99.008 88.913C98.7697 87.3635 98.7131 87.0971 98.6383 87.1721ZM102.566 88.9852L102.111 90.4063L102.484 90.94L102.857 91.4738L103.078 93.0064C103.292 94.4859 103.553 96.2663 104.157 100.375C104.315 101.445 104.566 103.169 104.715 104.207L104.987 106.094L105.147 106.171C105.323 106.255 105.119 106.317 107.577 105.422C108.004 105.266 108.394 105.126 108.444 105.111C108.56 105.075 108.562 105.097 108.381 104.213C108.296 103.8 108.05 102.539 107.834 101.412C107.618 100.285 107.339 98.8379 107.213 98.196C106.306 93.5569 106.32 93.6311 106.381 93.6311C106.393 93.6311 106.678 93.8149 107.015 94.0394C107.353 94.264 108.284 94.8802 109.086 95.4089L110.543 96.3701L110.731 96.7083L110.92 97.0466L110.666 97.4008C110.357 97.8318 108.961 99.7998 108.621 100.283L108.375 100.633L111.035 104.692C112.498 106.925 113.924 109.102 114.204 109.53C114.484 109.958 115.003 110.752 115.358 111.294C122.901 122.819 123.48 123.692 123.591 123.708C123.653 123.717 123.703 123.707 123.703 123.686C123.703 123.665 123.478 123.225 123.203 122.71C122.553 121.493 121.754 119.994 120.962 118.504C120.613 117.848 120.251 117.171 120.156 117C120.062 116.829 119.7 116.152 119.352 115.496C118.678 114.226 117.86 112.689 116.936 110.957C116.624 110.372 116.071 109.333 115.707 108.648C115.343 107.964 114.924 107.182 114.774 106.911C114.625 106.64 114.345 106.117 114.152 105.749L113.801 105.08L113.935 104.711C114.009 104.509 114.212 103.969 114.386 103.513C114.561 103.056 114.828 102.356 114.981 101.957C115.133 101.557 115.389 100.892 115.549 100.478C115.709 100.065 115.852 99.6899 115.867 99.6455C115.897 99.553 115.627 98.9189 115.16 97.9857C114.572 96.8109 114.001 95.8311 113.114 94.4783C112.543 93.6076 112.521 93.582 112.134 93.3371C111.917 93.1992 111.233 92.7626 110.615 92.3667C109.998 91.9709 109.154 91.4312 108.742 91.1675C108.329 90.9038 107.653 90.4706 107.24 90.2049C106.827 89.9392 106.28 89.5898 106.024 89.4285C105.767 89.2673 105.005 88.7813 104.33 88.3487C103.654 87.916 103.084 87.5624 103.061 87.563C103.039 87.5636 102.816 88.2035 102.566 88.9852ZM63.8557 89.1248C63.272 89.44 62.2585 89.985 61.6036 90.3359C60.9487 90.6869 59.9586 91.2188 59.4034 91.5181C56.9448 92.8431 56.2524 93.2155 53.1131 94.9017C52.5721 95.1922 51.6402 95.6938 51.0423 96.0163C49.4651 96.8668 47.9694 97.6697 46.8671 98.2576L45.9017 98.7725L44.1517 101.117C40.6015 105.873 40.2701 106.318 40.1455 106.494L40.0183 106.673L40.4308 106.446C40.6577 106.321 41.2277 106.01 41.6975 105.755C42.1673 105.5 42.744 105.186 42.9789 105.059C43.2138 104.931 43.406 104.842 43.406 104.861C43.406 104.881 43.2686 105.239 43.1008 105.657C42.9329 106.076 42.1268 108.087 41.3093 110.127C40.4919 112.167 39.1818 115.435 38.398 117.389C37.6142 119.343 36.8623 121.222 36.7271 121.565C36.5918 121.907 36.2921 122.654 36.0611 123.225C35.83 123.795 35.6408 124.28 35.6406 124.302C35.6394 124.434 36.2982 123.844 37.9441 122.238C39.8573 120.371 41.2993 118.975 44.1048 116.276L45.7097 114.732L46.1605 113.428C46.4085 112.711 46.8064 111.565 47.0447 110.882L47.4782 109.64L47.8882 109.412C48.1138 109.286 48.5546 109.042 48.8679 108.868C49.1811 108.695 49.6121 108.456 49.8256 108.338C50.0392 108.219 50.7265 107.835 51.3529 107.484C51.9793 107.133 52.7365 106.711 53.0355 106.546C53.3344 106.382 53.9285 106.052 54.3556 105.814L55.1322 105.38L55.9088 104.201C56.3359 103.552 57.0814 102.414 57.5655 101.671C58.0495 100.929 58.8349 99.7264 59.3108 98.9995C59.7866 98.2726 60.1996 97.6335 60.2286 97.5793C60.2624 97.516 59.9256 97.6751 59.2857 98.0247C58.1415 98.6499 57.3781 99.0653 56.0641 99.7778C55.5516 100.056 54.8876 100.418 54.5886 100.582C54.2896 100.747 53.6257 101.108 53.1131 101.385C51.7729 102.111 50.8942 102.589 50.4284 102.847C50.0042 103.082 49.9001 103.116 49.9446 103.007C49.9591 102.972 50.0794 102.662 50.2118 102.32C50.3442 101.978 50.5366 101.48 50.6393 101.215C50.7656 100.889 50.8693 100.703 50.96 100.639C51.0337 100.588 51.5134 100.317 52.0259 100.038C53.0473 99.4812 53.7622 99.091 54.6533 98.6037C54.9737 98.4285 55.4571 98.1646 55.7276 98.0172C59.5344 95.9429 60.3796 95.4693 60.4841 95.3517C60.5517 95.2756 61.0126 94.5947 61.5083 93.8386C62.5551 92.2419 63.3661 91.0079 64.3125 89.572C64.6839 89.0086 64.9718 88.5485 64.9524 88.5497C64.9329 88.5508 64.4394 88.8097 63.8557 89.1248ZM77.4545 89.4424C77.4154 89.5065 77.2134 89.8742 77.0057 90.2594C76.798 90.6445 76.5301 91.1347 76.4103 91.3487C75.9997 92.0821 75.4579 93.0865 75.4238 93.1772C75.3917 93.2627 75.5052 93.268 77.3648 93.268H79.3401L79.3083 93.4625C79.2909 93.5695 79.2663 93.7154 79.2539 93.7867C79.2413 93.8581 79.1016 94.9318 78.9432 96.1729C78.7849 97.414 78.5422 99.3048 78.4039 100.375C77.7597 105.361 77.5674 106.92 77.5937 106.947C77.6868 107.04 78.2149 106.692 79.3354 105.799C80.9701 104.497 81.9765 103.683 81.9996 103.646C82.0431 103.575 82.1113 102.825 82.3373 99.9337C82.4532 98.4501 82.5932 96.7228 82.6484 96.0951C82.7035 95.4674 82.7741 94.6154 82.8051 94.2017C82.8362 93.788 82.8712 93.4204 82.883 93.3847C82.8985 93.3375 83.0784 93.3199 83.545 93.3199C83.8973 93.3199 84.4681 93.3047 84.8134 93.2861L85.4412 93.2522L85.6987 92.6506C86.0912 91.7334 86.4909 90.8123 86.8114 90.0868C86.9707 89.726 87.1011 89.4071 87.1011 89.3782C87.1011 89.3431 85.5134 89.3256 82.3134 89.3256H77.5257L77.4545 89.4424ZM74.0028 89.7726C71.3589 90.9693 71.4141 90.9416 71.382 91.0843C71.3653 91.1584 71.3197 91.3488 71.2807 91.5073C71.2416 91.6659 71.0927 92.3311 70.9498 92.9857C70.8068 93.6403 70.5606 94.7594 70.4025 95.4726C70.2445 96.1859 69.9892 97.3414 69.8353 98.0403C69.6814 98.7393 69.4259 99.8948 69.2676 100.608C69.1093 101.321 68.8738 102.395 68.7444 102.994C68.6149 103.593 68.4929 104.1 68.4732 104.119C68.4536 104.139 68.2511 104.236 68.0233 104.336C67.6376 104.504 67.3005 104.654 65.2138 105.587C64.779 105.781 64.4149 105.931 64.4046 105.92C64.3859 105.899 64.5865 105.103 65.2002 102.761C65.6329 101.11 66.099 99.3185 66.3408 98.3775C66.4508 97.9496 66.6954 97.0042 66.8843 96.2767C67.0733 95.5491 67.3638 94.4287 67.5301 93.7867C67.6963 93.1448 67.8486 92.5787 67.8686 92.5288C67.9171 92.4076 67.823 92.4131 67.5315 92.5485C67.4033 92.6079 67.0655 92.756 66.7808 92.8776C64.4635 93.8664 64.3327 93.9277 64.2515 94.0618C64.2135 94.1245 63.7909 94.8878 63.3122 95.7579C62.8337 96.6281 62.2227 97.7334 61.9546 98.2141C61.6866 98.6948 61.4779 99.0988 61.4908 99.1118C61.5038 99.1248 61.8413 98.9824 62.2408 98.7954C62.6404 98.6084 62.9782 98.4553 62.9916 98.4553C63.0162 98.4553 62.9731 98.6054 62.4337 100.401C60.9815 105.233 59.7843 109.333 59.5177 110.386C59.3935 110.877 59.3802 111.021 59.3827 111.839C59.3852 112.597 59.4605 113.521 59.5252 113.586C59.5403 113.601 60.0202 113.401 61.6554 112.695C61.9686 112.56 62.4346 112.361 62.6908 112.253C62.9471 112.145 63.7858 111.784 64.5546 111.449C65.3234 111.115 66.1854 110.741 66.4701 110.619C66.9545 110.41 67.3043 110.256 69.0886 109.464C70.2563 108.945 70.4063 108.858 70.5904 108.59C70.7877 108.303 71.1658 107.471 71.5546 106.47C72.0118 105.292 72.0351 105.213 72.1951 104.291C72.2793 103.806 72.3589 103.374 72.3719 103.331C72.3849 103.289 72.4994 102.658 72.6262 101.931C72.8561 100.613 73.0029 99.793 73.4855 97.1326C73.6253 96.3622 73.765 95.5803 73.7961 95.3948C73.8271 95.2094 73.9551 94.4974 74.0804 93.8127C74.2058 93.128 74.3914 92.1009 74.4928 91.5303C74.5941 90.9597 74.7224 90.2487 74.7779 89.9503C74.8334 89.652 74.8738 89.4029 74.8679 89.3969C74.8619 89.3909 74.4726 89.56 74.0028 89.7726ZM117.971 93.8511C117.863 94.2003 117.564 95.1399 117.305 95.939L116.835 97.3919L117.279 97.6132C117.524 97.7349 118.236 98.0751 118.862 98.3692C119.935 98.8732 120.004 98.9142 120.062 99.0816C120.097 99.1794 120.24 99.6329 120.382 100.089C121.057 102.264 121.398 103.357 121.581 103.928C121.691 104.27 121.935 105.052 122.124 105.666C122.314 106.279 122.558 107.061 122.668 107.403C122.777 107.746 123.023 108.528 123.213 109.141C123.403 109.755 123.683 110.653 123.835 111.138C123.986 111.623 124.278 112.557 124.482 113.213C125.166 115.414 125.419 116.218 125.599 116.773L125.779 117.325L126.1 117.469C126.277 117.548 126.748 117.774 127.146 117.972C127.545 118.17 128.931 118.841 130.227 119.463C132.706 120.654 133.594 121.082 135.119 121.823C135.632 122.072 137.181 122.82 138.562 123.485C139.943 124.15 141.675 124.987 142.41 125.347C143.146 125.706 143.78 126 143.821 126C143.861 126 143.894 125.959 143.894 125.908C143.894 125.858 143.999 124.875 144.127 123.723C144.311 122.076 144.36 121.447 144.36 120.768L144.36 119.905L141.344 118.468C139.686 117.677 136.826 116.318 134.99 115.447C133.153 114.576 131.546 113.806 131.417 113.737L131.184 113.61L130.804 112.565C130.595 111.991 130.434 111.51 130.447 111.497C130.47 111.474 130.911 111.667 132.298 112.305C132.682 112.482 133.253 112.744 133.566 112.887C134.64 113.377 135.224 113.644 135.896 113.953C138.67 115.227 140.132 115.886 140.148 115.868C140.193 115.824 140.917 110.546 140.882 110.519C140.873 110.512 140.633 110.4 140.348 110.27C140.063 110.141 139.545 109.904 139.196 109.744C138.847 109.583 138.552 109.452 138.541 109.452C138.53 109.452 138.326 109.362 138.088 109.251C137.85 109.141 137.306 108.893 136.879 108.7C135.742 108.187 133.624 107.23 132.349 106.652C131.737 106.375 130.5 105.815 129.6 105.408L127.964 104.668L127.739 104.039C127.616 103.692 127.404 103.107 127.268 102.737C127.132 102.367 127.029 102.057 127.039 102.047C127.049 102.037 127.286 102.132 127.567 102.258C127.848 102.384 128.439 102.644 128.881 102.837C129.322 103.03 129.963 103.312 130.304 103.463C130.646 103.613 131.228 103.869 131.599 104.031C131.969 104.193 132.528 104.438 132.841 104.575C133.154 104.713 133.713 104.958 134.084 105.121C134.454 105.283 135.036 105.539 135.378 105.69C138.17 106.922 138.035 106.868 138.065 106.765C138.079 106.717 138.198 105.954 138.329 105.069C138.46 104.185 138.614 103.197 138.671 102.874C138.729 102.552 138.768 102.241 138.759 102.184C138.748 102.109 138.626 102.028 138.329 101.898C137.83 101.678 133.938 99.9932 131.909 99.118C131.182 98.8044 130.516 98.5161 129.502 98.0771C127.472 97.1979 125.993 96.5579 124.894 96.0832C124.197 95.7818 123.265 95.3786 122.823 95.1873C119.13 93.5862 118.264 93.2161 118.211 93.2161C118.186 93.2161 118.078 93.5019 117.971 93.8511Z" clip-rule="evenodd" fill-rule="evenodd"></path>
</svg>
