<svg preserveAspectRatio="none" width="100%" height="100%" overflow="visible" style="display: block;" viewBox="0 0 108.719 72" fill="none" xmlns="http://www.w3.org/2000/svg">
<path id="Vector" fill-rule="evenodd" clip-rule="evenodd" d="M54.0833 6.26369C54.1008 9.70869 54.1186 12.5322 54.1228 12.5379C54.127 12.5437 54.4907 12.3017 54.931 12C55.3714 11.6983 56.1786 11.148 56.7249 10.7771L57.7183 10.1026L57.6211 9.86255C57.4096 9.33972 56.4413 7.1002 56.4158 7.07457C56.3924 7.05118 55.2492 7.40168 55.194 7.44915C55.1832 7.45854 55.2714 7.85521 55.3902 8.33058C55.5089 8.80599 55.5941 9.20692 55.5794 9.2216C55.5413 9.25978 54.7898 8.97806 54.7267 8.90196C54.6905 8.85813 54.723 8.46804 54.8313 7.64829C54.9581 6.689 55.0069 6.44229 55.0833 6.37615C55.1353 6.33102 55.3782 6.24019 55.623 6.17426C55.8678 6.10833 56.0681 6.04629 56.0681 6.03633C56.0681 5.99711 55.7372 5.26233 55.7002 5.21922C55.6778 5.19329 55.5688 5.2102 55.4492 5.25813C55.3328 5.30476 55.2189 5.34294 55.1961 5.34294C55.1732 5.34294 55.2201 4.89361 55.3004 4.34438C55.4522 3.30448 55.7928 1.11569 55.841 0.869914C55.8726 0.709055 55.9494 0.754444 54.8532 0.286548C54.4839 0.128957 54.1525 0 54.1166 0C54.0644 0 54.0578 1.24656 54.0833 6.26369ZM52.0997 3.07193C52.1329 3.34982 52.4083 6.24346 52.5997 8.32565C52.6573 8.95331 52.7181 9.55541 52.7346 9.66367L52.7646 9.86042L53.0971 9.84522L53.4296 9.82997L53.4295 6.32853L53.4294 2.82709L52.7481 2.81256L52.0669 2.79804L52.0997 3.07193ZM43.5507 3.25888C43.5142 3.28264 43.3919 3.65037 43.2789 4.07609C43.1659 4.50182 42.9337 5.37536 42.7629 6.01729C42.5921 6.65922 42.3378 7.61628 42.1979 8.14409C42.058 8.6719 41.8963 9.27296 41.8387 9.47983L41.734 9.85591H44.7136H47.6932L47.6667 9.73919C47.6521 9.67497 47.473 9.16729 47.2687 8.61095C47.0643 8.05461 46.8372 7.42435 46.764 7.21037C46.6909 6.9964 46.625 6.81396 46.6177 6.80499C46.5942 6.77609 45.9944 7.09558 45.9375 7.16722C45.9073 7.20524 45.7937 7.53977 45.6851 7.91066C45.5765 8.28156 45.4694 8.60644 45.4471 8.63263C45.4047 8.68238 44.0669 8.47364 43.9452 8.39827C43.8697 8.35148 43.8557 8.40942 44.3571 6.69164C44.5278 6.10677 44.7523 5.3376 44.856 4.98232C44.9596 4.62709 45.0508 4.32996 45.0587 4.32207C45.0666 4.31419 45.3628 4.69115 45.717 5.15983C46.0712 5.62845 46.3818 6.00614 46.4073 5.99908C46.4329 5.99208 46.6032 5.64899 46.7859 5.23665C46.9686 4.82436 47.2231 4.2536 47.3515 3.9683C47.4799 3.683 47.5964 3.42306 47.6104 3.39069C47.6288 3.34805 47.2533 3.32305 46.2477 3.29997C45.4843 3.28248 44.58 3.25634 44.2383 3.24187C43.8966 3.22745 43.5872 3.23512 43.5507 3.25888ZM48.1608 3.98127C48.0167 4.31652 47.7404 4.97246 47.5468 5.43896L47.1949 6.28719L47.3568 6.73579C47.4459 6.98255 47.6625 7.5696 47.8381 8.04035C48.0137 8.5111 48.2267 9.08279 48.3115 9.31077C48.3963 9.53876 48.4901 9.75465 48.5198 9.7906C48.5968 9.8835 49.3484 9.87448 49.7254 9.77608C49.8936 9.73219 50.1984 9.6038 50.4027 9.49077C50.6071 9.37779 50.7889 9.2853 50.8067 9.2853C50.8246 9.2853 50.8392 9.40202 50.8392 9.54467V9.80403H51.4054H51.9716L51.9489 9.63545C51.9364 9.54275 51.855 8.51042 51.768 7.34141C51.681 6.17239 51.5999 5.20605 51.5878 5.19391C51.5757 5.18177 51.315 5.19282 51.0084 5.2185C50.5508 5.25678 50.4519 5.27981 50.4566 5.34693C50.4597 5.39196 50.5156 6.00515 50.5806 6.7097C50.6457 7.41418 50.6863 8.00331 50.6708 8.01882C50.5988 8.09103 49.4116 8.5958 49.383 8.56644C49.3651 8.54813 49.4045 7.83446 49.4707 6.98052C49.6319 4.89678 49.6347 4.80942 49.5433 4.6787C49.4006 4.47427 48.4837 3.37731 48.4532 3.37451C48.4366 3.373 48.305 3.64601 48.1608 3.98127ZM64.5573 4.02277C64.5566 4.0499 64.4888 4.52723 64.4068 5.08357C63.9208 8.37628 63.7256 9.76477 63.7456 9.78479C63.7689 9.80824 66.1688 9.71227 66.1941 9.68691C66.2141 9.66693 66.3075 8.17589 66.2908 8.14409C66.2833 8.12983 66.0944 8.12983 65.8709 8.14409L65.4646 8.17003L65.4822 8.66988C65.494 9.00685 65.4803 9.18171 65.4404 9.20646C65.3783 9.24495 64.6622 9.08865 64.6622 9.03662C64.6622 9.00991 64.7709 8.59119 64.925 8.02421C64.9854 7.80246 64.9584 7.81771 66.1357 7.33912C66.5049 7.18905 66.8157 7.03961 66.8266 7.00698C66.8374 6.97435 66.7665 6.84923 66.6689 6.72889C66.494 6.5132 66.1572 6.07165 65.1563 4.7464C64.5669 3.96591 64.5591 3.95642 64.5573 4.02277ZM56.327 5.10443C56.327 5.12627 57.0814 6.89965 57.8712 8.73451C58.1277 9.33028 58.3751 9.85549 58.421 9.90166C58.4961 9.97729 60.417 10.4947 60.461 10.4512C60.4711 10.4413 60.4582 10.245 60.4324 10.0149C60.4067 9.78479 60.4041 9.59654 60.4266 9.59654C60.4492 9.59654 60.5733 9.80741 60.7025 10.0652C60.85 10.3593 60.9802 10.5519 61.0525 10.5826C61.2304 10.6581 62.082 10.8503 62.1108 10.8215C62.1248 10.8074 62.0648 10.6369 61.9774 10.4426C61.89 10.2483 61.4316 9.18036 60.9587 8.06945C60.4858 6.95853 60.065 5.98394 60.0235 5.90374L59.9483 5.75793H59.2766C58.9071 5.75793 58.6049 5.77904 58.6049 5.80487C58.6049 5.8307 58.9311 6.52155 59.3297 7.34006C59.7283 8.15856 60.0545 8.8448 60.0545 8.86503C60.0545 8.92489 59.0662 9.14587 59.0183 9.09669C58.9943 9.07205 58.8677 8.65504 58.7372 8.17003C58.2861 6.49484 58.0924 5.79776 58.0726 5.77795C58.0486 5.75383 56.3878 5.08357 56.3522 5.08357C56.3383 5.08357 56.327 5.09296 56.327 5.10443ZM61.4006 5.53695C61.3578 5.55349 61.1795 5.63141 61.0042 5.70999L60.6855 5.85296L60.9978 6.59651C61.1694 7.00548 61.449 7.66686 61.6188 8.06628C61.7887 8.46571 62.0088 8.99092 62.1079 9.23343C62.2069 9.47594 62.3257 9.70356 62.3719 9.73919C62.4544 9.80295 63.0639 9.83194 63.1209 9.77483C63.137 9.75875 63.1164 9.60116 63.0752 9.42469C63.0143 9.1635 62.4878 6.68931 62.4878 6.66425C62.4878 6.64433 63.0438 6.27666 63.074 6.27666C63.0932 6.27666 63.109 6.49842 63.109 6.76945V7.26225H63.3436C63.4844 7.26225 63.5875 7.23631 63.6014 7.19741C63.63 7.11726 63.8326 5.58379 63.8166 5.56781C63.8103 5.56143 63.3748 5.62435 62.8488 5.70761C61.6222 5.90177 61.6787 5.90307 61.6369 5.68012C61.6038 5.50281 61.5586 5.47553 61.4006 5.53695ZM20.9237 5.74496C20.8942 5.82344 20.7152 6.24942 20.5258 6.69164C20.3364 7.13386 20.0584 7.78746 19.908 8.14409C19.7575 8.50072 19.5969 8.87421 19.5509 8.97406C19.5049 9.07392 19.0119 10.2294 18.4552 11.5418C17.8985 12.8542 17.3762 14.0797 17.2945 14.2651C17.2128 14.4506 16.6053 15.8745 15.9445 17.4294C15.2837 18.9843 14.6175 20.5431 14.4641 20.8935C14.3106 21.2438 14.185 21.5414 14.185 21.5548C14.185 21.5681 14.0944 21.7834 13.9836 22.0331C13.8729 22.2828 13.3461 23.5141 12.8129 24.7695C12.2798 26.0248 11.753 27.2561 11.6424 27.5058C11.5317 27.7555 11.4411 27.9717 11.4411 27.9864C11.4411 28.001 11.3158 28.2986 11.1626 28.6477C11.0094 28.9968 10.5874 29.9827 10.2247 30.8386C9.86204 31.6945 9.4399 32.6804 9.28661 33.0295C9.13331 33.3786 9.00787 33.6772 9.00787 33.6929C9.00787 33.7087 8.92731 33.9016 8.82884 34.1216C8.48591 34.888 6.72894 39.0249 6.74235 39.0346C6.74975 39.0399 7.60616 38.5451 8.64547 37.935C9.68478 37.3249 10.7099 36.7259 10.9234 36.6039C11.137 36.4818 11.8009 36.0937 12.3989 35.7414C12.9969 35.3891 13.6142 35.027 13.7708 34.9368C14.102 34.746 15.9348 33.6775 17.0583 33.0202C17.4854 32.7703 18.1378 32.3896 18.5079 32.1742C18.8781 31.9589 19.3091 31.7064 19.4657 31.6132C19.6223 31.5201 20.0999 31.2401 20.527 30.9911C21.2575 30.5652 23.6762 29.1519 25.4712 28.1022C25.9125 27.8441 26.668 27.4024 27.15 27.1208C27.6321 26.8391 28.0432 26.6267 28.0636 26.6487C28.1168 26.7059 28.5417 27.483 29.2746 28.8635C29.6241 29.5219 30.2825 30.7608 30.7377 31.6167C31.1928 32.4726 31.8624 33.7331 32.2255 34.4179C33.1327 36.1283 33.0566 36.0161 33.2827 35.9745C33.3856 35.9555 33.4907 35.9199 33.5162 35.8952C33.5431 35.8689 33.4389 35.3037 33.2658 34.5375C32.6674 31.8883 32.45 30.9184 31.8906 28.4006C31.7512 27.7729 31.4838 26.5824 31.2964 25.755C31.109 24.9277 30.8859 23.9239 30.8004 23.5245C30.715 23.1251 30.5764 22.5065 30.4924 22.1499C30.4085 21.7932 30.2336 21.0229 30.1039 20.438C29.7073 18.6493 29.3739 17.1535 29.0691 15.7954C28.4215 12.9096 28.1514 11.7005 27.9336 10.7118C27.8079 10.1412 27.6521 9.44715 27.5874 9.16947L27.4697 8.66459L27.1047 8.49019C26.9039 8.39428 25.4683 7.7053 23.9145 6.95905C22.3607 6.21285 21.0641 5.60231 21.0333 5.60231C21.0024 5.60231 20.9531 5.66647 20.9237 5.74496ZM91.8163 5.80938C91.6689 5.84813 91.3419 5.99369 89.7195 6.74279C89.3351 6.92025 88.776 7.17738 88.477 7.31412C88.178 7.45086 87.6189 7.70763 87.2345 7.88473C86.8501 8.06182 86.291 8.3188 85.992 8.45585C85.693 8.5929 85.1106 8.86056 84.6977 9.05063C84.2848 9.24074 83.6842 9.51458 83.363 9.65926C82.9853 9.82935 82.7454 9.97013 82.6843 10.0577C82.3817 10.4909 81.1302 15.3408 80.4006 18.9078C79.7888 21.8992 79.3057 25.307 79.3821 26.0922C79.3974 26.2491 79.5518 26.8444 79.7253 27.415C80.3695 29.5336 81.0258 31.2903 81.3794 31.8424C81.5553 32.117 81.4499 32.0611 84.2576 33.3705C84.7132 33.583 85.2724 33.8439 85.5002 33.9504C86.3198 34.3337 87.4802 34.8748 88.1405 35.1819C89.3487 35.7435 91.1194 36.571 92.334 37.1415C92.9889 37.4491 93.8625 37.8575 94.2754 38.0491C94.6883 38.2407 95.1775 38.4677 95.3626 38.5536C96.1214 38.9058 97.2852 39.45 97.7896 39.6884C98.3803 39.9676 98.4969 39.9837 99.0643 39.8643C99.6836 39.734 100.105 39.4875 100.601 38.965C102.772 36.6795 105.004 33.8443 105.655 32.5445L105.866 32.1235L105.503 31.2476C105.303 30.7659 105.108 30.2854 105.069 30.18C104.967 29.9012 103.963 27.5197 103.466 26.3775C102.403 23.9326 101.608 22.1337 100.979 20.7493C100.817 20.3927 100.627 19.9725 100.556 19.8156C100.385 19.4362 99.5016 17.5416 98.9231 16.3141C98.3239 15.0426 96.5952 11.6049 96.1841 10.8674C95.386 9.43568 94.8323 8.53174 94.3555 7.88208C94.0414 7.45413 92.9567 6.36785 92.4995 6.02331C92.1411 5.75326 92.0902 5.73733 91.8163 5.80938ZM41.6066 10.4611C41.5515 10.5163 41.5668 11.1952 41.6239 11.2305C41.6562 11.2506 41.6756 11.1446 41.6756 10.9483C41.6756 10.7733 41.6986 10.634 41.7274 10.634C41.7559 10.634 41.78 10.6515 41.7809 10.6729C41.7819 10.6943 41.8306 10.7696 41.8892 10.8402L41.9958 10.9686L42.1449 10.7883L42.2941 10.6081L42.2955 10.9323C42.2963 11.1129 42.3198 11.2565 42.3487 11.2565C42.3789 11.2565 42.4004 11.0836 42.4004 10.8415C42.4004 10.6034 42.3787 10.4265 42.3494 10.4265C42.3213 10.4265 42.2352 10.5222 42.158 10.639L42.0176 10.8515L41.8739 10.6779C41.7949 10.5824 41.7296 10.4868 41.7288 10.4654C41.7271 10.4172 41.653 10.4146 41.6066 10.4611ZM43.1005 10.8238C42.9204 11.2144 42.8957 11.3858 43.0517 11.1626C43.1102 11.0788 43.184 11.049 43.3323 11.049C43.4807 11.049 43.5544 11.0788 43.6129 11.1626C43.6566 11.225 43.7057 11.2628 43.722 11.2465C43.7584 11.21 43.3767 10.4265 43.3225 10.4265C43.3012 10.4265 43.2012 10.6053 43.1005 10.8238ZM44.2653 10.8316C44.2646 11.1245 44.282 11.2516 44.3196 11.2284C44.35 11.2095 44.3712 11.0856 44.3667 10.9529C44.3622 10.8203 44.3606 10.6931 44.3631 10.6702C44.3657 10.6473 44.4851 10.7699 44.6285 10.9425C44.7719 11.1152 44.9001 11.2565 44.9132 11.2565C44.9264 11.2565 44.9372 11.0697 44.9372 10.8415C44.9372 10.5994 44.9157 10.4265 44.8855 10.4265C44.857 10.4265 44.8337 10.5549 44.8337 10.7118C44.8337 10.8687 44.8104 10.9971 44.7819 10.9971C44.7535 10.9971 44.7293 10.9796 44.7282 10.9582C44.727 10.9368 44.6227 10.8026 44.4963 10.6599L44.2663 10.4006L44.2653 10.8316ZM45.781 10.4914C45.7027 10.5949 45.4495 11.2164 45.4751 11.2421C45.4879 11.2549 45.5243 11.2167 45.5561 11.1572C45.6423 10.9959 46.0473 11.0018 46.1348 11.1656C46.2739 11.426 46.2249 11.1388 46.0717 10.7954C45.9029 10.4172 45.8661 10.3788 45.781 10.4914ZM46.8069 10.5605C46.515 10.9323 46.9095 11.424 47.3221 11.2028C47.3916 11.1656 47.4223 11.094 47.4223 10.9694C47.4223 10.8043 47.4096 10.7896 47.267 10.7896C47.1815 10.7896 47.1116 10.813 47.1116 10.8415C47.1116 10.87 47.1715 10.8934 47.2447 10.8934C47.3527 10.8934 47.3746 10.9151 47.3612 11.009C47.3368 11.1789 47.1057 11.2467 46.9344 11.1342C46.7425 11.0082 46.7431 10.6744 46.9357 10.548C47.0458 10.4757 47.0982 10.4701 47.2236 10.5176C47.3404 10.5617 47.3721 10.5609 47.3567 10.514C47.3456 10.4801 47.242 10.4454 47.1264 10.4368C46.9501 10.4237 46.8987 10.4435 46.8069 10.5605ZM47.9918 10.8415V11.2565H48.2765C48.625 11.2565 48.6563 11.1645 48.3153 11.1426C48.0917 11.1283 48.0694 11.115 48.0694 10.9971C48.0694 10.8823 48.0962 10.8641 48.3024 10.8381L48.5354 10.8089L48.3024 10.7863C48.1085 10.7675 48.0666 10.7441 48.0528 10.647C48.0378 10.5407 48.0573 10.5303 48.2698 10.5303C48.3983 10.5303 48.5178 10.5069 48.5354 10.4784C48.5552 10.4462 48.4582 10.4265 48.2796 10.4265H47.9918V10.8415ZM49.1407 10.8545C49.1499 11.2492 49.1521 11.2573 49.169 10.9582C49.1792 10.7799 49.208 10.634 49.2332 10.634C49.2584 10.634 49.3288 10.704 49.3896 10.7896C49.4504 10.8752 49.5169 10.9452 49.5372 10.9452C49.5576 10.9452 49.6156 10.8752 49.6661 10.7896C49.7166 10.704 49.7787 10.634 49.8042 10.634C49.8297 10.634 49.8588 10.7799 49.869 10.9582C49.8859 11.2573 49.8881 11.2492 49.8973 10.8545C49.9028 10.6191 49.8871 10.4265 49.8624 10.4265C49.8377 10.4265 49.7559 10.5199 49.6805 10.634C49.6051 10.7481 49.5352 10.8415 49.5252 10.8415C49.5151 10.8415 49.4452 10.7481 49.3699 10.634C49.2945 10.5199 49.2098 10.4265 49.1818 10.4265C49.1515 10.4265 49.1348 10.6011 49.1407 10.8545ZM50.5286 10.8415V11.2565H50.8164C50.995 11.2565 51.092 11.2368 51.0722 11.2046C51.0546 11.1761 50.9484 11.1527 50.8361 11.1527C50.6448 11.1527 50.6321 11.1432 50.6321 11C50.6321 10.855 50.6447 10.8462 50.878 10.8278L51.1239 10.8083L50.878 10.799C50.6527 10.7904 50.6321 10.7787 50.6321 10.6599C50.6321 10.5432 50.6528 10.5303 50.8392 10.5303C50.9531 10.5303 51.0463 10.5069 51.0463 10.4784C51.0463 10.4499 50.9298 10.4265 50.7874 10.4265H50.5286V10.8415ZM51.6773 10.8514C51.6854 11.2074 51.6904 11.2305 51.7058 10.9842C51.716 10.8201 51.7452 10.6859 51.7706 10.6859C51.796 10.6859 51.9158 10.8129 52.0368 10.9681C52.1577 11.1234 52.2756 11.2387 52.2987 11.2244C52.3592 11.1869 52.3503 10.4905 52.2888 10.4524C52.2566 10.4325 52.237 10.5297 52.237 10.7088C52.237 10.8673 52.2185 10.9971 52.1959 10.9971C52.1733 10.9971 52.0656 10.8801 51.9568 10.737C51.8479 10.594 51.7383 10.4642 51.7132 10.4487C51.6879 10.433 51.6719 10.6132 51.6773 10.8514ZM52.8583 10.4784C52.8583 10.5069 52.9155 10.5303 52.9854 10.5303C53.1071 10.5303 53.1133 10.5464 53.1304 10.9063L53.1483 11.2824L53.1586 10.9063C53.1686 10.5425 53.1731 10.5303 53.2983 10.5303C53.3695 10.5303 53.4278 10.5069 53.4278 10.4784C53.4278 10.4499 53.2996 10.4265 53.143 10.4265C52.9864 10.4265 52.8583 10.4499 52.8583 10.4784ZM43.4308 10.7455C43.5117 10.978 43.5048 10.9971 43.341 10.9971C43.138 10.9971 43.1193 10.9613 43.2158 10.7584C43.3197 10.54 43.3585 10.5377 43.4308 10.7455ZM45.9676 10.7455C46.0501 10.9826 46.0429 10.9971 45.8432 10.9971C45.6414 10.9971 45.6261 10.9579 45.741 10.7352C45.842 10.5395 45.8968 10.542 45.9676 10.7455ZM47.8882 11.879C47.7529 12.0146 47.7478 12.3482 47.8794 12.4675C47.9899 12.5678 48.3557 12.5829 48.4473 12.4911C48.4815 12.4568 48.5095 12.3635 48.5095 12.2836C48.5095 12.1536 48.4918 12.1387 48.3412 12.1416C48.1849 12.1447 48.1815 12.1483 48.2931 12.1932C48.3782 12.2273 48.4084 12.2755 48.3966 12.3585C48.3719 12.5331 48.0348 12.5547 47.919 12.389C47.8057 12.2269 47.8155 12.0555 47.9457 11.9251C48.0353 11.8353 48.0934 11.8215 48.2692 11.848C48.4204 11.8709 48.4607 11.8652 48.4059 11.8286C48.2743 11.7408 47.9995 11.7675 47.8882 11.879ZM49.079 12.0022C49.079 12.127 49.0644 12.302 49.0466 12.3912C49.0257 12.4959 49.0348 12.5533 49.0725 12.5533C49.1045 12.5533 49.1307 12.495 49.1307 12.4236C49.1307 12.3209 49.1569 12.2939 49.2564 12.2939C49.3288 12.2939 49.4253 12.3489 49.4839 12.4236C49.5399 12.495 49.6173 12.553 49.6559 12.5525C49.6983 12.552 49.7056 12.5367 49.6743 12.5136C49.6459 12.4927 49.5919 12.4362 49.5544 12.3882C49.4964 12.314 49.5023 12.2848 49.5932 12.1937C49.8073 11.9792 49.6684 11.7752 49.3083 11.7752H49.079V12.0022ZM50.3215 11.879C50.1861 12.0146 50.1811 12.3482 50.3126 12.4675C50.4409 12.5838 50.799 12.5808 50.9027 12.4625C50.9465 12.4126 50.9979 12.3204 51.0169 12.2576C51.0575 12.1242 50.9343 11.8548 50.811 11.8074C50.6466 11.7442 50.4234 11.7769 50.3215 11.879ZM51.564 12.0828C51.564 12.4437 51.6426 12.5533 51.9013 12.5533C52.1363 12.5533 52.237 12.4021 52.237 12.049C52.237 11.8984 52.2137 11.7752 52.1852 11.7752C52.1567 11.7752 52.1335 11.9101 52.1335 12.0761C52.1335 12.3962 52.0758 12.5014 51.9005 12.5014C51.7251 12.5014 51.6675 12.3962 51.6675 12.0761C51.6675 11.9101 51.6443 11.7752 51.6158 11.7752C51.5871 11.7752 51.564 11.9123 51.564 12.0828ZM52.8065 12.1643C52.8065 12.389 52.8283 12.5533 52.8583 12.5533C52.8867 12.5533 52.91 12.495 52.91 12.4236C52.91 12.307 52.9309 12.2939 53.1159 12.2939C53.2784 12.2939 53.3397 12.2666 53.4066 12.1643C53.4852 12.0441 53.4852 12.025 53.4066 11.9049C53.335 11.7953 53.2819 11.7752 53.0642 11.7752H52.8065V12.1643ZM49.5608 11.9367C49.6554 12.0881 49.5661 12.1902 49.3394 12.1902C49.1348 12.1902 49.1307 12.1866 49.1307 12.0055C49.1307 11.8247 49.1347 11.8212 49.3196 11.8369C49.4235 11.8458 49.5321 11.8907 49.5608 11.9367ZM50.8392 11.9308C50.9633 12.0552 50.9721 12.2289 50.8621 12.3861C50.6971 12.6223 50.2697 12.4622 50.2697 12.1643C50.2697 11.9978 50.4401 11.8271 50.6062 11.8271C50.6774 11.8271 50.7822 11.8738 50.8392 11.9308ZM53.2924 11.9064C53.4363 12.0506 53.3007 12.2399 53.0524 12.2413C52.9207 12.242 52.91 12.2266 52.91 12.0346C52.91 11.8397 52.9193 11.8271 53.0617 11.8271C53.145 11.8271 53.2489 11.8628 53.2924 11.9064ZM35.6464 13.2242C35.63 13.2508 35.4015 13.4359 35.1386 13.6355C34.8757 13.8351 34.5158 14.111 34.3389 14.2485C34.1619 14.386 33.4232 14.9537 32.6972 15.5101C31.9712 16.0664 31.3764 16.5333 31.3754 16.5476C31.3734 16.5764 32.3469 16.8575 35.4518 17.7245L35.7253 17.8009L35.6848 22.7117C35.6625 25.4126 35.6443 28.4161 35.6443 29.3862V31.1499L35.9654 31.1957C36.2535 31.2367 36.3255 31.2268 36.6643 31.0991C36.8721 31.0207 37.2984 30.8675 37.6116 30.7585C37.9248 30.6494 38.5771 30.4171 39.0612 30.2421C39.5452 30.0671 40.1976 29.834 40.5108 29.7241C40.824 29.6143 41.5462 29.3571 42.1157 29.1528C42.6852 28.9485 43.2852 28.7343 43.4491 28.6769L43.747 28.5724L43.7124 27.0659L43.6777 25.5594L43.9839 25.596C44.1523 25.6161 44.8958 25.7142 45.6362 25.8141C46.3765 25.9139 47.5064 26.0633 48.1471 26.1461C48.7877 26.2289 49.3818 26.3087 49.4672 26.3236C49.645 26.3544 49.5749 26.4552 50.6562 24.6138C50.9913 24.0432 51.3215 23.4885 51.39 23.3812L51.5145 23.1861L51.3969 23.1367C51.3321 23.1096 50.7434 22.9704 50.0885 22.8275C49.4336 22.6845 48.327 22.4381 47.6294 22.2799C46.9317 22.1217 45.7902 21.8644 45.0926 21.7083C44.3949 21.5521 43.7543 21.4046 43.6688 21.3806L43.5135 21.337L43.5316 20.5893C43.5415 20.178 43.5588 19.8319 43.5701 19.8202C43.6013 19.7878 43.9212 19.8638 47.6019 20.7777C49.4803 21.2441 51.0202 21.6211 51.0241 21.6155C51.4667 20.9557 52.6512 19.0885 52.6512 19.0506C52.6512 19.021 52.4008 18.9139 52.0946 18.8124C51.3772 18.5745 49.9873 18.0972 48.7424 17.6613C48.2014 17.4718 47.4909 17.2272 47.1634 17.1176C46.836 17.008 46.0904 16.7516 45.5067 16.5477C44.923 16.3438 44.0843 16.0532 43.643 15.9018C43.2016 15.7504 41.2416 15.0751 39.2874 14.4012C37.3332 13.7272 35.7213 13.1758 35.7053 13.1758C35.6893 13.1758 35.6629 13.1976 35.6464 13.2242ZM73.7739 14.1065C73.7027 14.1317 73.0038 14.3314 72.2208 14.5504C71.4377 14.7695 70.5292 15.0267 70.2017 15.122C69.5376 15.3154 68.1907 15.6976 65.3611 16.4954C64.877 16.6319 63.9684 16.8889 63.342 17.0665C62.7155 17.2441 61.7487 17.5182 61.1935 17.6756C58.9578 18.3095 58.215 18.5189 57.0259 18.8506C56.3425 19.0411 55.7552 19.2254 55.7209 19.2599C55.6865 19.2945 55.2502 20.1463 54.7511 21.1528L53.8439 22.9829L54.198 23.2417L54.5521 23.5006L54.5855 24.0054C54.6182 24.4978 55.0176 32.0199 55.0401 32.5661C55.0463 32.7175 55.0663 32.8504 55.0844 32.8617C55.1395 32.8958 55.8166 32.7022 56.1199 32.5657C56.5071 32.3914 58.0178 31.544 59.1356 30.8741L60.0545 30.3233L60.0542 30.0882C60.0538 29.8296 59.8203 23.9479 59.7655 22.8169L59.7312 22.1094L60.2164 22.0003C60.71 21.8893 62.4441 21.5283 64.2221 21.1662C64.7631 21.0561 65.6068 20.8797 66.0969 20.7744L66.988 20.5828L67.1712 20.6962C67.3635 20.8153 67.4037 20.9235 67.2814 20.9931C67.2145 21.0312 65.7703 22.4285 63.1356 25.0043C62.5657 25.5614 61.9066 26.2033 61.671 26.4308L61.2424 26.8444L61.8522 27.1154C62.6613 27.4751 64.6098 28.3291 65.2575 28.6081C65.5423 28.7307 66.1014 28.9755 66.5 29.1521C66.8987 29.3287 67.4578 29.5738 67.7426 29.6968C68.0273 29.8198 68.5864 30.0651 68.9851 30.2421C69.3837 30.419 69.9428 30.6642 70.2276 30.787C70.5123 30.9097 71.4442 31.3181 72.2984 31.6945C73.1527 32.071 74.0846 32.4796 74.3693 32.6027C74.654 32.7258 75.1782 32.9547 75.5342 33.1114C77.7852 34.1024 78.7522 34.5267 79.3394 34.7811C79.6241 34.9045 80.2881 35.1962 80.8148 35.4293C82.2191 36.0509 82.1443 36.0282 82.4079 35.9141L82.6291 35.8184L80.8548 34.4925C79.8789 33.7633 78.3466 32.6178 77.4497 31.947C76.5528 31.2763 75.0268 30.1364 74.0587 29.414C73.0905 28.6915 71.7687 27.704 71.1212 27.2195L69.9439 26.3386L70.5514 25.7615C70.8855 25.4441 71.7181 24.6475 72.4017 23.9913C73.0852 23.3351 74.5991 21.8878 75.7658 20.7752C79.2455 17.4567 79.3385 17.367 79.3597 17.31C79.382 17.25 79.3928 17.2597 78.505 16.5452C76.6554 15.0567 75.1206 14.1904 74.1498 14.087C74.0142 14.0725 73.8451 14.0813 73.7739 14.1065ZM88.0985 16.1585C88.684 17.2962 89.0607 18.2843 90.343 22.0461C92.107 27.2209 92.4649 28.2867 92.4452 28.3064C92.4261 28.3256 91.4153 28.1214 88.0111 27.4107C87.2565 27.2532 86.0231 26.9974 85.2702 26.8422C84.5174 26.687 83.8843 26.5423 83.8635 26.5206C83.8426 26.499 83.8911 26.1311 83.9713 25.7032C84.3771 23.5375 84.7263 21.6621 84.9808 20.2824C85.1361 19.4408 85.3471 18.437 85.4497 18.0519C85.9103 16.3225 86.0592 15.9038 86.2381 15.8351C86.4473 15.7546 87.5317 15.5171 87.6487 15.5261C87.7587 15.5345 87.8261 15.6292 88.0985 16.1585ZM25.2814 21.0247C25.8983 22.2033 26.4031 23.1832 26.4031 23.2022C26.4031 23.2213 26.1526 23.3559 25.8465 23.5013C23.338 24.6933 21.9908 25.3197 21.9735 25.3024C21.9623 25.2911 22.3397 24.1395 22.8124 22.7432C23.285 21.347 23.7663 19.907 23.8819 19.5432C23.9975 19.1795 24.1073 18.8818 24.1259 18.8818C24.1445 18.8818 24.6645 19.8461 25.2814 21.0247ZM62.9977 33.1721C62.9687 33.2011 60.7201 34.1556 60.1451 34.383C59.8161 34.5131 59.7956 34.5308 59.7956 34.6857C59.7956 34.8768 60.1093 38.1725 60.2613 39.5793C60.3184 40.1071 60.4576 41.5076 60.5709 42.6916C60.684 43.8756 60.8108 45.1362 60.8527 45.4928C60.8944 45.8494 60.9119 46.1582 60.8914 46.1789C60.8553 46.2154 60.4021 46.4091 59.2779 46.8683C58.6543 47.1231 57.3245 47.6747 57.0419 47.7959L56.8508 47.8778L56.8216 47.6579C56.7905 47.4233 56.6663 44.7599 56.4571 39.8386C56.3347 36.9614 56.2853 36.0519 56.2514 36.0519C56.2432 36.0519 56.0297 36.1429 55.7769 36.2542C55.5242 36.3654 54.8631 36.6483 54.3079 36.8826C53.7526 37.117 53.205 37.3489 53.0909 37.398L52.8835 37.4873L52.1331 39.7338C51.7204 40.9695 51.3744 42.0023 51.3641 42.0291C51.3538 42.0559 51.4142 42.0421 51.4983 41.9986C51.7927 41.8461 52.8744 41.3937 52.8952 41.4145C52.9067 41.426 52.8918 42.0157 52.862 42.7249C52.6571 47.6075 52.6731 51.0209 52.906 52.1066C53.0822 52.9283 53.5935 54.1712 53.9389 54.6173L54.0353 54.7418L54.8834 54.3636C55.3499 54.1556 56.0111 53.8624 56.3528 53.7123C57.1734 53.3515 58.1119 52.9351 59.5627 52.2882C60.2176 51.9961 61.0563 51.6226 61.4264 51.4581C61.7966 51.2936 62.4489 51.003 62.876 50.8122C63.3032 50.6215 63.8655 50.3719 64.1258 50.2577L64.599 50.0499L64.7069 49.7674C64.894 49.2774 65.1813 47.4663 65.1791 46.7899C65.1783 46.5159 65.002 45.3423 64.2206 40.4092C63.9849 38.921 63.8429 38.0061 63.3673 34.913C63.1291 33.3635 63.0725 33.0971 62.9977 33.1721ZM66.9254 34.9852L66.4706 36.4063L66.8435 36.94L67.2164 37.4738L67.4377 39.0064C67.6513 40.4859 67.912 42.2663 68.5166 46.3746C68.6741 47.4445 68.9252 49.1691 69.0747 50.2071L69.3464 52.0942L69.5063 52.1706C69.682 52.2546 69.4781 52.3174 71.936 51.4219C72.3632 51.2662 72.7534 51.1263 72.8032 51.111C72.9195 51.0751 72.921 51.0965 72.7404 50.2133C72.6558 49.7996 72.4097 48.539 72.1937 47.4121C71.9776 46.2852 71.6981 44.8379 71.5726 44.196C70.6655 39.5569 70.679 39.6311 70.7405 39.6311C70.7521 39.6311 71.0374 39.8149 71.3747 40.0394C71.7119 40.264 72.6435 40.8802 73.4449 41.4089L74.9021 42.3701L75.0908 42.7083L75.2796 43.0466L75.0257 43.4008C74.7167 43.8318 73.32 45.7998 72.98 46.2832L72.7341 46.6328L75.3944 50.6925C76.8575 52.9253 78.2836 55.1023 78.5635 55.5303C78.8434 55.9582 79.3628 56.7519 79.7175 57.2939C87.2606 68.8186 87.8397 69.6918 87.9508 69.7082C88.0124 69.7173 88.0628 69.7074 88.0628 69.6861C88.0628 69.6648 87.8376 69.2255 87.5622 68.7098C86.9125 67.4932 86.1137 65.994 85.3216 64.5043C84.9727 63.8481 84.61 63.1712 84.5158 63C84.4215 62.8288 84.0595 62.1519 83.7111 61.4957C83.037 60.2256 82.2193 58.6893 81.2956 56.9568C80.9838 56.3719 80.4309 55.3331 80.0668 54.6484C79.7028 53.9637 79.283 53.1817 79.1339 52.9107C78.9848 52.6396 78.7048 52.1168 78.5117 51.7489L78.1607 51.08L78.2945 50.7114C78.368 50.5088 78.571 49.9695 78.7455 49.513C78.92 49.0565 79.1875 48.3562 79.3401 47.9568C79.4926 47.5573 79.7485 46.8921 79.9086 46.4784C80.0688 46.0647 80.2116 45.6899 80.226 45.6455C80.256 45.553 79.986 44.9189 79.5192 43.9857C78.9316 42.8109 78.3599 41.8311 77.473 40.4783C76.9021 39.6076 76.8802 39.582 76.4935 39.3371C76.276 39.1992 75.5926 38.7626 74.9748 38.3667C74.357 37.9709 73.5138 37.4312 73.1009 37.1675C72.688 36.9038 72.0124 36.4706 71.5995 36.2049C71.1866 35.9392 70.6392 35.5898 70.3829 35.4285C70.1266 35.2673 69.3644 34.7813 68.689 34.3487C68.0137 33.916 67.4429 33.5624 67.4206 33.563C67.3984 33.5636 67.1755 34.2035 66.9254 34.9852ZM28.2151 35.1248C27.6313 35.44 26.6179 35.985 25.963 36.3359C25.3081 36.6869 24.318 37.2188 23.7627 37.5181C21.3042 38.8431 20.6118 39.2155 17.4725 40.9017C16.9315 41.1922 15.9996 41.6938 15.4016 42.0163C13.8245 42.8668 12.3288 43.6697 11.2264 44.2576L10.261 44.7725L8.51112 47.1168C4.9609 51.8729 4.62945 52.3178 4.50484 52.4936L4.37769 52.673L4.7902 52.446C5.01707 52.3211 5.58707 52.0101 6.0569 51.7548C6.52672 51.4996 7.10335 51.1862 7.33824 51.0585C7.57313 50.9308 7.76535 50.8421 7.76535 50.8613C7.76535 50.8806 7.628 51.2386 7.46016 51.657C7.29227 52.0755 6.48613 54.0869 5.66871 56.1268C4.8513 58.1667 3.54122 61.4347 2.7574 63.389C1.97358 65.3434 1.22165 67.2225 1.08643 67.5648C0.951198 67.9072 0.651493 68.6542 0.420437 69.2248C0.189382 69.7954 0.000208697 70.2801 1.61114e-06 70.3019C-0.00118913 70.4341 0.657551 69.8437 2.30347 68.2377C4.21668 66.3709 5.65867 64.9755 8.46422 62.276L10.0691 60.7318L10.5199 59.4279C10.7678 58.7107 11.1658 57.5651 11.4041 56.8821L11.8375 55.6402L12.2476 55.4119C12.4732 55.2863 12.914 55.0417 13.2272 54.8681C13.5405 54.6947 13.9715 54.456 14.185 54.3377C14.3986 54.2194 15.0858 53.8354 15.7123 53.4843C16.3387 53.1332 17.0959 52.7112 17.3948 52.5464C17.6938 52.3816 18.2879 52.0519 18.715 51.8136L19.4916 51.3804L20.2682 50.2009C20.6953 49.5522 21.4408 48.4139 21.9248 47.6713C22.4089 46.9288 23.1943 45.7264 23.6702 44.9995C24.146 44.2726 24.559 43.6335 24.588 43.5793C24.6218 43.516 24.2849 43.6751 23.6451 44.0247C22.5009 44.6499 21.7374 45.0653 20.4235 45.7778C19.9109 46.0557 19.247 46.4177 18.948 46.5821C18.649 46.7466 17.985 47.1081 17.4725 47.3855C16.1322 48.1109 15.2536 48.5892 14.7877 48.8469C14.3636 49.0816 14.2595 49.1161 14.3039 49.0072C14.3185 48.9716 14.4387 48.6622 14.5712 48.3199C14.7036 47.9775 14.896 47.4804 14.9987 47.2151C15.125 46.8888 15.2287 46.7027 15.3194 46.6394C15.3931 46.5878 15.8728 46.3172 16.3853 46.0379C17.4066 45.4812 18.1216 45.091 19.0127 44.6037C19.3331 44.4285 19.8164 44.1646 20.087 44.0172C23.8938 41.9429 24.7389 41.4693 24.8435 41.3517C24.9111 41.2756 25.3719 40.5947 25.8676 39.8386C26.9145 38.2419 27.7255 37.0079 28.6718 35.572C29.0433 35.0086 29.3312 34.5485 29.3117 34.5497C29.2923 34.5508 28.7988 34.8097 28.2151 35.1248ZM41.8139 35.4424C41.7748 35.5065 41.5728 35.8742 41.3651 36.2594C41.1574 36.6445 40.8894 37.1347 40.7696 37.3487C40.3591 38.0821 39.8173 39.0865 39.7831 39.1772C39.751 39.2627 39.8646 39.268 41.7242 39.268H43.6994L43.6677 39.4625C43.6503 39.5696 43.6257 39.7154 43.6132 39.7867C43.6007 39.8581 43.4609 40.9318 43.3026 42.1729C43.1442 43.414 42.9016 45.3048 42.7633 46.3746C42.1191 51.3606 41.9268 52.9202 41.953 52.9466C42.0462 53.0399 42.5742 52.692 43.6947 51.7992C45.3295 50.4966 46.3359 49.6833 46.3589 49.6459C46.4025 49.5753 46.4707 48.8252 46.6966 45.9337C46.8126 44.4501 46.9525 42.7228 47.0077 42.0951C47.0629 41.4674 47.1335 40.6154 47.1645 40.2017C47.1956 39.788 47.2306 39.4204 47.2424 39.3847C47.2579 39.3375 47.4377 39.3199 47.9044 39.3199C48.2567 39.3199 48.8275 39.3047 49.1728 39.2861L49.8006 39.2522L50.0581 38.6506C50.4505 37.7334 50.8503 36.8123 51.1707 36.0868C51.3301 35.726 51.4604 35.4071 51.4604 35.3782C51.4604 35.3431 49.8728 35.3256 46.6728 35.3256H41.8851L41.8139 35.4424ZM38.3622 35.7726C35.7183 36.9693 35.7735 36.9416 35.7414 37.0843C35.7247 37.1584 35.6791 37.3488 35.64 37.5073C35.6009 37.6659 35.452 38.3311 35.3092 38.9857C35.1662 39.6403 34.92 40.7594 34.7619 41.4726C34.6039 42.1859 34.3486 43.3414 34.1947 44.0403C34.0408 44.7393 33.7853 45.8948 33.6269 46.6081C33.4687 47.3213 33.2332 48.3951 33.1038 48.9942C32.9743 49.5934 32.8523 50.0997 32.8326 50.1193C32.8129 50.1389 32.6105 50.2362 32.3827 50.3356C31.997 50.5039 31.6599 50.6541 29.5731 51.5871C29.1384 51.7815 28.7743 51.9312 28.7639 51.9198C28.7453 51.8993 28.9459 51.1028 29.5596 48.7608C29.9923 47.1097 30.4584 45.3185 30.7002 44.3775C30.8102 43.9496 31.0547 43.0042 31.2437 42.2767C31.4327 41.5491 31.7232 40.4287 31.8894 39.7867C32.0556 39.1448 32.2079 38.5787 32.228 38.5288C32.2765 38.4076 32.1824 38.4131 31.8908 38.5485C31.7627 38.6079 31.4249 38.756 31.1402 38.8776C28.8229 39.8664 28.692 39.9277 28.6109 40.0618C28.5729 40.1245 28.1502 40.8878 27.6716 41.7579C27.193 42.6281 26.5821 43.7334 26.314 44.2141C26.0459 44.6948 25.8373 45.0988 25.8502 45.1118C25.8632 45.1248 26.2007 44.9824 26.6002 44.7954C26.9997 44.6084 27.3376 44.4553 27.351 44.4553C27.3755 44.4553 27.3325 44.6053 26.7931 46.4006C25.3409 51.2331 24.1437 55.3327 23.8771 56.3862C23.7529 56.8769 23.7395 57.0207 23.7421 57.8386C23.7446 58.5971 23.8199 59.5212 23.8845 59.586C23.8997 59.6012 24.3795 59.4005 26.0148 58.6951C26.328 58.56 26.7939 58.3611 27.0502 58.2532C27.3065 58.1452 28.1452 57.7836 28.914 57.4494C29.6828 57.1152 30.5448 56.7414 30.8295 56.6187C31.3139 56.4098 31.6637 56.2555 33.448 55.4637C34.6157 54.9455 34.7657 54.8582 34.9498 54.5901C35.1471 54.3028 35.5252 53.4712 35.9139 52.4697C36.3711 51.2918 36.3944 51.2126 36.5545 50.2911C36.6387 49.8061 36.7183 49.3742 36.7313 49.3314C36.7443 49.2886 36.8588 48.6584 36.9856 47.9308C37.2154 46.6131 37.3623 45.793 37.8449 43.1326C37.9847 42.3622 38.1244 41.5803 38.1554 41.3948C38.1865 41.2094 38.3144 40.4974 38.4398 39.8127C38.5652 39.128 38.7508 38.1009 38.8521 37.5303C38.9535 36.9597 39.0818 36.2487 39.1373 35.9503C39.1927 35.652 39.2332 35.4029 39.2273 35.3969C39.2213 35.3909 38.832 35.56 38.3622 35.7726ZM82.3303 39.8511C82.2229 40.2003 81.9234 41.1399 81.6647 41.939L81.1943 43.3919L81.6388 43.6132C81.8832 43.7349 82.5955 44.0751 83.2215 44.3692C84.2943 44.8732 84.3634 44.9141 84.4218 45.0816C84.4559 45.1794 84.5997 45.6329 84.7414 46.0893C85.4164 48.2642 85.7578 49.357 85.9404 49.928C86.05 50.2703 86.2945 51.0523 86.4838 51.6657C86.6731 52.2791 86.9177 53.0611 87.0272 53.4035C87.1367 53.7458 87.3819 54.5278 87.572 55.1412C87.7622 55.7546 88.042 56.6533 88.194 57.1383C88.3459 57.6233 88.6372 58.5571 88.8412 59.2133C89.5255 61.4136 89.7781 62.2185 89.9587 62.7735L90.1382 63.325L90.4595 63.4688C90.6362 63.5479 91.107 63.7744 91.5056 63.9721C91.9043 64.1698 93.2905 64.8408 94.586 65.4631C97.0649 66.6539 97.953 67.0823 99.4784 67.8234C99.991 68.0724 101.54 68.82 102.921 69.4848C104.302 70.1496 106.034 70.9875 106.769 71.3468C107.505 71.706 108.14 72 108.18 72C108.221 72 108.254 71.9587 108.254 71.9082C108.254 71.8577 108.359 70.8745 108.487 69.7233C108.67 68.0762 108.72 67.4465 108.719 66.7676L108.719 65.9049L105.704 64.4676C104.045 63.6772 101.186 62.3178 99.349 61.4468C97.5124 60.5759 95.9049 59.8062 95.7768 59.7365L95.5438 59.6098L95.1633 58.5652C94.954 57.9906 94.7932 57.5099 94.8061 57.4971C94.829 57.4741 95.2706 57.667 96.6569 58.3054C97.0413 58.4824 97.6121 58.7442 97.9253 58.8871C98.9999 59.3774 99.583 59.6441 100.255 59.9528C103.03 61.2272 104.491 61.8855 104.508 61.8685C104.553 61.8235 105.277 56.5462 105.242 56.5192C105.233 56.5122 104.992 56.4002 104.707 56.2705C104.423 56.1408 103.904 55.9036 103.555 55.7436C103.206 55.5834 102.911 55.4525 102.9 55.4525C102.889 55.4525 102.685 55.3619 102.447 55.2513C102.21 55.1407 101.666 54.8926 101.239 54.7C100.101 54.1872 97.9832 53.2296 96.7087 52.6521C96.0965 52.3748 94.8594 51.8149 93.9596 51.4079L92.3236 50.668L92.0988 50.0386C91.9753 49.6925 91.7632 49.1067 91.6275 48.7369C91.4918 48.3671 91.3886 48.0567 91.3983 48.047C91.4079 48.0373 91.6457 48.1323 91.9267 48.258C92.2077 48.3836 92.7986 48.6444 93.24 48.8373C93.6813 49.0303 94.322 49.3116 94.6637 49.4625C95.0054 49.6134 95.5878 49.8692 95.958 50.031C96.3281 50.1927 96.8873 50.4377 97.2005 50.5753C97.5137 50.7129 98.0728 50.9583 98.443 51.1206C98.8132 51.283 99.3956 51.5392 99.7373 51.6899C102.529 52.9219 102.394 52.8677 102.425 52.765C102.439 52.7167 102.558 51.9536 102.689 51.0692C102.82 50.1847 102.973 49.1971 103.031 48.8744C103.088 48.5516 103.127 48.2408 103.119 48.1837C103.107 48.1092 102.985 48.028 102.688 47.8977C102.19 47.6785 98.2973 45.9932 96.2686 45.118C95.5418 44.8044 94.875 44.5161 93.8612 44.0771C91.8315 43.1979 90.3525 42.5579 89.2536 42.0832C88.556 41.7818 87.6241 41.3786 87.1827 41.1873C83.4891 39.5862 82.6233 39.2161 82.5704 39.2161C82.5457 39.2161 82.4377 39.5019 82.3303 39.8511Z" fill="var(--fill-0, black)"/>
</svg>
