<svg preserveAspectRatio="none" width="100%" height="100%" overflow="visible" style="display: block;" viewBox="0 0 144.607 72" fill="none" xmlns="http://www.w3.org/2000/svg">
<g id="puma_logo_footer">
<path id="Shape" d="M77.9015 0.631242C77.431 0.698635 76.9605 2.38345 76.0195 3.32695C75.3473 4.00087 74.5407 4.00087 74.0702 4.74219C73.8686 5.01176 74.003 5.5509 73.8014 6.02265C73.3981 7.03354 72.121 7.16832 72.121 8.17921C72.121 9.32489 73.2637 9.59446 74.2047 10.4032C74.944 11.0771 75.0785 11.5488 75.885 11.8184C76.6244 12.088 77.767 11.2793 78.7752 11.5488C79.649 11.8184 80.4556 12.0206 80.6572 12.8293C80.8589 13.638 80.6572 14.8511 79.649 14.7163C79.2457 14.7163 77.767 14.1772 76.0195 14.3119C73.7342 14.5815 71.2472 15.2554 71.0456 17.749C70.9784 19.1642 72.6587 20.7142 74.2047 20.4447C75.3473 20.2425 74.7424 18.8272 75.4145 18.2207C76.2883 17.412 80.8589 21.1186 85.1606 21.1186C86.9754 21.1186 88.3197 20.6468 89.664 19.2316C89.7312 19.1642 89.9328 18.8272 90.1345 18.8272C90.3361 18.8272 90.605 19.0294 90.6722 19.0968C94.1673 21.8599 96.7887 27.3861 109.425 27.4535C111.24 27.4535 113.256 28.2622 114.937 29.8122C116.415 31.2275 117.289 33.3167 118.096 35.4732C119.44 38.7081 121.658 41.8755 125.153 45.3125C125.355 45.5147 128.178 47.7387 128.447 47.8061C128.447 47.8061 128.716 48.3452 128.648 48.6148C128.581 50.7713 128.245 56.8367 132.883 57.1062C134.025 57.1736 133.757 56.3649 133.757 55.8258C133.757 54.8149 133.555 53.6692 134.16 52.6583C134.899 51.1757 132.547 50.5018 132.547 47.2669C132.614 44.8408 130.598 45.2451 129.522 43.4255C128.984 42.4146 128.379 41.7407 128.379 40.4603C128.581 33.1145 126.766 28.2622 125.96 27.1165C125.288 26.173 124.615 25.9035 125.288 25.4317C129.119 22.9382 129.993 20.5794 129.993 20.5794C132.076 15.862 133.824 11.4815 136.378 9.59446C136.848 9.1901 138.193 8.17921 138.999 7.84225C141.352 6.69658 142.562 6.09004 143.234 5.41612C144.242 4.40523 145.183 2.18127 144.175 0.83342C142.831 -0.851395 140.68 0.429065 139.671 1.10299C132.614 5.28133 131.606 12.5597 129.186 16.7381C127.237 20.1077 124.145 22.6012 121.322 22.8034C119.171 23.0056 116.886 22.5338 114.668 21.5229C109.156 19.0968 106.131 16.0641 105.392 15.4576C103.913 14.3119 92.4198 3.05738 83.077 2.58563C83.077 2.58563 81.9343 0.226887 81.6655 0.226887C80.9933 0.159494 80.254 1.64213 79.7835 1.84431C79.1785 2.31606 78.372 0.496457 77.9015 0.631242ZM36.9007 67.6195C36.0269 67.6195 35.3548 66.8782 35.2875 66.0021V37.0232H25.6087V68.9673C25.6087 70.5848 26.953 71.8652 28.4317 71.8652H45.1681C46.7812 71.8652 47.9911 70.5848 47.9911 68.9673V37.0906H38.5138V66.0695C38.4466 66.9456 37.7745 67.6195 36.9007 67.6195ZM69.0292 37.0906H54.4436C52.7633 37.0906 51.3518 38.5059 51.3518 40.1907V71.8652H60.8962V42.8864C60.8962 41.9429 61.6356 41.269 62.5094 41.269C63.4504 41.269 64.1225 41.9429 64.1225 42.8864V71.9326H73.6669V42.7516C73.6669 41.9429 74.4063 41.1342 75.2801 41.1342C76.1539 41.1342 76.8932 41.8755 76.8932 42.7516V71.7978H86.4377V40.1233C86.4377 38.3711 85.0262 37.0232 83.3458 37.0232H69.0292V37.0906ZM19.2233 63.1042H9.54444V71.8652H0V37.0906H19.3577C21.0381 37.0906 22.4496 38.5059 22.4496 40.2581V60.0041C22.4496 61.7563 21.0381 63.1042 19.2233 63.1042ZM12.8379 42.8864C12.8379 41.9429 12.0986 41.2016 11.2248 41.2016H9.61166V58.7911H11.2248C12.0986 58.7911 12.8379 58.1171 12.8379 57.1062V42.8864ZM101.83 72V63.3064H98.5363V72H88.9246V40.4603C88.9246 38.7081 90.3361 37.4276 92.0165 37.4276H108.215C109.895 37.4276 111.307 38.8428 111.307 40.4603V72H101.83ZM101.83 59.0606V43.156C101.83 42.3473 101.09 41.6059 100.217 41.6059C99.3428 41.6059 98.6035 42.3473 98.6035 43.156V59.128L101.83 59.0606Z" fill="var(--fill-0, black)"/>
<g id="Oval">
<path id="Vector" d="M120.045 71.596C117.423 71.596 115.34 69.5068 115.34 66.8785C115.34 64.2502 117.423 62.161 120.045 62.161C122.666 62.161 124.75 64.2502 124.75 66.8785C124.75 69.5068 122.666 71.596 120.045 71.596ZM120.045 62.9023C117.827 62.9023 116.079 64.7219 116.079 66.8785C116.079 69.035 117.894 70.8546 120.045 70.8546C122.196 70.8546 124.01 69.035 124.01 66.8785C124.01 64.7219 122.263 62.9023 120.045 62.9023Z" fill="var(--fill-0, black)"/>
</g>
<g id="Group">
<path id="Vector_2" d="M118.633 64.9237H120.179C120.515 64.9237 120.784 64.9911 120.986 65.1933C121.255 65.3955 121.389 65.6651 121.389 66.0694C121.389 66.6086 121.12 67.0129 120.65 67.2151L121.591 69.0347H120.851L120.045 67.2825H119.305V69.0347H118.7V64.9237H118.633ZM119.238 66.7433H120.179C120.381 66.7433 120.582 66.676 120.717 66.5412C120.851 66.4064 120.918 66.2716 120.918 66.0694C120.918 65.8672 120.851 65.6651 120.717 65.5977C120.582 65.5303 120.448 65.4629 120.246 65.4629H119.305V66.7433H119.238Z" fill="var(--fill-0, black)"/>
</g>
</g>
</svg>
