<svg preserveAspectRatio="none" width="100%" height="100%" overflow="visible" style="display: block;" viewBox="0 0 107.573 72" fill="none" xmlns="http://www.w3.org/2000/svg">
<path id="Vector" d="M53.4095 62.6507C53.4095 59.7493 55.7785 57.4925 58.5782 57.4925C61.3779 57.4925 63.7469 59.8567 63.7469 62.6507C63.7469 65.4448 61.3779 67.809 58.5782 67.809C55.7785 67.809 53.4095 65.5522 53.4095 62.6507ZM74.6226 62.6507C74.6226 59.7493 76.9916 57.4925 79.7912 57.4925C82.6986 57.4925 84.9599 59.8567 84.9599 62.6507C84.9599 65.4448 82.5909 67.809 79.7912 67.809C76.9916 67.9164 74.6226 65.5522 74.6226 62.6507ZM25.5203 62.6507C25.5203 59.7493 27.8892 57.4925 30.6889 57.4925C33.5963 57.4925 35.8576 59.8567 35.8576 62.6507C35.8576 65.4448 33.4886 67.809 30.6889 67.809C27.7816 67.9164 25.5203 65.5522 25.5203 62.6507ZM4.30722 62.6507C4.30722 59.7493 6.67619 57.4925 9.47588 57.4925C12.3833 57.4925 14.6445 59.8567 14.6445 62.6507C14.6445 65.4448 12.2756 67.809 9.47588 67.809C6.67619 67.9164 4.30722 65.5522 4.30722 62.6507ZM47.1641 53.5164H42.6415V71.6776H47.1641V53.5164ZM14.7522 71.6776H19.2748V53.5164H14.7522V55.0209C13.2447 53.9463 11.4141 53.3015 9.3682 53.3015C4.19954 53.3015 0 57.4925 0 62.6507C0 67.9164 4.19954 72 9.3682 72C11.4141 72 13.2447 71.3552 14.7522 70.2806V71.6776ZM85.0676 71.6776H89.5902V53.5164H85.0676V55.0209C83.5601 53.9463 81.7295 53.3015 79.6836 53.3015C74.5149 53.3015 70.3154 57.4925 70.3154 62.6507C70.3154 67.9164 74.5149 72 79.6836 72C81.7295 72 83.5601 71.3552 85.0676 70.2806V71.6776ZM91.2054 65.7672C91.3131 69.4209 94.4358 72 99.7121 72C104.019 72 107.573 70.1731 107.573 66.0896C107.573 63.1881 105.958 61.5761 102.296 60.8239L99.3891 60.2866C97.5585 59.9642 96.2664 59.5343 96.2664 58.4597C96.2664 57.2776 97.5585 56.7403 99.0661 56.7403C101.327 56.7403 102.296 57.9224 102.296 59.2119H106.819C106.604 55.6657 103.696 53.3015 99.0661 53.3015C94.3281 53.3015 91.5284 55.8806 91.5284 59.3194C91.5284 63.403 94.8665 64.1552 97.7739 64.6925L100.143 65.1224C101.866 65.4448 102.62 65.9821 102.62 66.9493C102.62 67.809 101.758 68.7761 99.7121 68.7761C96.6971 68.7761 95.8356 67.2716 95.728 65.8746H91.2054V65.7672ZM35.8576 47.2836V54.9134C34.3501 53.8388 32.5195 53.194 30.4736 53.194C25.3049 53.194 21.1054 57.3851 21.1054 62.5433C21.1054 67.809 25.3049 71.8925 30.4736 71.8925C32.5195 71.8925 34.3501 71.2478 35.8576 70.1731V71.4627H40.3802V47.2836H35.8576ZM63.8545 47.2836V54.9134C62.347 53.8388 60.5164 53.194 58.4705 53.194C53.3019 53.194 49.1023 57.3851 49.1023 62.5433C49.1023 67.809 53.3019 71.8925 58.4705 71.8925C60.5164 71.8925 62.347 71.2478 63.8545 70.1731V71.4627H68.3771V47.2836H63.8545ZM11.6295 41.9104L14.7522 47.2836H35.8576L27.4585 32.7761L11.6295 41.9104ZM47.1641 51.797V47.2836H63.8545L46.0873 16.6567L30.2582 25.6836L42.6415 47.2836V51.797H47.1641ZM70.5307 47.2836H91.7438L64.3929 0L48.5639 9.13433L70.5307 47.2836Z" fill="var(--fill-0, black)"/>
</svg>
