<svg preserveAspectRatio="none" width="100%" height="100%" overflow="visible" style="display: block;" viewBox="0 0 1384 196" fill="none" xmlns="http://www.w3.org/2000/svg">
<g id="smallcrowdd.">
<path d="M37.3571 190.696C31.3602 190.696 25.5397 189.988 19.8956 188.574C14.4278 187.336 9.31282 185.126 4.55058 181.943C2.78679 179.114 1.55214 174.782 0.84662 168.947C0.141103 162.936 -0.123465 156.482 0.0529138 149.586C0.0529138 147.287 1.9049 146.138 5.60886 146.138C7.19627 146.138 8.51912 146.668 9.57739 147.729C10.812 148.79 11.6058 149.763 11.9585 150.647C15.4861 157.719 19.3664 164.085 23.5995 169.743C27.8326 175.224 33.2122 177.965 39.7382 177.965C44.3241 177.965 47.6753 176.55 49.7919 173.721C52.0848 170.892 53.2312 167.798 53.2312 164.438C53.2312 159.841 51.3793 156.04 47.6753 153.034C43.9713 150.028 39.9146 147.464 35.5051 145.342C30.5665 142.867 25.7161 140.038 20.9539 136.855C16.1916 133.496 12.2231 129.341 9.04825 124.39C5.87343 119.439 4.28602 113.427 4.28602 106.355C4.28602 99.1051 6.22619 92.9166 10.1065 87.7889C14.1633 82.4844 19.5428 78.4177 26.2452 75.5886C32.9476 72.5828 40.2674 71.0798 48.2044 71.0798C54.2013 71.0798 59.7573 71.7871 64.8723 73.2016C70.1637 74.4393 73.7794 75.677 75.7196 76.9148C77.1306 78.6829 78.1889 82.1308 78.8944 87.2585C79.7763 92.2093 80.2173 97.8674 80.2173 104.233C80.2173 106.178 78.4535 107.15 74.9259 107.15C73.6912 107.15 72.3684 106.708 70.9574 105.824C69.5463 104.763 68.6644 103.791 68.3117 102.907C66.0187 95.834 63.0203 90.5296 59.3163 86.9932C55.7887 83.4569 51.9084 81.6888 47.6753 81.6888C43.795 81.6888 40.2674 82.9265 37.0926 85.4019C34.0941 87.8773 32.5949 91.1484 32.5949 95.2152C32.5949 98.7515 34.3587 102.023 37.8863 105.028C41.5902 107.857 45.8233 110.51 50.5856 112.985C62.2266 118.997 70.5164 124.832 75.455 130.49C80.3936 136.148 82.863 143.751 82.863 153.299C82.863 165.146 79.0708 174.34 71.4865 180.882C63.9022 187.424 52.5257 190.696 37.3571 190.696Z" fill="var(--fill-0, #131111)"/>
<path d="M92.4308 187.778C91.3726 187.778 90.2261 187.424 88.9914 186.717C87.7568 186.01 87.1395 185.037 87.1395 183.8C87.1395 182.385 87.7568 181.236 88.9914 180.352C90.4025 179.468 91.8135 178.76 93.2245 178.23C95.8702 177.346 98.1632 176.373 100.103 175.313C102.044 174.075 103.014 171.688 103.014 168.152V106.62C103.014 103.083 102.484 100.078 101.426 97.6022C100.368 94.9499 98.3395 93.3586 95.3411 92.8281C94.6356 92.6513 93.9301 92.2093 93.2245 91.502C92.519 90.7948 92.1663 89.5571 92.1663 87.7889C92.1663 85.1367 93.1364 83.5453 95.0765 83.0149C99.3096 81.954 104.072 80.7163 109.363 79.3018C114.655 77.7104 119.77 76.0307 124.708 74.2625C129.823 72.4944 134.056 70.7262 137.408 68.9581C138.113 68.6044 138.73 68.2508 139.26 67.8972C139.789 67.5435 140.318 67.3667 140.847 67.3667C142.611 67.3667 143.493 68.4276 143.493 70.5494C143.493 71.9639 143.228 74.3509 142.699 77.7104C142.346 80.8931 142.17 83.7221 142.17 86.1976C142.17 87.9657 142.346 89.0266 142.699 89.3802H143.228C148.872 83.7222 154.869 79.3018 161.219 76.1191C167.568 72.9364 174.535 71.3451 182.12 71.3451C187.411 71.3451 192.35 73.3784 196.936 77.4452C201.698 81.512 205.137 86.4628 207.254 92.2977H208.577C213.692 85.5787 219.512 80.4511 226.038 76.9148C232.564 73.2016 239.884 71.3451 247.997 71.3451C253.465 71.3451 258.404 72.848 262.813 75.8539C267.399 78.8597 271.015 83.1917 273.66 88.8498C276.483 94.5079 277.894 101.404 277.894 109.537V168.417C277.894 171.953 278.864 174.252 280.804 175.313C282.744 176.373 285.037 177.346 287.683 178.23C289.094 178.76 290.328 179.468 291.387 180.352C292.445 181.236 292.974 182.385 292.974 183.8C292.974 185.037 292.445 186.01 291.387 186.717C290.505 187.424 289.535 187.778 288.476 187.778C284.949 187.778 281.509 187.601 278.158 187.248C274.807 187.071 271.544 186.894 268.369 186.717C265.194 186.54 262.019 186.452 258.845 186.452C255.846 186.452 252.936 186.54 250.114 186.717C247.468 186.894 244.734 187.071 241.912 187.248C239.09 187.601 235.915 187.778 232.388 187.778C231.329 187.778 230.359 187.424 229.477 186.717C228.596 186.01 228.155 185.037 228.155 183.8C228.155 182.385 228.596 181.236 229.477 180.352C230.536 179.468 231.77 178.76 233.181 178.23C235.474 177.523 237.062 176.639 237.944 175.578C239.002 174.517 239.531 172.749 239.531 170.273V116.168C239.531 111.747 239.002 108.034 237.944 105.028C236.885 101.846 235.298 99.4587 233.181 97.8674C231.241 96.0992 228.948 95.2152 226.303 95.2152C224.539 95.2152 222.422 95.7456 219.953 96.8065C217.484 97.6906 215.014 99.1935 212.545 101.315C210.605 103.083 209.635 106.178 209.635 110.598V168.417C209.635 171.953 210.164 174.252 211.222 175.313C212.281 176.373 214.133 177.346 216.778 178.23C218.189 178.76 219.424 179.468 220.482 180.352C221.54 181.236 222.07 182.385 222.07 183.8C222.07 185.037 221.54 186.01 220.482 186.717C219.6 187.424 218.63 187.778 217.572 187.778C214.044 187.778 210.781 187.601 207.783 187.248C204.961 187.071 202.139 186.894 199.317 186.717C196.671 186.54 193.761 186.452 190.586 186.452C187.587 186.452 184.677 186.54 181.855 186.717C179.209 186.894 176.476 187.071 173.653 187.248C170.831 187.601 167.657 187.778 164.129 187.778C163.071 187.778 162.101 187.424 161.219 186.717C160.337 186.01 159.896 185.037 159.896 183.8C159.896 182.385 160.337 181.236 161.219 180.352C162.277 179.468 163.512 178.76 164.923 178.23C167.216 177.523 168.803 176.639 169.685 175.578C170.743 174.517 171.272 172.749 171.272 170.273V116.168C171.272 111.747 170.743 108.034 169.685 105.028C168.627 102.023 167.127 99.724 165.187 98.1326C163.247 96.3645 160.954 95.4804 158.308 95.4804C156.545 95.4804 154.428 95.9224 151.959 96.8065C149.49 97.6906 146.844 99.1051 144.022 101.05C142.258 102.288 141.376 105.117 141.376 109.537V168.417C141.376 171.423 141.729 173.633 142.434 175.047C143.316 176.285 145.08 177.346 147.726 178.23C149.137 178.76 150.283 179.468 151.165 180.352C152.223 181.236 152.753 182.385 152.753 183.8C152.753 184.861 152.312 185.833 151.43 186.717C150.548 187.424 149.578 187.778 148.519 187.778C144.992 187.778 141.729 187.601 138.73 187.248C135.908 187.071 133.174 186.894 130.529 186.717C127.883 186.54 124.973 186.452 121.798 186.452C118.8 186.452 115.713 186.54 112.538 186.717C109.363 186.894 106.1 187.071 102.749 187.248C99.3978 187.601 95.9584 187.778 92.4308 187.778Z" fill="var(--fill-0, #131111)"/>
<path d="M324.055 190.696C318.94 190.696 314.266 189.546 310.032 187.248C305.799 185.126 302.448 182.208 299.979 178.495C297.51 174.605 296.275 170.362 296.275 165.765C296.275 159.576 298.215 154.36 302.095 150.116C306.152 145.873 311.973 142.071 319.557 138.712L342.31 128.633C345.837 127.042 348.042 125.627 348.924 124.39C349.806 122.975 350.247 120.588 350.247 117.229L350.512 102.641C350.688 97.5138 349.894 93.6238 348.13 90.9716C346.367 88.1425 343.633 86.728 339.929 86.728C337.812 86.728 335.607 87.2585 333.315 88.3194C331.022 89.2034 329.346 90.2643 328.288 91.502C327.759 92.2093 327.406 93.005 327.229 93.889C327.053 94.7731 326.965 95.6572 326.965 96.5413C326.965 97.6022 327.053 99.0167 327.229 100.785C327.406 102.376 327.494 103.702 327.494 104.763C327.494 106.001 325.995 107.504 322.996 109.272C319.998 110.863 316.559 112.366 312.678 113.781C308.798 115.018 305.447 115.637 302.625 115.637C301.214 115.637 299.979 115.107 298.921 114.046C298.039 112.808 297.598 111.305 297.598 109.537C297.598 106.708 298.568 103.968 300.508 101.315C302.448 98.6631 305.711 95.4804 310.297 91.7673C315.059 87.8773 320.262 84.4294 325.907 81.4235C331.551 78.4177 337.107 76.0307 342.574 74.2625C348.042 72.3176 352.716 71.3451 356.597 71.3451C366.65 71.3451 374.675 74.6162 380.672 81.1583C386.669 87.5237 389.491 96.0992 389.139 106.885L387.816 158.338C387.639 162.405 388.257 165.941 389.668 168.947C391.255 171.776 393.195 173.191 395.488 173.191C398.663 173.191 401.485 172.042 403.954 169.743C404.484 169.212 405.013 168.947 405.542 168.947C406.424 168.947 407.129 169.301 407.658 170.008C408.364 170.539 408.717 171.246 408.717 172.13C408.717 174.252 406.953 177.081 403.425 180.617C400.074 183.977 396.458 186.452 392.578 188.043C388.698 189.811 384.641 190.696 380.408 190.696C370.178 190.696 361.623 185.568 354.745 175.313H354.215C348.395 180.794 343.192 184.684 338.606 186.982C334.02 189.458 329.17 190.696 324.055 190.696ZM340.458 172.395C342.045 172.395 343.368 172.13 344.426 171.599C345.485 171.069 346.455 170.185 347.337 168.947C347.866 168.24 348.219 167.356 348.395 166.295C348.748 165.234 348.924 164.085 348.924 162.847L349.718 142.425C349.718 140.834 349.453 139.861 348.924 139.507C348.395 138.977 347.778 138.712 347.072 138.712C346.719 138.712 346.278 138.8 345.749 138.977C345.397 138.977 344.956 139.154 344.426 139.507C340.193 141.806 336.93 144.193 334.637 146.668C332.521 148.967 331.463 153.211 331.463 159.399C331.463 164.527 332.433 167.975 334.373 169.743C336.489 171.511 338.518 172.395 340.458 172.395Z" fill="var(--fill-0, #131111)"/>
<path d="M408.787 187.778C407.023 187.778 405.7 187.424 404.818 186.717C403.937 186.01 403.496 185.037 403.496 183.8C403.496 182.385 404.025 181.324 405.083 180.617C406.141 179.733 407.64 178.937 409.581 178.23C412.226 177.346 414.519 176.462 416.459 175.578C418.4 174.517 419.37 172.042 419.37 168.152V42.1705C419.37 37.3965 418.752 33.2413 417.518 29.705C416.459 26.1687 413.726 23.9585 409.316 23.0744C407.376 22.7208 406.406 21.3063 406.406 18.8309C406.406 16.5323 407.288 15.2061 409.052 14.8525C413.461 13.9684 418.488 12.6423 424.132 10.8742C429.952 8.92919 435.42 6.98422 440.535 5.03924C445.827 3.09427 449.795 1.67975 452.441 0.795675C454.028 0.265225 455.263 0 456.145 0C457.379 0 458.173 0.353632 458.526 1.0609C458.879 1.76816 459.055 2.56383 459.055 3.44791C459.055 4.68561 458.879 6.80739 458.526 9.81326C458.173 12.6423 457.909 15.2946 457.732 17.77V167.621C457.732 171.511 458.702 173.986 460.642 175.047C462.583 175.931 464.876 176.816 467.521 177.7C469.461 178.407 470.961 179.203 472.019 180.087C473.077 180.794 473.606 181.855 473.606 183.269C473.606 184.507 473.165 185.479 472.283 186.187C471.402 186.894 470.079 187.248 468.315 187.248C464.787 187.248 461.26 187.159 457.732 186.982C454.205 186.806 450.765 186.717 447.414 186.717C444.063 186.54 440.8 186.452 437.625 186.452C434.626 186.452 431.54 186.54 428.365 186.717C425.367 186.894 422.192 187.071 418.841 187.248C415.666 187.601 412.314 187.778 408.787 187.778Z" fill="var(--fill-0, #131111)"/>
<path d="M478.877 187.778C477.113 187.778 475.79 187.424 474.908 186.717C474.027 186.01 473.586 185.037 473.586 183.8C473.586 182.385 474.115 181.324 475.173 180.617C476.231 179.733 477.731 178.937 479.671 178.23C482.316 177.346 484.609 176.462 486.549 175.578C488.49 174.517 489.46 172.042 489.46 168.152V42.1705C489.46 37.3965 488.842 33.2413 487.608 29.705C486.549 26.1687 483.816 23.9585 479.406 23.0744C477.466 22.7208 476.496 21.3063 476.496 18.8309C476.496 16.5323 477.378 15.2061 479.142 14.8525C483.551 13.9684 488.578 12.6423 494.222 10.8742C500.042 8.92919 505.51 6.98422 510.625 5.03924C515.917 3.09427 519.885 1.67975 522.531 0.795675C524.118 0.265225 525.353 0 526.235 0C527.469 0 528.263 0.353632 528.616 1.0609C528.969 1.76816 529.145 2.56383 529.145 3.44791C529.145 4.68561 528.969 6.80739 528.616 9.81326C528.263 12.6423 527.999 15.2946 527.822 17.77V167.621C527.822 171.511 528.792 173.986 530.732 175.047C532.673 175.931 534.966 176.816 537.611 177.7C539.551 178.407 541.051 179.203 542.109 180.087C543.167 180.794 543.696 181.855 543.696 183.269C543.696 184.507 543.255 185.479 542.374 186.187C541.492 186.894 540.169 187.248 538.405 187.248C534.877 187.248 531.35 187.159 527.822 186.982C524.295 186.806 520.855 186.717 517.504 186.717C514.153 186.54 510.89 186.452 507.715 186.452C504.717 186.452 501.63 186.54 498.455 186.717C495.457 186.894 492.282 187.071 488.931 187.248C485.756 187.601 482.405 187.778 478.877 187.778Z" fill="var(--fill-0, #131111)"/>
<path d="M590.364 190.696C580.839 190.696 572.285 188.132 564.701 183.004C557.116 177.876 551.119 170.981 546.71 162.317C542.301 153.476 540.096 143.574 540.096 132.612C540.096 121.119 542.741 110.775 548.033 101.581C553.501 92.3861 560.732 85.0483 569.727 79.567C578.723 74.0857 588.776 71.3451 599.888 71.3451C615.057 71.3451 627.492 76.4727 637.193 86.728C638.604 88.4962 639.309 90.0875 639.309 91.502C639.309 92.5629 638.515 94.1543 636.928 96.2761C635.341 98.221 633.489 100.078 631.372 101.846C629.432 103.437 627.756 104.233 626.345 104.233C624.581 104.233 622.906 103.702 621.318 102.641C619.731 101.581 618.232 100.431 616.821 99.1935C612.058 95.1268 607.296 91.9441 602.534 89.6455C597.948 87.1701 593.891 85.9324 590.364 85.9324C584.191 85.9324 579.605 88.4962 576.606 93.6238C573.608 98.5747 572.109 107.327 572.109 119.881C572.109 128.545 573.343 135.971 575.813 142.16C578.282 148.348 581.986 153.122 586.924 156.482C591.863 159.664 597.948 161.256 605.18 161.256C610.471 161.256 615.057 160.372 618.937 158.604C622.994 156.835 627.139 154.36 631.372 151.177C632.254 150.47 633.048 149.851 633.753 149.321C634.459 148.79 635.252 148.525 636.134 148.525C638.251 148.525 639.309 149.94 639.309 152.769C639.309 153.476 639.221 154.448 639.044 155.686C638.868 156.924 638.427 158.338 637.722 159.93C636.311 163.466 633.312 167.71 628.726 172.66C624.14 177.434 618.585 181.678 612.058 185.391C605.532 188.927 598.301 190.696 590.364 190.696Z" fill="var(--fill-0, #131111)"/>
<path d="M646.217 187.778C644.982 187.778 643.747 187.424 642.513 186.717C641.455 186.01 640.925 185.037 640.925 183.8C640.925 182.385 641.455 181.236 642.513 180.352C643.747 179.468 645.247 178.76 647.01 178.23C651.067 176.992 653.713 175.755 654.948 174.517C656.182 173.102 656.8 170.981 656.8 168.152V106.355C656.8 102.818 656.359 99.9892 655.477 97.8674C654.595 95.7456 652.655 94.2427 649.656 93.3586C648.774 93.005 647.892 92.5629 647.01 92.0325C646.305 91.3252 645.952 90.0875 645.952 88.3194C645.952 85.6671 647.099 84.0758 649.392 83.5453C655.212 82.1308 661.65 80.3627 668.705 78.2409C675.937 75.9423 682.198 73.5553 687.49 71.0798C688.371 70.5494 689.518 69.9305 690.929 69.2233C692.34 68.516 693.398 68.1624 694.104 68.1624C695.868 68.1624 696.749 69.2233 696.749 71.3451C696.749 72.2291 696.661 74.0857 696.485 76.9148C696.485 79.7438 696.397 82.6613 696.22 85.6671C696.044 88.4962 695.956 90.7948 695.956 92.5629C695.956 94.3311 696.308 95.2152 697.014 95.2152C699.66 91.502 702.746 87.7889 706.274 84.0758C709.978 80.3627 713.946 77.2684 718.18 74.793C722.589 72.3176 726.998 71.0798 731.408 71.0798C737.934 71.0798 742.52 72.3176 745.166 74.793C747.811 77.2684 749.134 80.4511 749.134 84.341C749.134 87.1701 748.34 90.3527 746.753 93.889C745.166 97.2485 743.137 100.166 740.668 102.641C738.199 105.117 735.553 106.355 732.731 106.355C730.967 106.355 729.115 105.912 727.175 105.028C725.411 104.144 723.559 103.26 721.619 102.376C719.855 101.492 718.091 100.696 716.328 99.9892C714.564 99.1051 712.976 98.6631 711.565 98.6631C706.979 98.6631 703.099 100.431 699.924 103.968C696.749 107.327 695.162 114.134 695.162 124.39V165.234C695.162 169.124 696.22 171.953 698.337 173.721C700.453 175.489 703.981 177.081 708.92 178.495C710.86 179.026 712.271 179.733 713.153 180.617C714.211 181.324 714.74 182.385 714.74 183.8C714.74 186.452 713.329 187.778 710.507 187.778C705.216 187.778 699.395 187.513 693.046 186.982C686.696 186.629 681.228 186.452 676.642 186.452C673.644 186.452 670.469 186.54 667.118 186.717C663.767 186.894 660.327 187.071 656.8 187.248C653.272 187.601 649.744 187.778 646.217 187.778Z" fill="var(--fill-0, #131111)"/>
<path d="M800.987 190.696C790.228 190.696 780.528 188.309 771.885 183.535C763.242 178.76 756.364 172.13 751.249 163.643C746.134 155.156 743.576 145.519 743.576 134.733C743.576 126.069 745.163 117.936 748.338 110.333C751.689 102.553 756.187 95.7456 761.831 89.9107C767.652 84.0758 774.354 79.4786 781.939 76.1191C789.699 72.7596 797.989 71.0798 806.808 71.0798C817.92 71.0798 827.885 73.6437 836.704 78.7713C845.7 83.899 852.843 90.7064 858.134 99.1935C863.426 107.681 866.071 116.963 866.071 127.042C866.071 138.535 863.602 149.144 858.664 158.869C853.901 168.594 846.67 176.373 836.969 182.208C827.444 187.866 815.451 190.696 800.987 190.696ZM806.014 178.23C809.189 178.23 811.923 177.611 814.216 176.373C816.509 174.959 818.449 173.014 820.036 170.539C822.153 167.002 823.652 162.14 824.534 155.951C825.416 149.763 825.857 142.248 825.857 133.407C825.857 123.506 824.887 114.842 822.947 107.415C821.007 99.9892 818.273 94.1543 814.745 89.9107C811.394 85.6671 807.425 83.5453 802.84 83.5453C800.547 83.5453 798.43 83.9874 796.49 84.8714C794.55 85.5787 792.874 86.6396 791.463 88.0541C788.465 91.2368 786.348 96.1877 785.113 102.907C784.055 109.449 783.526 117.848 783.526 128.103C783.526 136.413 784.496 144.458 786.436 152.238C788.376 159.841 791.022 166.118 794.373 171.069C797.901 175.843 801.781 178.23 806.014 178.23Z" fill="var(--fill-0, #131111)"/>
<path d="M922.751 195.47C921.869 195.47 920.899 195.204 919.841 194.674C918.959 194.32 918.342 193.613 917.989 192.552L879.362 98.3978C877.774 94.3311 875.922 90.9716 873.806 88.3194C871.866 85.4903 869.22 83.4569 865.869 82.2192C864.105 81.512 862.87 80.8047 862.165 80.0974C861.459 79.2134 861.107 77.9756 861.107 76.3843C861.107 74.9698 861.9 74.0857 863.488 73.7321C865.075 73.3784 866.486 73.2016 867.721 73.2016C872.13 73.2016 875.57 73.3784 878.039 73.7321C880.685 73.9089 883.154 74.1741 885.447 74.5277C887.916 74.7046 891.091 74.793 894.971 74.793C898.852 74.793 902.027 74.7046 904.496 74.5277C907.142 74.1741 909.787 73.9089 912.433 73.7321C915.255 73.3784 918.783 73.2016 923.016 73.2016C924.25 73.2016 925.573 73.4669 926.984 73.9973C928.572 74.5277 929.365 75.5002 929.365 76.9148C929.365 78.5061 928.748 79.567 927.513 80.0974C926.279 80.6279 924.956 81.2467 923.545 81.954C921.605 82.6613 920.194 83.8106 919.312 85.4019C918.43 86.8164 917.989 89.115 917.989 92.2977C917.989 95.6572 918.606 99.0167 919.841 102.376L934.128 141.099C934.128 141.276 934.304 141.364 934.657 141.364C935.009 141.364 935.186 141.276 935.186 141.099L952.647 99.724C953 98.8399 953.265 97.8674 953.441 96.8065C953.794 95.5688 953.97 94.3311 953.97 93.0934C953.97 91.502 953.088 89.6455 951.325 87.5237C949.737 85.4019 947.444 83.7222 944.446 82.4844C942.682 81.7772 941.447 81.0699 940.742 80.3627C940.036 79.4786 939.683 78.2409 939.683 76.6495C939.683 75.235 940.477 74.3509 942.065 73.9973C943.828 73.6437 945.504 73.4668 947.091 73.4668C951.854 73.4668 956.44 73.6437 960.849 73.9973C965.435 74.3509 968.874 74.5277 971.167 74.5277C975.753 74.5277 980.074 74.3509 984.131 73.9973C988.188 73.6437 992.95 73.4668 998.418 73.4668C999.652 73.4668 1000.98 73.7321 1002.39 74.2625C1003.97 74.793 1004.77 75.7655 1004.77 77.18C1004.77 78.7713 1004.15 79.8322 1002.92 80.3627C1001.68 80.8931 1000.36 81.512 998.947 82.2192C997.007 82.9265 995.508 83.899 994.449 85.1367C993.391 86.3744 992.862 88.231 992.862 90.7064C992.862 93.005 993.126 95.2152 993.656 97.3369C994.185 99.2819 994.714 100.962 995.243 102.376L1010.06 141.629C1010.06 141.806 1010.24 141.894 1010.59 141.894C1010.94 141.894 1011.12 141.806 1011.12 141.629L1024.61 105.559C1025.32 103.614 1025.84 101.757 1026.2 99.9892C1026.55 98.0442 1026.64 96.1877 1026.46 94.4195C1026.46 91.7673 1025.84 89.3802 1024.61 87.2585C1023.38 85.1367 1021.52 83.6337 1019.05 82.7497C1017.64 82.2192 1016.32 81.6888 1015.09 81.1583C1013.85 80.4511 1013.23 79.3018 1013.23 77.7104C1013.23 76.2959 1013.94 75.3234 1015.35 74.793C1016.94 74.2625 1018.35 73.9973 1019.58 73.9973C1024.87 74.1741 1028.58 74.3509 1030.7 74.5277C1032.99 74.5277 1035.28 74.5277 1037.57 74.5277C1038.99 74.5277 1040.31 74.5277 1041.54 74.5277C1042.95 74.5277 1044.72 74.5277 1046.83 74.5277C1048.95 74.3509 1051.68 74.1741 1055.04 73.9973C1056.27 73.9973 1057.68 74.1741 1059.27 74.5277C1060.86 74.8814 1061.65 75.7655 1061.65 77.18C1061.65 78.7713 1061.3 80.009 1060.59 80.8931C1059.89 81.6004 1058.65 82.3076 1056.89 83.0149C1053.54 84.2526 1050.54 86.286 1047.89 89.115C1045.25 91.7673 1043.13 95.1268 1041.54 99.1935L1003.97 192.552C1003.27 194.143 1001.68 194.939 999.211 194.939C997.095 194.939 995.596 194.143 994.714 192.552L960.32 114.842C960.32 114.665 960.143 114.576 959.791 114.576C959.438 114.576 959.262 114.665 959.262 114.842L927.778 192.552C926.896 194.497 925.22 195.47 922.751 195.47Z" fill="var(--fill-0, #131111)"/>
<path d="M1145.25 192.022C1144.72 192.022 1143.92 191.403 1142.87 190.165C1141.81 188.927 1141.28 187.955 1141.28 187.248C1141.81 184.242 1142.16 181.678 1142.34 179.556C1142.51 177.258 1142.69 175.224 1142.87 173.456V171.865C1138.99 177.7 1133.87 182.297 1127.52 185.656C1121.17 189.016 1114.56 190.696 1107.68 190.696C1097.98 190.696 1089.25 188.309 1081.49 183.535C1073.73 178.584 1067.55 171.865 1062.97 163.378C1058.38 154.89 1056.09 145.431 1056.09 134.999C1056.09 122.622 1058.82 111.747 1064.29 102.376C1069.76 92.8281 1077.34 85.4019 1087.04 80.0974C1096.74 74.793 1107.85 72.1407 1120.38 72.1407C1122.85 72.1407 1125.4 72.3176 1128.05 72.6712C1130.87 73.0248 1133.52 73.5553 1135.99 74.2625C1138.63 74.793 1139.78 75.0582 1139.43 75.0582C1140.13 75.0582 1140.49 74.0857 1140.49 72.1407V42.1705C1140.49 35.982 1139.78 31.4732 1138.37 28.6441C1136.96 25.6383 1134.4 23.7817 1130.7 23.0744C1128.58 22.544 1127.52 21.1295 1127.52 18.8309C1127.52 16.5323 1128.49 15.2061 1130.43 14.8525C1136.78 13.438 1143.66 11.5814 1151.07 9.28282C1158.65 6.98422 1164.91 4.77402 1169.85 2.65223C1172.5 1.41453 1174.26 0.707269 1175.14 0.530456C1176.03 0.176819 1176.55 0 1176.73 0C1178.85 0 1179.91 1.1493 1179.91 3.44791C1179.91 2.56383 1179.82 3.00587 1179.64 4.77402C1179.46 6.36536 1179.29 8.48715 1179.11 11.1394C1178.94 13.6148 1178.76 15.825 1178.58 17.77L1177 154.625C1177 160.637 1177.44 164.969 1178.32 167.621C1179.2 170.097 1180.79 171.334 1183.08 171.334C1183.96 171.334 1184.76 171.334 1185.46 171.334C1186.34 171.157 1188.99 170.892 1193.4 170.539C1195.69 170.362 1196.84 171.334 1196.84 173.456C1196.84 174.871 1196.22 176.462 1194.99 178.23C1193.93 179.821 1192.96 180.617 1192.08 180.617C1185.37 181.324 1178.32 182.562 1170.91 184.33C1163.5 185.922 1156.54 187.955 1150.01 190.43C1148.95 190.961 1147.98 191.314 1147.1 191.491C1146.39 191.845 1145.78 192.022 1145.25 192.022ZM1122.23 171.599C1124.35 171.599 1127.34 171.069 1131.23 170.008C1135.11 168.77 1138.19 167.002 1140.49 164.704L1140.22 103.437C1140.22 100.785 1139.07 98.0442 1136.78 95.2152C1134.49 92.3861 1131.67 89.9991 1128.31 88.0541C1124.96 86.1092 1121.79 85.1367 1118.79 85.1367C1114.56 85.1367 1110.77 86.9932 1107.41 90.7064C1104.24 94.2427 1101.68 99.1935 1099.74 105.559C1097.8 111.924 1096.83 119.262 1096.83 127.572C1096.83 134.115 1097.45 140.126 1098.68 145.608C1099.92 150.912 1101.68 155.509 1103.97 159.399C1106.27 163.289 1108.91 166.295 1111.91 168.417C1115.09 170.539 1118.53 171.599 1122.23 171.599Z" fill="var(--fill-0, #131111)"/>
<path d="M1281.22 192.022C1280.69 192.022 1279.9 191.403 1278.84 190.165C1277.78 188.927 1277.25 187.955 1277.25 187.248C1277.78 184.242 1278.13 181.678 1278.31 179.556C1278.49 177.258 1278.66 175.224 1278.84 173.456V171.865C1274.96 177.7 1269.84 182.297 1263.5 185.656C1257.15 189.016 1250.53 190.696 1243.65 190.696C1233.95 190.696 1225.22 188.309 1217.46 183.535C1209.7 178.584 1203.53 171.865 1198.94 163.378C1194.35 154.89 1192.06 145.431 1192.06 134.999C1192.06 122.622 1194.8 111.747 1200.26 102.376C1205.73 92.8281 1213.32 85.4019 1223.02 80.0974C1232.72 74.793 1243.83 72.1407 1256.35 72.1407C1258.82 72.1407 1261.38 72.3176 1264.02 72.6712C1266.85 73.0248 1269.49 73.5553 1271.96 74.2625C1274.61 74.793 1275.75 75.0582 1275.4 75.0582C1276.11 75.0582 1276.46 74.0857 1276.46 72.1407V42.1705C1276.46 35.982 1275.75 31.4732 1274.34 28.6441C1272.93 25.6383 1270.37 23.7817 1266.67 23.0744C1264.55 22.544 1263.5 21.1295 1263.5 18.8309C1263.5 16.5323 1264.47 15.2061 1266.41 14.8525C1272.76 13.438 1279.63 11.5814 1287.04 9.28282C1294.63 6.98422 1300.89 4.77402 1305.83 2.65223C1308.47 1.41453 1310.24 0.707269 1311.12 0.530456C1312 0.176819 1312.53 0 1312.7 0C1314.82 0 1315.88 1.1493 1315.88 3.44791C1315.88 2.56383 1315.79 3.00587 1315.62 4.77402C1315.44 6.36536 1315.26 8.48715 1315.09 11.1394C1314.91 13.6148 1314.73 15.825 1314.56 17.77L1312.97 154.625C1312.97 160.637 1313.41 164.969 1314.29 167.621C1315.17 170.097 1316.76 171.334 1319.05 171.334C1319.94 171.334 1320.73 171.334 1321.44 171.334C1322.32 171.157 1324.96 170.892 1329.37 170.539C1331.67 170.362 1332.81 171.334 1332.81 173.456C1332.81 174.871 1332.19 176.462 1330.96 178.23C1329.9 179.821 1328.93 180.617 1328.05 180.617C1321.35 181.324 1314.29 182.562 1306.88 184.33C1299.48 185.922 1292.51 187.955 1285.98 190.43C1284.93 190.961 1283.96 191.314 1283.07 191.491C1282.37 191.845 1281.75 192.022 1281.22 192.022ZM1258.2 171.599C1260.32 171.599 1263.32 171.069 1267.2 170.008C1271.08 168.77 1274.17 167.002 1276.46 164.704L1276.19 103.437C1276.19 100.785 1275.05 98.0442 1272.76 95.2152C1270.46 92.3861 1267.64 89.9991 1264.29 88.0541C1260.94 86.1092 1257.76 85.1367 1254.76 85.1367C1250.53 85.1367 1246.74 86.9932 1243.39 90.7064C1240.21 94.2427 1237.66 99.1935 1235.72 105.559C1233.78 111.924 1232.81 119.262 1232.81 127.572C1232.81 134.115 1233.42 140.126 1234.66 145.608C1235.89 150.912 1237.66 155.509 1239.95 159.399C1242.24 163.289 1244.89 166.295 1247.89 168.417C1251.06 170.539 1254.5 171.599 1258.2 171.599Z" fill="var(--fill-0, #131111)"/>
<path d="M1360.45 196C1354.28 196 1348.9 193.701 1344.31 189.104C1339.91 184.684 1337.7 179.379 1337.7 173.191C1337.7 166.472 1339.91 160.902 1344.31 156.482C1348.9 151.885 1354.28 149.586 1360.45 149.586C1367.16 149.586 1372.71 151.885 1377.12 156.482C1381.71 160.902 1384 166.472 1384 173.191C1384 179.379 1381.71 184.684 1377.12 189.104C1372.71 193.701 1367.16 196 1360.45 196Z" fill="var(--fill-0, #131111)"/>
</g>
</svg>
