<svg preserveAspectRatio="none" width="100%" height="100%" overflow="visible" style="display: block;" viewBox="0 0 904 128" fill="none" xmlns="http://www.w3.org/2000/svg">
<g id="smallcrowdd.">
<path d="M24.4009 124.536C20.4838 124.536 16.682 124.074 12.9954 123.15C9.42395 122.342 6.08294 120.899 2.97235 118.82C1.82027 116.972 1.01382 114.143 0.552995 110.333C0.0921658 106.407 -0.0806451 102.192 0.0345622 97.6888C0.0345622 96.1876 1.24424 95.4371 3.66359 95.4371C4.70046 95.4371 5.56451 95.7835 6.25575 96.4763C7.0622 97.1692 7.58064 97.8042 7.81105 98.3816C10.1152 103 12.6498 107.157 15.4147 110.853C18.1797 114.432 21.6935 116.222 25.9562 116.222C28.9516 116.222 31.1405 115.298 32.523 113.451C34.0207 111.603 34.7695 109.582 34.7695 107.388C34.7695 104.386 33.5599 101.903 31.1405 99.9405C28.7212 97.9775 26.0714 96.3031 23.1912 94.9175C19.9654 93.3009 16.7972 91.4533 13.6866 89.3748C10.576 87.1809 7.98386 84.4673 5.91013 81.2341C3.8364 78.0009 2.79954 74.0749 2.79954 69.456C2.79954 64.7217 4.06682 60.6802 6.60137 57.3315C9.25114 53.8674 12.765 51.2115 17.1428 49.364C21.5207 47.401 26.3018 46.4195 31.4861 46.4195C35.4032 46.4195 39.0322 46.8814 42.3732 47.8051C45.8294 48.6134 48.1912 49.4217 49.4585 50.23C50.3801 51.3848 51.0714 53.6364 51.5322 56.9851C52.1082 60.2183 52.3962 63.9134 52.3962 68.0704C52.3962 69.3405 51.2442 69.9756 48.94 69.9756C48.1336 69.9756 47.2695 69.687 46.3479 69.1096C45.4262 68.4168 44.8502 67.7817 44.6198 67.2043C43.1221 62.5855 41.1635 59.1213 38.7442 56.8119C36.44 54.5025 33.9055 53.3478 31.1405 53.3478C28.606 53.3478 26.3018 54.1561 24.2281 55.7727C22.2696 57.3893 21.2903 59.5255 21.2903 62.1813C21.2903 64.4908 22.4424 66.627 24.7465 68.59C27.1659 70.4375 29.9308 72.1696 33.0414 73.7862C40.6451 77.7122 46.0598 81.5228 49.2857 85.2179C52.5115 88.9129 54.1244 93.8782 54.1244 100.114C54.1244 107.85 51.6474 113.855 46.6935 118.127C41.7396 122.4 34.3087 124.536 24.4009 124.536Z" fill="var(--fill-0, #FEF3D9)"/>
<path d="M60.3739 122.631C59.6827 122.631 58.9338 122.4 58.1274 121.938C57.3209 121.476 56.9177 120.841 56.9177 120.032C56.9177 119.109 57.3209 118.358 58.1274 117.781C59.049 117.203 59.9707 116.742 60.8923 116.395C62.6204 115.818 64.1181 115.183 65.3854 114.49C66.6527 113.682 67.2863 112.123 67.2863 109.813V69.6292C67.2863 67.3198 66.9407 65.3568 66.2495 63.7402C65.5582 62.0081 64.2333 60.9689 62.2748 60.6225C61.814 60.507 61.3532 60.2183 60.8923 59.7564C60.4315 59.2945 60.2011 58.4862 60.2011 57.3315C60.2011 55.5995 60.8347 54.5602 62.102 54.2138C64.867 53.521 67.9776 52.7127 71.4338 51.7889C74.89 50.7497 78.231 49.6527 81.4568 48.498C84.7978 47.3433 87.5628 46.1885 89.7517 45.0338C90.2126 44.8029 90.6158 44.5719 90.9614 44.341C91.307 44.1101 91.6527 43.9946 91.9983 43.9946C93.1504 43.9946 93.7264 44.6874 93.7264 46.0731C93.7264 46.9968 93.5536 48.5557 93.208 50.7497C92.9775 52.8281 92.8623 54.6757 92.8623 56.2923C92.8623 57.447 92.9775 58.1398 93.208 58.3708H93.5536C97.2402 54.6757 101.157 51.7889 105.305 49.7104C109.452 47.6319 114.003 46.5927 118.957 46.5927C122.413 46.5927 125.639 47.9206 128.634 50.5765C131.745 53.2323 133.991 56.4655 135.374 60.276H136.238C139.579 55.8881 143.381 52.5395 147.643 50.23C151.906 47.8051 156.687 46.5927 161.987 46.5927C165.558 46.5927 168.784 47.5742 171.664 49.5372C174.659 51.5002 177.021 54.3293 178.749 58.0244C180.593 61.7194 181.514 66.2228 181.514 71.5345V109.986C181.514 112.296 182.148 113.797 183.415 114.49C184.682 115.183 186.18 115.818 187.908 116.395C188.83 116.742 189.636 117.203 190.328 117.781C191.019 118.358 191.365 119.109 191.365 120.032C191.365 120.841 191.019 121.476 190.328 121.938C189.752 122.4 189.118 122.631 188.427 122.631C186.123 122.631 183.876 122.515 181.687 122.284C179.498 122.169 177.367 122.053 175.293 121.938C173.219 121.822 171.146 121.765 169.072 121.765C167.113 121.765 165.212 121.822 163.369 121.938C161.641 122.053 159.855 122.169 158.012 122.284C156.169 122.515 154.095 122.631 151.791 122.631C151.1 122.631 150.466 122.4 149.89 121.938C149.314 121.476 149.026 120.841 149.026 120.032C149.026 119.109 149.314 118.358 149.89 117.781C150.581 117.203 151.388 116.742 152.309 116.395C153.807 115.933 154.844 115.356 155.42 114.663C156.111 113.97 156.457 112.816 156.457 111.199V75.8647C156.457 72.9779 156.111 70.553 155.42 68.59C154.729 66.5115 153.692 64.9526 152.309 63.9134C151.042 62.7587 149.544 62.1813 147.816 62.1813C146.664 62.1813 145.282 62.5277 143.669 63.2206C142.056 63.7979 140.443 64.7794 138.83 66.1651C137.563 67.3198 136.929 69.3406 136.929 72.2273V109.986C136.929 112.296 137.275 113.797 137.966 114.49C138.657 115.183 139.867 115.818 141.595 116.395C142.517 116.742 143.323 117.203 144.014 117.781C144.706 118.358 145.051 119.109 145.051 120.032C145.051 120.841 144.706 121.476 144.014 121.938C143.438 122.4 142.805 122.631 142.113 122.631C139.809 122.631 137.678 122.515 135.719 122.284C133.876 122.169 132.033 122.053 130.189 121.938C128.461 121.822 126.56 121.765 124.487 121.765C122.528 121.765 120.627 121.822 118.784 121.938C117.056 122.053 115.27 122.169 113.427 122.284C111.584 122.515 109.51 122.631 107.206 122.631C106.514 122.631 105.881 122.4 105.305 121.938C104.729 121.476 104.441 120.841 104.441 120.032C104.441 119.109 104.729 118.358 105.305 117.781C105.996 117.203 106.802 116.742 107.724 116.395C109.222 115.933 110.259 115.356 110.835 114.663C111.526 113.97 111.872 112.816 111.872 111.199V75.8647C111.872 72.9779 111.526 70.553 110.835 68.59C110.143 66.627 109.164 65.1258 107.897 64.0866C106.63 62.9319 105.132 62.3545 103.404 62.3545C102.252 62.3545 100.869 62.6432 99.2563 63.2206C97.6434 63.7979 95.9153 64.7217 94.072 65.9919C92.9199 66.8002 92.3439 68.6477 92.3439 71.5345V109.986C92.3439 111.949 92.5743 113.393 93.0351 114.317C93.6112 115.125 94.7633 115.818 96.4914 116.395C97.413 116.742 98.1619 117.203 98.7379 117.781C99.4291 118.358 99.7748 119.109 99.7748 120.032C99.7748 120.725 99.4867 121.36 98.9107 121.938C98.3347 122.4 97.701 122.631 97.0098 122.631C94.7056 122.631 92.5743 122.515 90.6158 122.284C88.7725 122.169 86.9868 122.053 85.2587 121.938C83.5306 121.822 81.6296 121.765 79.5559 121.765C77.5974 121.765 75.5813 121.822 73.5075 121.938C71.4338 122.053 69.3025 122.169 67.1135 122.284C64.9246 122.515 62.678 122.631 60.3739 122.631Z" fill="var(--fill-0, #FEF3D9)"/>
<path d="M211.666 124.536C208.325 124.536 205.272 123.785 202.507 122.284C199.742 120.899 197.553 118.993 195.94 116.568C194.327 114.028 193.521 111.257 193.521 108.254C193.521 104.213 194.788 100.807 197.322 98.0352C199.972 95.2639 203.774 92.7812 208.728 90.5873L223.59 84.0054C225.894 82.9662 227.334 82.0424 227.91 81.2341C228.486 80.3103 228.774 78.7515 228.774 76.5575L228.947 67.0311C229.062 63.6825 228.544 61.1421 227.392 59.41C226.239 57.5625 224.454 56.6387 222.034 56.6387C220.652 56.6387 219.212 56.9851 217.714 57.6779C216.216 58.2553 215.122 58.9481 214.431 59.7564C214.085 60.2183 213.855 60.7379 213.739 61.3153C213.624 61.8926 213.567 62.47 213.567 63.0474C213.567 63.7402 213.624 64.664 213.739 65.8187C213.855 66.8579 213.912 67.724 213.912 68.4168C213.912 69.2251 212.933 70.2066 210.974 71.3613C209.016 72.4005 206.769 73.3821 204.235 74.3058C201.7 75.1141 199.511 75.5183 197.668 75.5183C196.746 75.5183 195.94 75.1719 195.249 74.479C194.673 73.6707 194.385 72.6892 194.385 71.5345C194.385 69.687 195.018 67.8972 196.286 66.1651C197.553 64.433 199.684 62.3545 202.68 59.9296C205.79 57.3893 209.189 55.1376 212.875 53.1746C216.562 51.2115 220.191 49.6527 223.762 48.498C227.334 47.2278 230.387 46.5927 232.921 46.5927C239.488 46.5927 244.73 48.7289 248.647 53.0014C252.564 57.1583 254.408 62.7587 254.177 69.8024L253.313 103.405C253.198 106.06 253.601 108.37 254.523 110.333C255.56 112.18 256.827 113.104 258.325 113.104C260.398 113.104 262.242 112.354 263.855 110.853C264.2 110.506 264.546 110.333 264.891 110.333C265.468 110.333 265.928 110.564 266.274 111.026C266.735 111.372 266.965 111.834 266.965 112.411C266.965 113.797 265.813 115.645 263.509 117.954C261.32 120.148 258.958 121.765 256.424 122.804C253.889 123.959 251.239 124.536 248.474 124.536C241.792 124.536 236.205 121.187 231.712 114.49H231.366C227.564 118.069 224.166 120.61 221.17 122.111C218.175 123.728 215.007 124.536 211.666 124.536ZM222.38 112.585C223.417 112.585 224.281 112.411 224.972 112.065C225.663 111.719 226.297 111.141 226.873 110.333C227.219 109.871 227.449 109.294 227.564 108.601C227.795 107.908 227.91 107.157 227.91 106.349L228.428 93.0122C228.428 91.9729 228.256 91.3378 227.91 91.1069C227.564 90.7605 227.161 90.5873 226.7 90.5873C226.47 90.5873 226.182 90.645 225.836 90.7605C225.606 90.7605 225.318 90.876 224.972 91.1069C222.207 92.608 220.076 94.1669 218.578 95.7835C217.196 97.2846 216.504 100.056 216.504 104.097C216.504 107.446 217.138 109.698 218.405 110.853C219.788 112.007 221.113 112.585 222.38 112.585Z" fill="var(--fill-0, #FEF3D9)"/>
<path d="M267.011 122.631C265.859 122.631 264.995 122.4 264.419 121.938C263.843 121.476 263.555 120.841 263.555 120.032C263.555 119.109 263.901 118.416 264.592 117.954C265.283 117.377 266.262 116.857 267.53 116.395C269.258 115.818 270.755 115.24 272.023 114.663C273.29 113.97 273.924 112.354 273.924 109.813V27.5399C273.924 24.4222 273.52 21.7086 272.714 19.3992C272.023 17.0898 270.237 15.6464 267.357 15.069C266.089 14.8381 265.456 13.9143 265.456 12.2977C265.456 10.7966 266.032 9.93054 267.184 9.69959C270.064 9.12224 273.347 8.2562 277.034 7.10149C280.836 5.83131 284.407 4.56112 287.748 3.29093C291.205 2.02075 293.797 1.09698 295.525 0.519625C296.562 0.173208 297.368 0 297.944 0C298.751 0 299.269 0.230943 299.5 0.69283C299.73 1.15472 299.845 1.67434 299.845 2.25169C299.845 3.05999 299.73 4.44564 299.5 6.40866C299.269 8.25621 299.096 9.98828 298.981 11.6049V109.467C298.981 112.007 299.615 113.624 300.882 114.317C302.149 114.894 303.647 115.471 305.375 116.049C306.642 116.511 307.622 117.03 308.313 117.608C309.004 118.069 309.35 118.762 309.35 119.686C309.35 120.494 309.062 121.129 308.486 121.591C307.91 122.053 307.046 122.284 305.894 122.284C303.589 122.284 301.285 122.226 298.981 122.111C296.677 121.995 294.43 121.938 292.241 121.938C290.053 121.822 287.921 121.765 285.847 121.765C283.889 121.765 281.873 121.822 279.799 121.938C277.841 122.053 275.767 122.169 273.578 122.284C271.504 122.515 269.315 122.631 267.011 122.631Z" fill="var(--fill-0, #FEF3D9)"/>
<path d="M312.792 122.631C311.64 122.631 310.776 122.4 310.2 121.938C309.624 121.476 309.336 120.841 309.336 120.032C309.336 119.109 309.682 118.416 310.373 117.954C311.064 117.377 312.044 116.857 313.311 116.395C315.039 115.818 316.537 115.24 317.804 114.663C319.071 113.97 319.705 112.354 319.705 109.813V27.5399C319.705 24.4222 319.302 21.7086 318.495 19.3992C317.804 17.0898 316.018 15.6464 313.138 15.069C311.871 14.8381 311.237 13.9143 311.237 12.2977C311.237 10.7966 311.813 9.93054 312.965 9.69959C315.845 9.12224 319.129 8.2562 322.815 7.10149C326.617 5.83131 330.189 4.56112 333.53 3.29093C336.986 2.02075 339.578 1.09698 341.306 0.519625C342.343 0.173208 343.15 0 343.726 0C344.532 0 345.05 0.230943 345.281 0.69283C345.511 1.15472 345.627 1.67434 345.627 2.25169C345.627 3.05999 345.511 4.44564 345.281 6.40866C345.05 8.25621 344.878 9.98828 344.762 11.6049V109.467C344.762 112.007 345.396 113.624 346.663 114.317C347.931 114.894 349.428 115.471 351.156 116.049C352.424 116.511 353.403 117.03 354.094 117.608C354.786 118.069 355.131 118.762 355.131 119.686C355.131 120.494 354.843 121.129 354.267 121.591C353.691 122.053 352.827 122.284 351.675 122.284C349.371 122.284 347.067 122.226 344.762 122.111C342.458 121.995 340.212 121.938 338.023 121.938C335.834 121.822 333.703 121.765 331.629 121.765C329.67 121.765 327.654 121.822 325.58 121.938C323.622 122.053 321.548 122.169 319.359 122.284C317.286 122.515 315.097 122.631 312.792 122.631Z" fill="var(--fill-0, #FEF3D9)"/>
<path d="M385.613 124.536C379.392 124.536 373.805 122.862 368.851 119.513C363.897 116.164 359.98 111.661 357.1 106.003C354.219 100.229 352.779 93.7627 352.779 86.6035C352.779 79.0979 354.507 72.3428 357.964 66.3383C361.535 60.3338 366.259 55.5417 372.134 51.9621C378.01 48.3825 384.576 46.5927 391.835 46.5927C401.742 46.5927 409.864 49.9414 416.201 56.6387C417.123 57.7934 417.583 58.8327 417.583 59.7564C417.583 60.4493 417.065 61.4885 416.028 62.8742C414.991 64.1443 413.782 65.3568 412.399 66.5115C411.132 67.5507 410.037 68.0704 409.116 68.0704C407.964 68.0704 406.869 67.724 405.832 67.0311C404.795 66.3383 403.816 65.5877 402.894 64.7794C399.784 62.1236 396.673 60.0451 393.563 58.544C390.567 56.9274 387.917 56.1191 385.613 56.1191C381.581 56.1191 378.586 57.7934 376.627 61.1421C374.669 64.3753 373.689 70.0911 373.689 78.2896C373.689 83.9477 374.496 88.7975 376.109 92.839C377.722 96.8805 380.141 99.9982 383.367 102.192C386.593 104.271 390.567 105.31 395.291 105.31C398.747 105.31 401.742 104.733 404.277 103.578C406.927 102.423 409.634 100.806 412.399 98.728C412.975 98.2661 413.493 97.862 413.954 97.5156C414.415 97.1692 414.934 96.9959 415.51 96.9959C416.892 96.9959 417.583 97.9197 417.583 99.7673C417.583 100.229 417.526 100.864 417.411 101.673C417.295 102.481 417.007 103.405 416.547 104.444C415.625 106.753 413.666 109.525 410.671 112.758C407.676 115.876 404.047 118.647 399.784 121.072C395.521 123.381 390.798 124.536 385.613 124.536Z" fill="var(--fill-0, #FEF3D9)"/>
<path d="M422.095 122.631C421.289 122.631 420.482 122.4 419.676 121.938C418.985 121.476 418.639 120.841 418.639 120.032C418.639 119.109 418.985 118.358 419.676 117.781C420.482 117.203 421.462 116.742 422.614 116.395C425.264 115.587 426.992 114.779 427.798 113.97C428.605 113.046 429.008 111.661 429.008 109.813V69.456C429.008 67.1466 428.72 65.2991 428.144 63.9134C427.568 62.5277 426.3 61.5462 424.342 60.9689C423.766 60.7379 423.19 60.4493 422.614 60.1028C422.153 59.641 421.923 58.8327 421.923 57.6779C421.923 55.9459 422.671 54.9066 424.169 54.5602C427.971 53.6364 432.176 52.4817 436.784 51.0961C441.508 49.595 445.598 48.0361 449.054 46.4195C449.63 46.0731 450.379 45.6689 451.3 45.207C452.222 44.7452 452.913 44.5142 453.374 44.5142C454.526 44.5142 455.102 45.207 455.102 46.5927C455.102 47.1701 455.045 48.3825 454.929 50.23C454.929 52.0776 454.872 53.9829 454.757 55.9459C454.641 57.7934 454.584 59.2945 454.584 60.4493C454.584 61.604 454.814 62.1813 455.275 62.1813C457.003 59.7564 459.019 57.3315 461.323 54.9066C463.743 52.4817 466.335 50.461 469.1 48.8444C471.98 47.2278 474.86 46.4195 477.74 46.4195C482.003 46.4195 484.998 47.2278 486.727 48.8444C488.455 50.461 489.319 52.5395 489.319 55.0798C489.319 56.9274 488.8 59.0059 487.763 61.3153C486.727 63.5092 485.402 65.4145 483.789 67.0311C482.176 68.6477 480.448 69.456 478.604 69.456C477.452 69.456 476.243 69.1673 474.975 68.59C473.823 68.0126 472.614 67.4353 471.346 66.8579C470.194 66.2806 469.042 65.7609 467.89 65.2991C466.738 64.7217 465.701 64.433 464.78 64.433C461.784 64.433 459.25 65.5877 457.176 67.8972C455.102 70.0911 454.065 74.5368 454.065 81.2341V107.908C454.065 110.448 454.757 112.296 456.139 113.451C457.522 114.605 459.826 115.645 463.052 116.568C464.319 116.915 465.24 117.377 465.816 117.954C466.508 118.416 466.853 119.109 466.853 120.032C466.853 121.765 465.932 122.631 464.088 122.631C460.632 122.631 456.83 122.457 452.683 122.111C448.535 121.88 444.964 121.765 441.969 121.765C440.01 121.765 437.936 121.822 435.747 121.938C433.558 122.053 431.312 122.169 429.008 122.284C426.704 122.515 424.399 122.631 422.095 122.631Z" fill="var(--fill-0, #FEF3D9)"/>
<path d="M523.188 124.536C516.161 124.536 509.824 122.977 504.179 119.859C498.534 116.742 494.041 112.411 490.7 106.869C487.359 101.326 485.688 95.0329 485.688 87.9892C485.688 82.3311 486.725 77.0194 488.799 72.0541C490.988 66.9734 493.926 62.5277 497.612 58.7172C501.414 54.9066 505.792 51.9044 510.746 49.7104C515.815 47.5165 521.23 46.4195 526.99 46.4195C534.248 46.4195 540.757 48.0938 546.518 51.4425C552.393 54.7912 557.059 59.2368 560.515 64.7794C563.972 70.3221 565.7 76.3843 565.7 82.9662C565.7 90.4718 564.087 97.4001 560.861 103.751C557.751 110.102 553.027 115.183 546.691 118.993C540.469 122.688 532.635 124.536 523.188 124.536ZM526.472 116.395C528.545 116.395 530.331 115.991 531.829 115.183C533.327 114.259 534.594 112.989 535.631 111.372C537.013 109.063 537.992 105.887 538.568 101.846C539.145 97.8042 539.433 92.8967 539.433 87.1231C539.433 80.6567 538.799 74.9986 537.532 70.1489C536.264 65.2991 534.479 61.4885 532.174 58.7172C529.986 55.9459 527.393 54.5602 524.398 54.5602C522.9 54.5602 521.518 54.8489 520.251 55.4263C518.983 55.8881 517.889 56.581 516.967 57.5047C515.009 59.5832 513.626 62.8164 512.82 67.2043C512.128 71.4768 511.783 76.9617 511.783 83.659C511.783 89.0862 512.416 94.3401 513.684 99.4208C514.951 104.386 516.679 108.485 518.868 111.719C521.172 114.836 523.707 116.395 526.472 116.395Z" fill="var(--fill-0, #FEF3D9)"/>
<path d="M602.722 127.654C602.146 127.654 601.512 127.48 600.821 127.134C600.245 126.903 599.842 126.441 599.611 125.748L574.381 64.2598C573.344 61.604 572.134 59.41 570.752 57.6779C569.485 55.8304 567.756 54.5025 565.567 53.6942C564.415 53.2323 563.609 52.7704 563.148 52.3085C562.687 51.7312 562.457 50.9229 562.457 49.8836C562.457 48.9599 562.975 48.3825 564.012 48.1516C565.049 47.9206 565.971 47.8051 566.777 47.8051C569.657 47.8051 571.904 47.9206 573.517 48.1516C575.245 48.267 576.858 48.4402 578.355 48.6712C579.968 48.7867 582.042 48.8444 584.577 48.8444C587.111 48.8444 589.185 48.7867 590.798 48.6712C592.526 48.4402 594.254 48.267 595.982 48.1516C597.825 47.9206 600.13 47.8051 602.895 47.8051C603.701 47.8051 604.565 47.9784 605.487 48.3248C606.524 48.6712 607.042 49.3063 607.042 50.23C607.042 51.2693 606.639 51.9621 605.832 52.3085C605.026 52.6549 604.162 53.0591 603.24 53.521C601.973 53.9829 601.051 54.7334 600.475 55.7727C599.899 56.6964 599.611 58.1976 599.611 60.276C599.611 62.47 600.014 64.664 600.821 66.8579L610.153 92.1461C610.153 92.2616 610.268 92.3194 610.498 92.3194C610.729 92.3194 610.844 92.2616 610.844 92.1461L622.249 65.1258C622.48 64.5485 622.653 63.9134 622.768 63.2206C622.998 62.4123 623.113 61.604 623.113 60.7957C623.113 59.7564 622.537 58.544 621.385 57.1583C620.348 55.7727 618.851 54.6757 616.892 53.8674C615.74 53.4055 614.934 52.9436 614.473 52.4817C614.012 51.9044 613.782 51.0961 613.782 50.0568C613.782 49.1331 614.3 48.5557 615.337 48.3248C616.489 48.0938 617.583 47.9783 618.62 47.9783C621.731 47.9783 624.726 48.0938 627.607 48.3248C630.602 48.5557 632.848 48.6712 634.346 48.6712C637.342 48.6712 640.164 48.5557 642.814 48.3248C645.464 48.0938 648.574 47.9783 652.146 47.9783C652.952 47.9783 653.816 48.1516 654.738 48.498C655.775 48.8444 656.293 49.4795 656.293 50.4032C656.293 51.4425 655.89 52.1353 655.083 52.4817C654.277 52.8281 653.413 53.2323 652.491 53.6942C651.224 54.1561 650.245 54.7912 649.554 55.5995C648.862 56.4078 648.517 57.6202 648.517 59.2368C648.517 60.7379 648.689 62.1813 649.035 63.567C649.381 64.8372 649.726 65.9341 650.072 66.8579L659.749 92.4926C659.749 92.608 659.865 92.6658 660.095 92.6658C660.325 92.6658 660.441 92.608 660.441 92.4926L669.254 68.9364C669.715 67.6662 670.06 66.4538 670.291 65.2991C670.521 64.0289 670.579 62.8164 670.464 61.6617C670.464 59.9296 670.06 58.3708 669.254 56.9851C668.448 55.5995 667.238 54.618 665.625 54.0406C664.703 53.6942 663.839 53.3478 663.033 53.0014C662.226 52.5395 661.823 51.7889 661.823 50.7497C661.823 49.8259 662.284 49.1908 663.206 48.8444C664.242 48.498 665.164 48.3248 665.971 48.3248C669.427 48.4402 671.846 48.5557 673.229 48.6712C674.726 48.6712 676.224 48.6712 677.722 48.6712C678.643 48.6712 679.507 48.6712 680.314 48.6712C681.236 48.6712 682.388 48.6712 683.77 48.6712C685.153 48.5557 686.938 48.4402 689.127 48.3248C689.934 48.3248 690.855 48.4402 691.892 48.6712C692.929 48.9021 693.447 49.4795 693.447 50.4032C693.447 51.4425 693.217 52.2508 692.756 52.8282C692.295 53.29 691.489 53.7519 690.337 54.2138C688.148 55.0221 686.189 56.35 684.461 58.1976C682.733 59.9296 681.351 62.1236 680.314 64.7794L655.775 125.748C655.314 126.788 654.277 127.307 652.664 127.307C651.282 127.307 650.302 126.788 649.726 125.748L627.261 74.9986C627.261 74.8832 627.146 74.8254 626.915 74.8254C626.685 74.8254 626.57 74.8832 626.57 74.9986L606.005 125.748C605.429 127.018 604.335 127.654 602.722 127.654Z" fill="var(--fill-0, #FEF3D9)"/>
<path d="M748.052 125.402C747.706 125.402 747.188 124.998 746.496 124.189C745.805 123.381 745.459 122.746 745.459 122.284C745.805 120.321 746.036 118.647 746.151 117.261C746.266 115.76 746.381 114.432 746.496 113.277V112.238C743.962 116.049 740.621 119.051 736.473 121.245C732.326 123.439 728.006 124.536 723.513 124.536C717.176 124.536 711.473 122.977 706.404 119.859C701.335 116.626 697.303 112.238 694.307 106.696C691.312 101.153 689.814 94.9752 689.814 88.1624C689.814 80.0794 691.6 72.9779 695.172 66.8579C698.743 60.6225 703.697 55.7727 710.033 52.3085C716.37 48.8444 723.628 47.1123 731.807 47.1123C733.42 47.1123 735.091 47.2278 736.819 47.4587C738.662 47.6897 740.39 48.0361 742.003 48.498C743.731 48.8444 744.48 49.0176 744.25 49.0176C744.711 49.0176 744.941 48.3825 744.941 47.1123V27.5399C744.941 23.4984 744.48 20.5539 743.559 18.7064C742.637 16.7434 740.966 15.5309 738.547 15.069C737.165 14.7226 736.473 13.7988 736.473 12.2977C736.473 10.7966 737.107 9.93054 738.374 9.69959C742.522 8.77583 747.015 7.56338 751.854 6.06225C756.807 4.56112 760.897 3.11773 764.123 1.73207C765.851 0.923773 767.003 0.46189 767.579 0.34642C768.155 0.115473 768.501 0 768.616 0C769.999 0 770.69 0.750564 770.69 2.25169C770.69 1.67434 770.632 1.96302 770.517 3.11773C770.402 4.15697 770.287 5.54263 770.171 7.27469C770.056 8.89129 769.941 10.3347 769.826 11.6049L768.789 100.98C768.789 104.906 769.077 107.735 769.653 109.467C770.229 111.083 771.266 111.892 772.764 111.892C773.34 111.892 773.858 111.892 774.319 111.892C774.895 111.776 776.623 111.603 779.503 111.372C781.001 111.257 781.75 111.892 781.75 113.277C781.75 114.201 781.347 115.24 780.54 116.395C779.849 117.434 779.215 117.954 778.639 117.954C774.261 118.416 769.653 119.224 764.814 120.379C759.976 121.418 755.425 122.746 751.162 124.363C750.471 124.709 749.837 124.94 749.261 125.055C748.801 125.286 748.397 125.402 748.052 125.402ZM733.017 112.065C734.4 112.065 736.358 111.719 738.893 111.026C741.427 110.217 743.443 109.063 744.941 107.562L744.768 67.5507C744.768 65.8187 744.019 64.0289 742.522 62.1813C741.024 60.3338 739.181 58.7749 736.992 57.5047C734.803 56.2346 732.729 55.5995 730.771 55.5995C728.006 55.5995 725.529 56.8119 723.34 59.2368C721.266 61.5462 719.595 64.7794 718.328 68.9364C717.061 73.0934 716.427 77.8854 716.427 83.3126C716.427 87.585 716.83 91.5111 717.637 95.0907C718.443 98.5548 719.595 101.557 721.093 104.097C722.591 106.638 724.319 108.601 726.277 109.986C728.351 111.372 730.598 112.065 733.017 112.065Z" fill="var(--fill-0, #FEF3D9)"/>
<path d="M836.867 125.402C836.521 125.402 836.003 124.998 835.312 124.189C834.621 123.381 834.275 122.746 834.275 122.284C834.62 120.321 834.851 118.647 834.966 117.261C835.081 115.76 835.197 114.432 835.312 113.277V112.238C832.777 116.049 829.436 119.051 825.289 121.245C821.141 123.439 816.821 124.536 812.328 124.536C805.991 124.536 800.289 122.977 795.22 119.859C790.151 116.626 786.118 112.238 783.123 106.696C780.127 101.153 778.63 94.9752 778.63 88.1624C778.63 80.0794 780.415 72.9779 783.987 66.8579C787.558 60.6225 792.512 55.7727 798.849 52.3085C805.185 48.8444 812.443 47.1123 820.623 47.1123C822.236 47.1123 823.906 47.2278 825.634 47.4587C827.478 47.6897 829.206 48.0361 830.819 48.498C832.547 48.8444 833.296 49.0176 833.065 49.0176C833.526 49.0176 833.756 48.3825 833.756 47.1123V27.5399C833.756 23.4984 833.296 20.5539 832.374 18.7064C831.452 16.7434 829.782 15.5309 827.362 15.069C825.98 14.7226 825.289 13.7988 825.289 12.2977C825.289 10.7966 825.922 9.93054 827.19 9.69959C831.337 8.77583 835.83 7.56338 840.669 6.06225C845.623 4.56112 849.713 3.11773 852.938 1.73207C854.667 0.923773 855.819 0.46189 856.395 0.34642C856.971 0.115473 857.316 0 857.432 0C858.814 0 859.505 0.750564 859.505 2.25169C859.505 1.67434 859.448 1.96302 859.332 3.11773C859.217 4.15697 859.102 5.54263 858.987 7.27469C858.872 8.89129 858.756 10.3347 858.641 11.6049L857.604 100.98C857.604 104.906 857.892 107.735 858.468 109.467C859.044 111.083 860.081 111.892 861.579 111.892C862.155 111.892 862.673 111.892 863.134 111.892C863.71 111.776 865.438 111.603 868.319 111.372C869.816 111.257 870.565 111.892 870.565 113.277C870.565 114.201 870.162 115.24 869.355 116.395C868.664 117.434 868.031 117.954 867.455 117.954C863.077 118.416 858.468 119.224 853.63 120.379C848.791 121.418 844.24 122.746 839.978 124.363C839.286 124.709 838.653 124.94 838.077 125.055C837.616 125.286 837.213 125.402 836.867 125.402ZM821.832 112.065C823.215 112.065 825.174 111.719 827.708 111.026C830.243 110.217 832.259 109.063 833.756 107.562L833.584 67.5507C833.584 65.8187 832.835 64.0289 831.337 62.1813C829.839 60.3338 827.996 58.7749 825.807 57.5047C823.618 56.2346 821.544 55.5995 819.586 55.5995C816.821 55.5995 814.344 56.8119 812.155 59.2368C810.081 61.5462 808.411 64.7794 807.144 68.9364C805.876 73.0934 805.243 77.8854 805.243 83.3126C805.243 87.585 805.646 91.5111 806.452 95.0907C807.259 98.5548 808.411 101.557 809.909 104.097C811.406 106.638 813.134 108.601 815.093 109.986C817.167 111.372 819.413 112.065 821.832 112.065Z" fill="var(--fill-0, #FEF3D9)"/>
<path d="M888.62 128C884.587 128 881.074 126.499 878.078 123.497C875.198 120.61 873.758 117.146 873.758 113.104C873.758 108.716 875.198 105.079 878.078 102.192C881.074 99.1899 884.587 97.6888 888.62 97.6888C892.998 97.6888 896.627 99.1899 899.507 102.192C902.502 105.079 904 108.716 904 113.104C904 117.146 902.502 120.61 899.507 123.497C896.627 126.499 892.998 128 888.62 128Z" fill="var(--fill-0, #FEF3D9)"/>
</g>
</svg>
