<svg width="180" height="180" viewBox="0 0 180 180" fill="none" xmlns="http://www.w3.org/2000/svg">
<path d="M89.6234 116.651C89.6234 113.749 91.9924 111.493 94.7921 111.493C97.5918 111.493 99.9607 113.857 99.9607 116.651C99.9607 119.445 97.5918 121.809 94.7921 121.809C91.9924 121.809 89.6234 119.552 89.6234 116.651ZM110.836 116.651C110.836 113.749 113.205 111.493 116.005 111.493C118.912 111.493 121.174 113.857 121.174 116.651C121.174 119.445 118.805 121.809 116.005 121.809C113.205 121.916 110.836 119.552 110.836 116.651ZM61.7341 116.651C61.7341 113.749 64.1031 111.493 66.9028 111.493C69.8102 111.493 72.0715 113.857 72.0715 116.651C72.0715 119.445 69.7025 121.809 66.9028 121.809C63.9954 121.916 61.7341 119.552 61.7341 116.651ZM40.5211 116.651C40.5211 113.749 42.8901 111.493 45.6898 111.493C48.5971 111.493 50.8584 113.857 50.8584 116.651C50.8584 119.445 48.4894 121.809 45.6898 121.809C42.8901 121.916 40.5211 119.552 40.5211 116.651ZM83.3779 107.516H78.8553V125.678H83.3779V107.516ZM50.9661 125.678H55.4887V107.516H50.9661V109.021C49.4586 107.946 47.628 107.301 45.5821 107.301C40.4134 107.301 36.2139 111.493 36.2139 116.651C36.2139 121.916 40.4134 126 45.5821 126C47.628 126 49.4586 125.355 50.9661 124.281V125.678ZM121.281 125.678H125.804V107.516H121.281V109.021C119.774 107.946 117.943 107.301 115.897 107.301C110.729 107.301 106.529 111.493 106.529 116.651C106.529 121.916 110.729 126 115.897 126C117.943 126 119.774 125.355 121.281 124.281V125.678ZM127.419 119.767C127.527 123.421 130.65 126 135.926 126C140.233 126 143.787 124.173 143.787 120.09C143.787 117.188 142.171 115.576 138.51 114.824L135.603 114.287C133.772 113.964 132.48 113.534 132.48 112.46C132.48 111.278 133.772 110.74 135.28 110.74C137.541 110.74 138.51 111.922 138.51 113.212H143.033C142.818 109.666 139.91 107.301 135.28 107.301C130.542 107.301 127.742 109.881 127.742 113.319C127.742 117.403 131.08 118.155 133.988 118.693L136.357 119.122C138.08 119.445 138.833 119.982 138.833 120.949C138.833 121.809 137.972 122.776 135.926 122.776C132.911 122.776 132.05 121.272 131.942 119.875H127.419V119.767ZM72.0715 101.284V108.913C70.5639 107.839 68.7334 107.194 66.6874 107.194C61.5188 107.194 57.3192 111.385 57.3192 116.543C57.3192 121.809 61.5188 125.893 66.6874 125.893C68.7334 125.893 70.5639 125.248 72.0715 124.173V125.463H76.5941V101.284H72.0715ZM100.068 101.284V108.913C98.5609 107.839 96.7303 107.194 94.6844 107.194C89.5157 107.194 85.3162 111.385 85.3162 116.543C85.3162 121.809 89.5157 125.893 94.6844 125.893C96.7303 125.893 98.5609 125.248 100.068 124.173V125.463H104.591V101.284H100.068ZM47.8434 95.9104L50.9661 101.284H72.0715L63.6724 86.7761L47.8434 95.9104ZM83.3779 105.797V101.284H100.068L82.3011 70.6567L66.4721 79.6836L78.8553 101.284V105.797H83.3779ZM106.745 101.284H127.958L100.607 54L84.7778 63.1343L106.745 101.284Z" fill="black"/>
</svg>
