<svg width="120" height="96" viewBox="0 0 120 96" fill="none" xmlns="http://www.w3.org/2000/svg">
<path d="M61.5232 3.35547C63.4542 3.66346 64.5979 3.41592 65.835 5.5351C66.8304 7.24021 65.0896 8.23023 64.658 9.68746C64.4896 10.2559 64.6744 12.6495 64.9589 13.3075C65.7244 14.4648 67.5878 14.4515 68.6402 15.448C69.411 16.1779 69.6354 16.5615 70.1515 17.4974C71.1786 15.5016 73.2111 14.1789 73.3959 12.4409C75.3114 11.9598 75.25 12.6554 76.7726 12.9809C76.9635 12.8767 77.0124 12.8286 77.2208 12.8305C77.2916 12.9246 77.3634 13.0178 77.4362 13.1104C77.6539 13.3864 77.763 13.5443 78.0812 13.5794C78.2724 13.3441 78.2315 13.0782 78.3047 12.7833C78.808 10.7589 77.7278 9.34836 77.6205 7.45778C77.6198 6.34822 77.829 5.28647 78.6158 4.49919C80.5857 2.50561 81.4133 3.85484 82.9428 5.31115C84.9913 7.26163 84.0399 10.2403 82.3307 12.0015C81.7564 12.453 80.8642 12.5344 80.8788 13.4497C80.8042 16.2766 83.2864 14.2213 84.0567 15.0438C85.1612 16.2229 86.4618 18.8368 87.476 20.1844C88.4078 21.4226 89.3037 22.2477 90.0426 23.571C90.1727 23.9466 90.1804 24.4306 90.2511 24.8151C90.6582 27.0319 91.0621 29.1798 91.2202 31.4364C91.257 31.9616 92.0379 33.0242 91.6425 33.5127C91.3713 33.4661 91.0033 32.9876 90.3505 32.6983C90.0341 32.0228 89.6057 30.3036 89.3808 29.4891C89.243 29.3851 88.7776 29.0279 88.7166 28.8993C87.9379 27.2615 87.646 24.7579 86.7887 23.2033C86.591 22.8448 83.6288 19.1766 83.4903 19.0877L83.3444 19.1396L83.2963 19.3667C83.6693 20.2572 83.2961 21.539 82.472 22.0354C81.7497 23.2022 81.6107 25.8273 81.5913 27.2468C82.3256 27.8954 84.712 30.2031 84.7743 31.1592C84.9947 34.5381 84.7687 38.2786 84.4105 41.6526C85.2893 42.5995 85.3637 42.842 85.8647 44.0538C86.4966 44.4678 86.8284 44.6023 87.529 44.8958C88.3776 44.6058 89.3384 43.6019 89.8197 43.6763L89.9234 43.8455C89.8991 45.2722 92.2707 49.4467 91.199 50.3262C90.8908 50.3643 90.6493 50.1492 90.3761 49.9707C90.2689 49.6776 90.1572 49.3864 90.0408 49.097C89.1812 46.9982 87.8552 46.8649 86.0923 46.1254C86.4952 50.0295 85.8961 52.7879 85.763 56.6376C85.7363 57.4114 85.6679 59.7767 85.964 60.4408C86.0766 60.6935 86.9376 61.5754 87.1975 61.8468L86.2385 62.9877C85.9502 63.0292 85.6551 63.0782 85.3673 63.137C84.4915 63.3158 82.4362 64.7657 81.5716 64.1919C81.3228 63.2752 83.6073 60.8666 83.6121 59.6072C83.6168 58.3962 83.538 57.225 83.4364 56.0286C83.1408 52.4225 82.6666 48.8339 82.0157 45.2765C79.5643 43.85 77.3477 43.7141 74.7868 42.6538C74.6578 42.6004 74.4206 42.458 74.414 42.2978C74.3177 39.2821 76.1098 36.5049 76.677 33.562C77.1796 30.9541 77.8198 29.5932 77.482 26.9039C77.2057 24.704 76.7832 23.2148 75.9005 21.1719C75.4829 20.2055 74.786 19.0646 74.5076 18.114L74.4855 18.0367C74.3469 17.5632 74.4218 17.1382 74.4704 16.6441C73.2532 17.7065 72.4848 18.308 71.4908 19.5936C71.8437 20.333 72.1754 21.0597 72.6027 21.7501C72.8677 22.2218 73.8678 23.1283 73.7889 23.6981C73.6647 24.5949 72.3158 25.7988 71.7016 26.4372C72.5674 27.6693 73.2839 27.8326 74.4414 28.6179C74.8023 28.8628 75.0252 30.1124 75.1216 30.6029L75.0413 30.6951C74.4656 30.4785 73.9296 29.566 73.5258 29.576C73.1865 30.6393 74.9919 32.2146 75.0526 32.4506L74.8803 32.531C72.2411 32.2973 72.3229 30.5734 71.7459 28.6471C71.6898 28.4599 70.7952 27.5159 70.561 27.246C69.7937 27.9973 68.9286 29.3061 68.0942 29.8776C65.0106 29.161 68.222 26.8837 69.0975 25.5905C68.0346 24.519 67.4385 24.5088 66.2754 23.663C66.5281 22.045 67.0119 21.1774 68.0589 19.931C67.7007 19.6289 67.0281 18.967 66.5882 18.9971C65.8347 19.7134 64.5981 26.6595 64.444 28.0253C68.1295 31.1901 68.1629 30.5501 68.5783 35.6643C68.7997 38.391 68.522 40.7917 68.6447 43.4894C68.7078 44.8754 69.3581 46.5428 69.6861 47.9C70.6053 51.8783 70.7135 55.9933 70.8305 60.0569C70.8385 60.3346 71.5005 60.8526 71.5606 61.204L71.4306 61.3285C71.0477 61.4164 70.5603 61.2382 70.167 61.1327C69.7738 62.3303 69.5803 62.5609 68.7082 63.4357C68.1755 63.9702 67.5996 64.4329 66.8751 63.9591C66.8442 63.897 66.8063 63.8209 66.7615 63.7308C67.1667 62.3064 67.953 60.851 68.4852 59.4738C68.6353 59.0855 68.7117 58.6745 68.769 58.3914C68.3934 57.5504 68.2451 56.2262 67.9906 55.2865C67.4148 53.1605 66.6624 50.8985 66.473 48.6915C66.312 47.431 66.745 45.3242 66.4321 44.1523C65.6802 41.3358 64.3951 38.6083 63.5365 35.803C63.2158 36.4898 63.145 37.298 62.8536 37.8442C61.5645 40.2607 59.6096 42.8749 59.5452 45.7335C59.8952 46.0583 60.3736 46.3017 60.5132 46.7887C61.0201 48.5563 56.9808 57.4262 56.8554 60.5549C56.828 61.2398 57.0711 62.0378 57.2059 62.7086C57.1001 62.9858 57.0999 63.1237 56.8982 63.2882C56.7784 63.2435 56.6563 63.2064 56.5365 63.1624C55.593 62.8154 52.8023 65.122 51.2278 64.5004C50.9449 64.3886 50.7054 64.2724 50.5789 63.9936L50.5979 64.1264L50.5615 64.0374C50.7627 63.8775 52.1831 64.3339 51.9623 63.4785L51.7567 63.3992C51.5403 63.4591 51.4692 63.4781 51.2701 63.5856L51.2279 63.6089C51.9143 62.7038 53.132 62.6511 53.8059 61.8242C55.0817 60.2589 55.0032 57.8278 55.2282 55.9187C55.3824 54.6108 55.6335 53.3554 55.8549 52.0733C56.1089 50.0014 57.2163 47.7534 57.4696 45.7152C58.1131 40.5373 58.8253 35.4999 59.9789 30.4036C60.2071 29.3961 60.2464 28.1028 60.2477 27.0695C60.2235 26.0822 60.0028 25.0051 59.6343 24.0921C59.1205 22.8195 58.8251 20.9236 57.8445 19.9884L57.9966 18.8836C59.3164 17.2752 59.0737 16.6187 60.0247 14.9029C60.3101 14.4954 60.9374 14.4428 61.3684 14.4219C62.7981 14.3525 62.3764 12.1746 62.2535 11.1738C61.2441 12.4295 60.0541 13.8073 59.1905 11.4089C57.9381 7.93118 58.7813 5.68724 61.5232 3.35547ZM79.2066 40.6583C80.3162 40.4231 81.6762 41.5113 82.4904 42.177C82.1712 40.8962 81.0696 36.8965 80.472 35.7865C79.1998 37.1235 77.7584 40.1014 76.5991 41.8574C77.7272 41.4472 78.2047 41.116 79.2066 40.6583ZM67.4406 47.6815C67.4937 48.6096 67.6566 49.3482 68.0605 50.1949C67.9249 49.418 67.7801 48.6428 67.6261 47.8696C67.5987 47.5285 67.5892 46.9036 67.3291 46.6779C67.2407 46.9443 67.3761 47.39 67.4406 47.6815ZM82.26 21.6888C82.7041 21.4077 83.2601 20.1198 83.1166 19.6136C82.6323 20.2301 82.3078 20.8834 82.26 21.6888ZM80.2541 43.5874C80.6887 43.8408 82.2675 44.7065 82.7034 44.7244C82.5666 44.383 82.5015 44.3059 82.1451 44.1633C81.6758 43.9754 80.7331 43.5169 80.2541 43.5874ZM83.5729 42.4258C83.603 42.8558 83.912 43.4071 84.1049 43.8119C84.1181 43.3033 84.1036 42.9587 83.8119 42.5322L83.5729 42.4258ZM74.8092 13.2408C74.9622 13.5357 75.3879 13.6844 75.7007 13.8339L75.9313 13.8153C75.5893 13.3104 75.4355 13.1417 74.8092 13.2408ZM69.4775 21.3471C69.217 21.6169 68.9263 21.9049 68.6758 22.1794C69.1109 22.6882 69.7103 23.6067 70.0947 23.957L70.2832 23.9487L71.0021 23.0332C70.6521 22.5516 69.9943 21.5248 69.4775 21.3471Z" fill="black"/>
<path d="M83.2961 19.3646C83.669 20.2552 83.2959 21.5369 82.4718 22.0333C82.4078 21.7938 82.4419 21.8773 82.2598 21.6867C82.7039 21.4057 83.2599 20.1177 83.1163 19.6116L83.2961 19.3646Z" fill="black"/>
<path d="M79.5813 22.7057C80.0119 22.7238 81.1804 23.3958 81.3142 23.8063C81.2342 24.1021 81.2975 23.9927 81.0101 24.2117C80.7341 24.2473 79.8188 24.4832 79.5036 24.5558C79.4893 23.9746 79.4615 23.2644 79.5813 22.7057Z" fill="black"/>
<path d="M64.4456 7.5365L64.6926 7.67715C64.8998 8.24317 64.0565 8.59975 63.6415 8.83686L63.5497 8.89053L63.4395 8.8522C63.526 8.53879 64.2036 7.77419 64.4456 7.5365Z" fill="black"/>
<path d="M80.2539 43.588C80.7329 43.5175 81.6756 43.976 82.1449 44.1639C82.5013 44.3065 82.5665 44.3836 82.7032 44.725C82.2673 44.7071 80.6885 43.8414 80.2539 43.588Z" fill="black"/>
<path d="M67.4404 47.6797L67.626 47.8677C67.7799 48.641 67.9248 49.4162 68.0603 50.193C67.6564 49.3464 67.4935 48.6077 67.4404 47.6797Z" fill="black"/>
<path d="M74.8105 13.2394C75.4369 13.1403 75.5907 13.309 75.9327 13.8139L75.7021 13.8325C75.3893 13.683 74.9636 13.5343 74.8105 13.2394Z" fill="black"/>
<path d="M83.5732 42.4258L83.8122 42.5322C84.1039 42.9587 84.1184 43.3033 84.1052 43.8119C83.9123 43.4071 83.6033 42.8558 83.5732 42.4258Z" fill="black"/>
<path d="M62.3263 21.5312C62.5889 21.7498 62.4376 22.6125 62.5431 23.1863C62.1708 22.9252 62.2974 21.9588 62.3263 21.5312Z" fill="black"/>
<path d="M67.4413 47.6833C67.3768 47.3917 67.2414 46.946 67.3299 46.6797C67.5899 46.9053 67.5994 47.5303 67.6268 47.8713L67.4413 47.6833Z" fill="black"/>
<path d="M26.3032 12.5673C24.7468 10.3021 25.8626 10.4854 26.7625 8.3905C27.3518 7.01855 27.8336 7.69889 28.1656 7.37701C29.0243 6.54457 28.8762 6.55461 30.2409 6.5411C30.6775 6.52437 31.571 5.78324 32.1417 5.95383C33.1758 6.0191 33.0007 6.97581 33.3326 7.19565C34.2405 7.79692 35.3928 8.3807 35.1298 9.73802C34.9484 10.5677 35.3353 10.6618 35.545 11.5115C35.2665 13.1493 34.3207 14.1684 33.5668 15.5801C33.205 16.258 32.959 16.8793 32.5077 17.5208C31.8648 18.4346 31.5916 17.6554 31.0283 17.7755C30.9919 18.4404 32.1388 18.7517 32.6674 18.8217C33.3263 18.5009 34.0333 18.1394 34.7104 17.876C34.9725 18.2993 35.6294 19.1342 35.7856 19.4987C36.5802 21.3535 37.3168 23.48 38.573 25.066C40.1437 27.049 42.7353 28.0136 43.4691 30.634C43.6148 31.1545 45.1855 31.0876 45.2171 31.9957C44.8784 32.6377 43.7679 32.7207 43.1841 32.3891C43.0463 32.3101 42.9106 32.2275 42.777 32.1415C42.3468 30.0191 42.2492 30.0391 40.6361 28.7466C39.3767 27.7375 36.6949 27.1639 36.1745 26.0053C35.6115 24.7526 35.1557 23.6245 34.4551 22.3435C33.6383 25.0944 31.3422 27.9582 32.9674 31.1215C34.458 34.0228 37.0679 38.5132 37.539 41.7062C36.7321 42.6888 36.0556 43.7993 35.2626 44.7354C33.9419 46.2943 30.3484 49.2482 29.8367 51.1615C29.1828 53.6066 29.4587 59.0359 29.6622 61.6098L31.767 64.7779C31.6908 65.0856 31.6497 65.1424 31.3419 65.3309C31.2148 65.4074 31.0865 65.4818 30.9569 65.554C30.0498 65.4354 28.146 65.3023 27.4857 64.8186C27.1159 64.1137 28.0983 62.5903 28.0517 61.8204C27.9467 60.0799 27.6534 58.4607 27.1189 56.8016C26.8682 56.0236 26.8074 54.9474 26.5833 54.1213C26.1418 52.4944 25.6895 50.9403 25.8257 49.225C25.9352 47.8451 27.0637 46.5773 26.8774 45.187C26.5996 43.4126 26.2728 41.5808 25.8968 39.8229C25.6097 38.48 24.5111 36.5585 24.7682 35.0444C25.0051 33.6494 26.3131 32.2458 27.0608 31.1286C27.4906 30.4865 28.158 29.2762 28.477 28.5629C27.945 27.0821 27.146 25.441 26.5106 23.992C26.3596 23.6476 25.8831 22.3032 25.7264 22.0976C25.3266 22.2321 25.4429 23.1251 25.2395 23.5453C24.8129 24.4256 23.559 27.1707 22.8749 27.625C22.3052 27.7689 21.7244 27.5418 21.2876 27.6465C20.2485 27.8955 19.5811 28.3566 18.4748 28.4785L18.1524 29.7421C18.1789 29.1672 18.1442 29.1761 17.7142 28.8545L17.6091 28.7222C17.0094 28.9233 16.0999 30.594 15.4358 30.604C14.8047 30.0887 15.7954 28.2225 16.248 27.7978C17.7233 26.4132 19.865 26.4226 21.6345 25.4887C22.4951 24.0517 23.2295 22.2127 23.8961 20.6493C24.3173 19.6616 24.0577 17.879 25.7979 17.7342C27.1151 17.6247 28.1841 17.9845 29.5521 17.8209C29.296 17.0424 28.8948 16.4794 28.6519 15.7614C26.411 16.528 25.1795 14.2393 26.3032 12.5673ZM29.7592 46.5231C30.1006 45.7145 30.2598 45.4438 30.2145 44.5503C30.5246 43.7529 30.9584 42.9973 30.8413 42.1477C31.3638 41.5211 32.1942 40.5655 32.9679 40.33C32.9175 40.012 31.2233 38.2715 30.889 38.1017C30.1789 40.7575 29.3674 43.8163 29.7592 46.5231Z" fill="black"/>
<path d="M12.9367 31.1276C13.1219 31.117 13.1958 31.1395 13.3796 31.1748L13.4824 31.3648C13.5208 32.5883 11.543 34.5226 10.7982 35.4713C10.0472 36.4279 8.14901 37.0212 7.00799 37.2665C7.76643 38.0095 8.51983 39.0052 9.28856 39.6756C10.0309 40.1932 10.7452 40.5874 11.4706 41.1417C12.094 41.618 12.1299 42.5657 12.7387 42.7302C13.8565 42.5736 14.6095 40.1318 15.0246 39.2179C15.8826 37.3938 16.8869 36.2529 18.9928 36.075C20.4154 35.9548 20.8003 37.0338 20.7779 38.3431C20.6602 40.6156 18.9193 42.0796 16.9104 42.6653C16.4169 42.8092 15.3649 43.0314 15.3438 43.5888C15.6776 44.0526 16.4764 43.9452 16.9802 44.0488C19.0647 44.4775 18.5409 49.6898 19.2396 51.3741C19.6864 52.4511 24.5795 56.1585 25.7756 58.0377C25.997 58.3857 26.3635 59.0139 26.2716 59.4403C25.8971 59.5068 25.7287 59.1245 25.2773 59.154L25.2096 59.3235C25.3937 60.4318 25.8982 59.8014 26.3302 60.4307C26.4061 60.78 26.2497 61.201 26.1512 61.5571C23.7923 59.8002 24.0146 60.2346 23.6867 57.1687C22.8292 56.3361 21.8636 55.6274 20.8169 55.0623C19.0349 54.1188 18.0624 54.271 16.9919 52.1066C16.3306 50.7692 16.189 49.4603 15.5948 48.1028C15.7458 51.1912 15.9722 52.4059 15.3 55.4535C15.8426 56.8019 16.9393 57.3957 17.7001 58.5965C18.8283 60.8101 19.18 66.0197 19.8094 68.5616C20.2938 70.4041 21.4936 71.5385 21.8387 73.4642C22.2164 75.5715 22.036 77.6363 22.2894 79.7183C22.4042 80.6618 23.4538 82.0528 23.7092 83.0621L23.7237 83.1216C23.9118 83.8675 21.5616 89.5873 20.5545 88.6241C20.1439 87.3398 21.3887 84.3051 20.9084 82.7013C20.4477 81.163 19.9983 79.5762 19.574 78.0246C18.7923 75.4091 18.8401 72.588 18.0024 70.0118C17.0497 67.0818 14.9826 63.9378 13.7226 61.0816C13.53 60.6451 11.3652 58.2012 10.9802 57.7389C11.0677 56.5949 11.4558 55.445 11.5639 54.3534C11.6682 53.2983 11.5303 51.9426 11.4429 50.8714C11.2235 48.1806 11.1738 46.0382 9.62592 43.7032C8.06649 41.3508 6.85043 39.6857 5.94238 36.9832C6.46929 36.6136 8.38051 35.2962 8.70121 34.9068C10.2359 33.0433 10.6381 32.1904 12.9367 31.1276Z" fill="black"/>
<path d="M93.603 33.4818C95.4674 33.4758 96.3288 35.467 96.2837 37.1098C96.2745 37.4525 96.1751 38.8541 96.2892 39.1121C96.7079 40.063 97.1036 40.7057 97.4358 41.7399C98.0634 42.1287 98.6966 42.5088 99.3343 42.8804C99.0702 42.1037 98.8263 41.0128 98.8907 40.2307C99.0131 39.1127 98.9929 36.2053 100.02 35.543C102.738 33.7911 102.88 33.1141 105.069 35.6549C105.551 37.9643 104.588 39.0357 104.197 41.2444C103.916 42.8301 103.891 43.7213 103.856 45.3085C105.002 45.938 106.837 46.0379 107.04 47.5046C107.357 49.8054 108.118 56.2273 107.065 58.0838C106.85 58.2856 106.51 58.2601 106.207 58.2772C104.975 59.3028 102.555 60.8449 101.155 61.5825C100.175 62.1327 99.0472 62.8832 98.0837 63.4955C97.5978 64.3438 97.1441 65.4235 96.7364 66.3281C96.2239 66.4925 94.9972 67.2247 94.6456 67.035C94.2775 65.6712 96.9757 64.9615 96.453 63.777C96.0076 63.7546 95.1536 64.4624 94.6659 64.3655L94.5702 64.1776C94.6466 63.829 95.7665 63.0807 96.0766 62.7521C97.4782 61.268 99.0048 59.8991 100.504 58.5166C100.287 58.4109 99.7751 58.1704 99.6849 57.9299C98.8705 55.751 99.0702 52.5001 98.9331 50.1479C98.8502 49.3837 99.0932 47.7561 98.7858 47.0848C98.1177 45.6245 96.6159 43.9685 95.5328 42.7714C95.5438 42.7834 95.1113 42.729 95.0782 42.7243C94.6355 42.2035 94.6015 39.8745 94.33 39.139C94.1009 38.5169 93.5018 37.7382 93.1318 37.1144C93.1594 36.9147 93.1889 36.7152 93.2202 36.5159C93.2874 36.0886 93.2828 35.9178 93.6186 35.6707L93.8312 35.7678C94.1487 36.1467 94.2932 36.764 94.4459 37.2525C95.1619 35.1526 94.7101 35.1046 93.603 33.4818ZM101.018 58.2054C102.255 57.4096 103.591 56.1513 104.853 55.2363C104.847 53.6139 104.849 49.3596 103.923 48.0647C103.788 48.9866 103.677 50.0574 103.768 51.0226C103.982 53.3117 104.702 54.6032 102.677 56.3732C102.164 56.8205 100.784 57.1708 100.641 58.0829C100.855 58.2261 100.757 58.1926 101.018 58.2054Z" fill="black"/>
<path d="M100.814 52.2695C101.559 52.8774 101.271 53.797 100.979 54.6231L100.772 54.6811C100.636 54.3681 100.79 52.7092 100.814 52.2695Z" fill="black"/>
<path d="M104.918 60.3854C106.468 60.625 106.863 61.3287 107.13 62.7742C106.501 65.4005 104.285 66.9003 102.945 68.8968C101.779 70.6352 98.7298 74.2501 98.15 76.0653C98.4758 77.1458 98.6819 77.6221 98.8292 78.7629C97.8859 80.9608 96.5276 84.4415 95.9847 86.8061C95.8338 87.4655 96.6693 89.2262 96.2525 90.1447C95.9368 90.8418 95.1371 91.0705 94.4598 91.3923C93.1715 92.2203 93.1273 91.8433 91.8105 92.4523C92.0736 91.9482 92.7693 90.7039 92.8936 90.1316C93.4715 87.4785 94.1782 84.8156 94.7442 82.1653C94.8638 81.6064 94.7939 80.4903 94.8491 79.8727C95.0083 78.0791 95.1473 76.2897 95.5522 74.531C96.2488 72.1301 97.7203 69.8214 98.797 67.5971C99.9031 65.3141 100.256 63.4263 102.437 62.0353C103.215 61.5389 103.933 60.6333 104.918 60.3854Z" fill="black"/>
<path d="M106.081 66.3737L106.324 66.3842C107.117 67.2968 106.051 71.9038 106.209 73.238C106.336 74.3014 107.363 75.2487 107.324 76.3171C107.268 77.8774 107.221 79.4172 107.165 80.9909C107.115 82.3783 106.796 84.2102 107.033 85.5617C107.204 86.5332 108.055 87.6653 108.183 88.6089C107.651 89.0321 105.41 88.9504 104.72 89.2785C104.366 89.4474 103.707 90.0321 103.386 90.3045C103.17 90.5233 102.955 90.6732 102.65 90.6723C102.635 90.6331 102.625 90.6097 102.613 90.5673C102.431 89.9387 104.651 86.2891 105.082 85.475C104.994 81.7308 104.077 77.7892 104.064 73.9967C103.913 73.3845 103.769 72.12 103.452 71.5806C102.613 70.1517 104.825 66.8951 106.081 66.3737Z" fill="black"/>
<path d="M11.5619 59.8555C12.5144 60.3385 13.7241 65.0109 14.2289 66.0073C14.15 66.4905 13.0899 68.5879 12.9214 69.2982C12.5641 70.8035 13.4482 72.0552 14.095 73.3097C13.6505 74.7458 14.4629 80.3608 14.982 81.9628C15.8428 84.6193 17.4311 84.4992 14.0532 87.3923C13.0783 87.5614 13.2231 88.1191 12.4887 88.2322C12.3313 87.3994 13.9144 84.5797 13.8416 83.4026C13.5898 79.3302 11.5286 75.7802 10.7235 71.85C10.5746 71.1233 10.7839 69.6424 10.8979 68.8764C11.2711 66.3682 11.3768 64.1809 10.7208 61.7044C11.0424 61.1023 11.2297 60.4772 11.5619 59.8555Z" fill="black"/>
<path d="M57.3737 12.6914C57.6164 12.7897 57.7439 13.1087 57.9067 13.1698C58.393 13.3525 60.1304 13.5356 59.7779 14.3883C59.5246 14.4884 59.3352 14.4225 59.0612 14.3736L58.9937 14.4386C59.0778 14.615 59.146 14.6981 59.0532 14.9051C57.6578 17.9027 56.8878 20.8617 55.8522 23.9852C55.2446 25.8179 50.075 28.8987 48.6771 30.4863C48.3708 30.8342 47.3631 32.0206 47.0662 32.0478C46.7495 31.7429 46.7598 31.3492 46.7774 30.933C46.9937 30.5876 47.0143 30.6623 47.0327 30.2997C46.7058 29.9925 46.2173 29.9519 45.7358 29.8289C45.3957 30.0571 44.6543 30.6967 44.2793 30.3978C44.3995 29.5021 46.0925 28.8614 46.8175 28.609C48.2412 29.2563 48.3202 28.477 49.4021 27.4322C51.5869 25.3224 53.0828 24.4836 53.7073 21.331C54.3247 18.2147 55.3646 15.1776 57.3737 12.6914ZM52.088 26.8898C52.3256 26.6835 52.6653 26.4366 52.7702 26.1517L52.6936 26.0508C52.4816 26.2574 52.1186 26.5603 52.0364 26.8215L52.088 26.8898Z" fill="black"/>
<path d="M52.6943 26.0508L52.7709 26.1517C52.666 26.4366 52.3263 26.6835 52.0887 26.8898L52.0371 26.8215C52.1193 26.5603 52.4823 26.2574 52.6943 26.0508Z" fill="black"/>
<path d="M17.7144 28.8529C18.1443 29.1746 18.179 29.1657 18.1525 29.7405C18.0074 30.2246 17.7067 30.8831 17.3013 31.1876L17.1452 31.159C16.9002 30.5826 17.4653 29.4189 17.7144 28.8529Z" fill="black"/>
</svg>
