<svg preserveAspectRatio="none" width="100%" height="100%" overflow="visible" style="display: block;" viewBox="0 0 226 32" fill="none" xmlns="http://www.w3.org/2000/svg">
<g id="smallcrowdd.">
<path d="M6.10022 31.134C5.12096 31.134 4.1705 31.0185 3.24884 30.7876C2.35599 30.5855 1.52074 30.2246 0.743087 29.705C0.455069 29.2431 0.253456 28.5359 0.138249 27.5832C0.0230414 26.6017 -0.0201613 25.548 0.00864054 24.4222C0.00864054 24.0469 0.31106 23.8593 0.915897 23.8593C1.17511 23.8593 1.39113 23.9459 1.56394 24.1191C1.76555 24.2923 1.89516 24.4511 1.95276 24.5954C2.5288 25.7501 3.16244 26.7894 3.85368 27.7131C4.54493 28.608 5.42338 29.0555 6.48905 29.0555C7.23789 29.0555 7.78513 28.8245 8.13075 28.3627C8.50517 27.9008 8.69239 27.3956 8.69239 26.8471C8.69239 26.0965 8.38997 25.4759 7.78513 24.9851C7.18029 24.4944 6.51785 24.0758 5.7978 23.7294C4.99135 23.3252 4.1993 22.8633 3.42165 22.3437C2.64401 21.7952 1.99597 21.1168 1.47753 20.3085C0.9591 19.5002 0.699884 18.5187 0.699884 17.364C0.699884 16.1804 1.0167 15.17 1.65034 14.3329C2.31279 13.4668 3.19124 12.8029 4.28571 12.341C5.38018 11.8502 6.57545 11.6049 7.87153 11.6049C8.8508 11.6049 9.75805 11.7203 10.5933 11.9513C11.4574 12.1534 12.0478 12.3554 12.3646 12.5575C12.595 12.8462 12.7678 13.4091 12.883 14.2463C13.0271 15.0546 13.0991 15.9783 13.0991 17.0176C13.0991 17.3351 12.811 17.4939 12.235 17.4939C12.0334 17.4939 11.8174 17.4217 11.587 17.2774C11.3566 17.1042 11.2125 16.9454 11.1549 16.8011C10.7805 15.6464 10.2909 14.7803 9.68605 14.203C9.11001 13.6256 8.47637 13.3369 7.78513 13.3369C7.15149 13.3369 6.57545 13.539 6.05702 13.9432C5.56739 14.3473 5.32257 14.8814 5.32257 15.5453C5.32257 16.1227 5.61059 16.6567 6.18663 17.1475C6.79147 17.6094 7.48271 18.0424 8.26036 18.4465C10.1613 19.4281 11.515 20.3807 12.3214 21.3045C13.1279 22.2282 13.5311 23.4696 13.5311 25.0284C13.5311 26.9626 12.9119 28.4637 11.6734 29.5318C10.4349 30.5999 8.57718 31.134 6.10022 31.134Z" fill="var(--fill-0, #131111)"/>
<path d="M15.0935 30.6576C14.9207 30.6576 14.7335 30.5999 14.5318 30.4844C14.3302 30.369 14.2294 30.2102 14.2294 30.0081C14.2294 29.7772 14.3302 29.5895 14.5318 29.4452C14.7623 29.3009 14.9927 29.1854 15.2231 29.0988C15.6551 28.9544 16.0295 28.7957 16.3464 28.6225C16.6632 28.4204 16.8216 28.0307 16.8216 27.4533V17.4073C16.8216 16.83 16.7352 16.3392 16.5624 15.935C16.3896 15.502 16.0583 15.2422 15.5687 15.1556C15.4535 15.1267 15.3383 15.0546 15.2231 14.9391C15.1079 14.8236 15.0503 14.6216 15.0503 14.3329C15.0503 13.8999 15.2087 13.6401 15.5255 13.5535C16.2167 13.3802 16.9944 13.1782 17.8584 12.9472C18.7225 12.6874 19.5578 12.4132 20.3642 12.1245C21.1995 11.8358 21.8907 11.5471 22.4379 11.2585C22.5531 11.2007 22.6539 11.143 22.7404 11.0853C22.8268 11.0275 22.9132 10.9986 22.9996 10.9986C23.2876 10.9986 23.4316 11.1719 23.4316 11.5183C23.4316 11.7492 23.3884 12.1389 23.302 12.6874C23.2444 13.207 23.2156 13.6689 23.2156 14.0731C23.2156 14.3618 23.2444 14.535 23.302 14.5927H23.3884C24.3101 13.6689 25.2893 12.9472 26.3262 12.4276C27.363 11.908 28.5007 11.6482 29.7392 11.6482C30.6032 11.6482 31.4097 11.9802 32.1585 12.6441C32.9362 13.3081 33.4978 14.1164 33.8435 15.069H34.0595C34.8947 13.972 35.8452 13.1349 36.9108 12.5575C37.9765 11.9513 39.1718 11.6482 40.4967 11.6482C41.3895 11.6482 42.196 11.8935 42.916 12.3843C43.6649 12.8751 44.2553 13.5823 44.6873 14.5061C45.1482 15.4299 45.3786 16.5557 45.3786 17.8836V27.4966C45.3786 28.074 45.537 28.4493 45.8538 28.6225C46.1706 28.7957 46.545 28.9544 46.9771 29.0988C47.2075 29.1854 47.4091 29.3009 47.5819 29.4452C47.7547 29.5895 47.8411 29.7772 47.8411 30.0081C47.8411 30.2102 47.7547 30.369 47.5819 30.4844C47.4379 30.5999 47.2795 30.6576 47.1067 30.6576C46.5306 30.6576 45.969 30.6288 45.4218 30.571C44.8745 30.5422 44.3417 30.5133 43.8233 30.4844C43.3048 30.4556 42.7864 30.4411 42.268 30.4411C41.7783 30.4411 41.3031 30.4556 40.8423 30.4844C40.4103 30.5133 39.9638 30.5422 39.503 30.571C39.0422 30.6288 38.5237 30.6576 37.9477 30.6576C37.7749 30.6576 37.6165 30.5999 37.4725 30.4844C37.3285 30.369 37.2565 30.2102 37.2565 30.0081C37.2565 29.7772 37.3285 29.5895 37.4725 29.4452C37.6453 29.3009 37.8469 29.1854 38.0773 29.0988C38.4517 28.9833 38.711 28.839 38.855 28.6658C39.0278 28.4926 39.1142 28.2039 39.1142 27.7997V18.9662C39.1142 18.2445 39.0278 17.6382 38.855 17.1475C38.6822 16.6279 38.4229 16.2382 38.0773 15.9783C37.7605 15.6897 37.3861 15.5453 36.954 15.5453C36.666 15.5453 36.3204 15.6319 35.9172 15.8051C35.514 15.9495 35.1107 16.1949 34.7075 16.5413C34.3907 16.83 34.2323 17.3351 34.2323 18.0568V27.4966C34.2323 28.074 34.3187 28.4493 34.4915 28.6225C34.6643 28.7957 34.9667 28.9544 35.3988 29.0988C35.6292 29.1854 35.8308 29.3009 36.0036 29.4452C36.1764 29.5895 36.2628 29.7772 36.2628 30.0081C36.2628 30.2102 36.1764 30.369 36.0036 30.4844C35.8596 30.5999 35.7012 30.6576 35.5284 30.6576C34.9523 30.6576 34.4195 30.6288 33.9299 30.571C33.469 30.5422 33.0082 30.5133 32.5474 30.4844C32.1153 30.4556 31.6401 30.4411 31.1217 30.4411C30.632 30.4411 30.1568 30.4556 29.696 30.4844C29.264 30.5133 28.8175 30.5422 28.3567 30.571C27.8959 30.6288 27.3774 30.6576 26.8014 30.6576C26.6286 30.6576 26.4702 30.5999 26.3262 30.4844C26.1822 30.369 26.1102 30.2102 26.1102 30.0081C26.1102 29.7772 26.1822 29.5895 26.3262 29.4452C26.499 29.3009 26.7006 29.1854 26.931 29.0988C27.3054 28.9833 27.5647 28.839 27.7087 28.6658C27.8815 28.4926 27.9679 28.2039 27.9679 27.7997V18.9662C27.9679 18.2445 27.8815 17.6382 27.7087 17.1475C27.5359 16.6567 27.291 16.2815 26.9742 16.0217C26.6574 15.733 26.283 15.5886 25.8509 15.5886C25.5629 15.5886 25.2173 15.6608 24.8141 15.8051C24.4109 15.9495 23.9788 16.1804 23.518 16.498C23.23 16.7 23.086 17.1619 23.086 17.8836V27.4966C23.086 27.9874 23.1436 28.3482 23.2588 28.5792C23.4028 28.7812 23.6908 28.9544 24.1228 29.0988C24.3533 29.1854 24.5405 29.3009 24.6845 29.4452C24.8573 29.5895 24.9437 29.7772 24.9437 30.0081C24.9437 30.1813 24.8717 30.3401 24.7277 30.4844C24.5837 30.5999 24.4253 30.6576 24.2524 30.6576C23.6764 30.6576 23.1436 30.6288 22.6539 30.571C22.1931 30.5422 21.7467 30.5133 21.3147 30.4844C20.8826 30.4556 20.4074 30.4411 19.889 30.4411C19.3993 30.4411 18.8953 30.4556 18.3769 30.4844C17.8584 30.5133 17.3256 30.5422 16.7784 30.571C16.2311 30.6288 15.6695 30.6576 15.0935 30.6576Z" fill="var(--fill-0, #131111)"/>
<path d="M52.9164 31.134C52.0812 31.134 51.3179 30.9463 50.6267 30.571C49.9354 30.2246 49.3882 29.7483 48.985 29.1421C48.5818 28.507 48.3801 27.8142 48.3801 27.0636C48.3801 26.0532 48.697 25.2016 49.3306 24.5088C49.9931 23.816 50.9435 23.1953 52.182 22.6468L55.8974 21.0014C56.4735 20.7415 56.8335 20.5106 56.9775 20.3085C57.1215 20.0776 57.1935 19.6879 57.1935 19.1394L57.2367 16.7578C57.2655 15.9206 57.1359 15.2855 56.8479 14.8525C56.5599 14.3906 56.1134 14.1597 55.5086 14.1597C55.163 14.1597 54.8029 14.2463 54.4285 14.4195C54.0541 14.5638 53.7805 14.737 53.6077 14.9391C53.5213 15.0546 53.4637 15.1845 53.4349 15.3288C53.4061 15.4732 53.3917 15.6175 53.3917 15.7618C53.3917 15.935 53.4061 16.166 53.4349 16.4547C53.4637 16.7145 53.4781 16.931 53.4781 17.1042C53.4781 17.3063 53.2333 17.5516 52.7436 17.8403C52.254 18.1001 51.6924 18.3455 51.0587 18.5765C50.4251 18.7785 49.8778 18.8796 49.417 18.8796C49.1866 18.8796 48.985 18.793 48.8122 18.6198C48.6682 18.4177 48.5962 18.1723 48.5962 17.8836C48.5962 17.4217 48.7546 16.9743 49.0714 16.5413C49.3882 16.1083 49.921 15.5886 50.6699 14.9824C51.4475 14.3473 52.2972 13.7844 53.2189 13.2936C54.1405 12.8029 55.0478 12.4132 55.9406 12.1245C56.8335 11.8069 57.5967 11.6482 58.2304 11.6482C59.8721 11.6482 61.1826 12.1822 62.1618 13.2503C63.1411 14.2896 63.6019 15.6897 63.5443 17.4506L63.3283 25.8512C63.2995 26.5151 63.4003 27.0925 63.6307 27.5832C63.8899 28.0451 64.2067 28.276 64.5812 28.276C65.0996 28.276 65.5604 28.0884 65.9637 27.7131C66.0501 27.6265 66.1365 27.5832 66.2229 27.5832C66.3669 27.5832 66.4821 27.641 66.5685 27.7564C66.6837 27.843 66.7413 27.9585 66.7413 28.1028C66.7413 28.4493 66.4533 28.9111 65.8772 29.4885C65.33 30.037 64.7396 30.4411 64.1059 30.7009C63.4723 30.9896 62.8099 31.134 62.1186 31.134C60.4481 31.134 59.0512 30.2968 57.9279 28.6225H57.8415C56.8911 29.5174 56.0414 30.1525 55.2926 30.5277C54.5437 30.9319 53.7517 31.134 52.9164 31.134ZM55.595 28.1461C55.8542 28.1461 56.0702 28.1028 56.243 28.0162C56.4159 27.9296 56.5743 27.7853 56.7183 27.5832C56.8047 27.4677 56.8623 27.3234 56.8911 27.1502C56.9487 26.977 56.9775 26.7894 56.9775 26.5873L57.1071 23.253C57.1071 22.9932 57.0639 22.8345 56.9775 22.7767C56.8911 22.6901 56.7903 22.6468 56.6751 22.6468C56.6175 22.6468 56.5455 22.6613 56.4591 22.6901C56.4015 22.6901 56.3294 22.719 56.243 22.7767C55.5518 23.152 55.019 23.5417 54.6445 23.9459C54.2989 24.3212 54.1261 25.014 54.1261 26.0244C54.1261 26.8615 54.2845 27.4244 54.6013 27.7131C54.947 28.0018 55.2782 28.1461 55.595 28.1461Z" fill="var(--fill-0, #131111)"/>
<path d="M66.7528 30.6576C66.4648 30.6576 66.2487 30.5999 66.1047 30.4844C65.9607 30.369 65.8887 30.2102 65.8887 30.0081C65.8887 29.7772 65.9751 29.604 66.1479 29.4885C66.3208 29.3442 66.5656 29.2143 66.8824 29.0988C67.3144 28.9544 67.6888 28.8101 68.0057 28.6658C68.3225 28.4926 68.4809 28.0884 68.4809 27.4533V6.88498C68.4809 6.10555 68.3801 5.42715 68.1785 4.8498C68.0057 4.27244 67.5592 3.91159 66.8392 3.76725C66.5224 3.70952 66.364 3.47858 66.364 3.07443C66.364 2.69914 66.508 2.48263 66.796 2.4249C67.516 2.28056 68.3369 2.06405 69.2585 1.77537C70.209 1.45783 71.1018 1.14028 71.9371 0.822733C72.8012 0.505188 73.4492 0.274245 73.8812 0.129906C74.1404 0.0433021 74.3421 0 74.4861 0C74.6877 0 74.8173 0.0577358 74.8749 0.173207C74.9325 0.288679 74.9613 0.418584 74.9613 0.562923C74.9613 0.764997 74.9325 1.11141 74.8749 1.60217C74.8173 2.06405 74.7741 2.49707 74.7453 2.90122V27.3667C74.7453 28.0018 74.9037 28.406 75.2205 28.5792C75.5373 28.7235 75.9117 28.8678 76.3438 29.0122C76.6606 29.1276 76.9054 29.2576 77.0782 29.4019C77.251 29.5174 77.3374 29.6906 77.3374 29.9215C77.3374 30.1236 77.2654 30.2824 77.1214 30.3978C76.9774 30.5133 76.7614 30.571 76.4734 30.571C75.8974 30.571 75.3213 30.5566 74.7453 30.5277C74.1692 30.4989 73.6076 30.4844 73.0604 30.4844C72.5131 30.4556 71.9803 30.4411 71.4619 30.4411C70.9722 30.4411 70.4682 30.4556 69.9498 30.4844C69.4601 30.5133 68.9417 30.5422 68.3945 30.571C67.876 30.6288 67.3288 30.6576 66.7528 30.6576Z" fill="var(--fill-0, #131111)"/>
<path d="M78.1981 30.6576C77.9101 30.6576 77.6941 30.5999 77.5501 30.4844C77.4061 30.369 77.3341 30.2102 77.3341 30.0081C77.3341 29.7772 77.4205 29.604 77.5933 29.4885C77.7661 29.3442 78.0109 29.2143 78.3277 29.0988C78.7598 28.9544 79.1342 28.8101 79.451 28.6658C79.7678 28.4926 79.9262 28.0884 79.9262 27.4533V6.88498C79.9262 6.10555 79.8254 5.42715 79.6238 4.8498C79.451 4.27244 79.0046 3.91159 78.2845 3.76725C77.9677 3.70952 77.8093 3.47858 77.8093 3.07443C77.8093 2.69914 77.9533 2.48263 78.2413 2.4249C78.9614 2.28056 79.7822 2.06405 80.7039 1.77537C81.6543 1.45783 82.5472 1.14028 83.3824 0.822733C84.2465 0.505188 84.8945 0.274245 85.3266 0.129906C85.5858 0.0433021 85.7874 0 85.9314 0C86.133 0 86.2626 0.0577358 86.3202 0.173207C86.3778 0.288679 86.4066 0.418584 86.4066 0.562923C86.4066 0.764997 86.3778 1.11141 86.3202 1.60217C86.2626 2.06405 86.2194 2.49707 86.1906 2.90122V27.3667C86.1906 28.0018 86.349 28.406 86.6658 28.5792C86.9827 28.7235 87.3571 28.8678 87.7891 29.0122C88.1059 29.1276 88.3508 29.2576 88.5236 29.4019C88.6964 29.5174 88.7828 29.6906 88.7828 29.9215C88.7828 30.1236 88.7108 30.2824 88.5668 30.3978C88.4228 30.5133 88.2067 30.571 87.9187 30.571C87.3427 30.571 86.7667 30.5566 86.1906 30.5277C85.6146 30.4989 85.0529 30.4844 84.5057 30.4844C83.9585 30.4556 83.4256 30.4411 82.9072 30.4411C82.4176 30.4411 81.9135 30.4556 81.3951 30.4844C80.9055 30.5133 80.3871 30.5422 79.8398 30.571C79.3214 30.6288 78.7742 30.6576 78.1981 30.6576Z" fill="var(--fill-0, #131111)"/>
<path d="M96.4033 31.134C94.848 31.134 93.4512 30.7154 92.2127 29.8782C90.9742 29.041 89.9949 27.9152 89.2749 26.5007C88.5548 25.0573 88.1948 23.4407 88.1948 21.6509C88.1948 19.7745 88.6268 18.0857 89.4909 16.5846C90.3838 15.0834 91.5646 13.8854 93.0335 12.9905C94.5024 12.0956 96.1441 11.6482 97.9586 11.6482C100.436 11.6482 102.466 12.4853 104.05 14.1597C104.281 14.4484 104.396 14.7082 104.396 14.9391C104.396 15.1123 104.266 15.3721 104.007 15.7185C103.748 16.0361 103.445 16.3392 103.1 16.6279C102.783 16.8877 102.509 17.0176 102.279 17.0176C101.991 17.0176 101.717 16.931 101.458 16.7578C101.199 16.5846 100.954 16.3969 100.724 16.1949C99.946 15.5309 99.1683 15.0113 98.3907 14.636C97.6418 14.2318 96.9794 14.0298 96.4033 14.0298C95.3953 14.0298 94.6464 14.4484 94.1568 15.2855C93.6672 16.0938 93.4224 17.5228 93.4224 19.5724C93.4224 20.9869 93.624 22.1994 94.0272 23.2097C94.4304 24.2201 95.0353 24.9996 95.8417 25.548C96.6482 26.0677 97.6418 26.3275 98.8227 26.3275C99.6867 26.3275 100.436 26.1831 101.069 25.8945C101.732 25.6058 102.409 25.2016 103.1 24.682C103.244 24.5665 103.373 24.4655 103.489 24.3789C103.604 24.2923 103.733 24.249 103.877 24.249C104.223 24.249 104.396 24.4799 104.396 24.9418C104.396 25.0573 104.381 25.2161 104.353 25.4181C104.324 25.6202 104.252 25.8512 104.137 26.111C103.906 26.6883 103.417 27.3811 102.668 28.1894C101.919 28.9689 101.012 29.6617 99.946 30.2679C98.8803 30.8453 97.6994 31.134 96.4033 31.134Z" fill="var(--fill-0, #131111)"/>
<path d="M105.524 30.6576C105.322 30.6576 105.121 30.5999 104.919 30.4844C104.746 30.369 104.66 30.2102 104.66 30.0081C104.66 29.7772 104.746 29.5895 104.919 29.4452C105.121 29.3009 105.365 29.1854 105.653 29.0988C106.316 28.8967 106.748 28.6946 106.95 28.4926C107.151 28.2616 107.252 27.9152 107.252 27.4533V17.364C107.252 16.7866 107.18 16.3248 107.036 15.9783C106.892 15.6319 106.575 15.3866 106.085 15.2422C105.941 15.1845 105.797 15.1123 105.653 15.0257C105.538 14.9102 105.481 14.7082 105.481 14.4195C105.481 13.9865 105.668 13.7267 106.042 13.6401C106.993 13.4091 108.044 13.1204 109.196 12.774C110.377 12.3987 111.399 12.009 112.263 11.6049C112.407 11.5183 112.595 11.4172 112.825 11.3018C113.056 11.1863 113.228 11.1286 113.344 11.1286C113.632 11.1286 113.776 11.3018 113.776 11.6482C113.776 11.7925 113.761 12.0956 113.732 12.5575C113.732 13.0194 113.718 13.4957 113.689 13.9865C113.66 14.4484 113.646 14.8236 113.646 15.1123C113.646 15.401 113.704 15.5453 113.819 15.5453C114.251 14.9391 114.755 14.3329 115.331 13.7267C115.936 13.1204 116.584 12.6152 117.275 12.2111C117.995 11.8069 118.715 11.6049 119.435 11.6049C120.501 11.6049 121.25 11.8069 121.682 12.2111C122.114 12.6152 122.33 13.1349 122.33 13.77C122.33 14.2318 122.2 14.7515 121.941 15.3288C121.682 15.8773 121.35 16.3536 120.947 16.7578C120.544 17.1619 120.112 17.364 119.651 17.364C119.363 17.364 119.061 17.2918 118.744 17.1475C118.456 17.0032 118.153 16.8588 117.837 16.7145C117.549 16.5701 117.261 16.4402 116.973 16.3248C116.685 16.1804 116.425 16.1083 116.195 16.1083C115.446 16.1083 114.812 16.3969 114.294 16.9743C113.776 17.5228 113.516 18.6342 113.516 20.3085V26.977C113.516 27.6121 113.689 28.074 114.035 28.3627C114.38 28.6513 114.956 28.9111 115.763 29.1421C116.08 29.2287 116.31 29.3442 116.454 29.4885C116.627 29.604 116.713 29.7772 116.713 30.0081C116.713 30.4411 116.483 30.6576 116.022 30.6576C115.158 30.6576 114.208 30.6143 113.171 30.5277C112.134 30.47 111.241 30.4411 110.492 30.4411C110.003 30.4411 109.484 30.4556 108.937 30.4844C108.39 30.5133 107.828 30.5422 107.252 30.571C106.676 30.6288 106.1 30.6576 105.524 30.6576Z" fill="var(--fill-0, #131111)"/>
<path d="M130.797 31.134C129.04 31.134 127.456 30.7442 126.045 29.9648C124.633 29.1854 123.51 28.1028 122.675 26.7172C121.84 25.3315 121.422 23.7582 121.422 21.9973C121.422 20.5828 121.681 19.2548 122.2 18.0135C122.747 16.7433 123.481 15.6319 124.403 14.6793C125.354 13.7267 126.448 12.9761 127.686 12.4276C128.954 11.8791 130.307 11.6049 131.748 11.6049C133.562 11.6049 135.189 12.0235 136.629 12.8606C138.098 13.6978 139.265 14.8092 140.129 16.1949C140.993 17.5805 141.425 19.0961 141.425 20.7415C141.425 22.618 141.022 24.35 140.215 25.9378C139.438 27.5255 138.257 28.7957 136.673 29.7483C135.117 30.6721 133.159 31.134 130.797 31.134ZM131.618 29.0988C132.136 29.0988 132.583 28.9977 132.957 28.7957C133.332 28.5647 133.648 28.2472 133.908 27.843C134.253 27.2657 134.498 26.4718 134.642 25.4614C134.786 24.4511 134.858 23.2242 134.858 21.7808C134.858 20.1642 134.7 18.7497 134.383 17.5372C134.066 16.3248 133.62 15.3721 133.044 14.6793C132.496 13.9865 131.848 13.6401 131.1 13.6401C130.725 13.6401 130.379 13.7122 130.063 13.8566C129.746 13.972 129.472 14.1452 129.242 14.3762C128.752 14.8958 128.407 15.7041 128.205 16.8011C128.032 17.8692 127.946 19.2404 127.946 20.9148C127.946 22.2715 128.104 23.585 128.421 24.8552C128.738 26.0965 129.17 27.1213 129.717 27.9296C130.293 28.7091 130.927 29.0988 131.618 29.0988Z" fill="var(--fill-0, #131111)"/>
<path d="M150.68 31.9134C150.536 31.9134 150.378 31.8701 150.205 31.7835C150.061 31.7258 149.96 31.6103 149.903 31.4371L143.595 16.065C143.336 15.401 143.034 14.8525 142.688 14.4195C142.371 13.9576 141.939 13.6256 141.392 13.4235C141.104 13.3081 140.902 13.1926 140.787 13.0771C140.672 12.9328 140.614 12.7307 140.614 12.4709C140.614 12.24 140.744 12.0956 141.003 12.0379C141.262 11.9802 141.493 11.9513 141.694 11.9513C142.414 11.9513 142.976 11.9802 143.379 12.0379C143.811 12.0668 144.214 12.1101 144.589 12.1678C144.992 12.1967 145.511 12.2111 146.144 12.2111C146.778 12.2111 147.296 12.1967 147.699 12.1678C148.131 12.1101 148.564 12.0668 148.996 12.0379C149.456 11.9802 150.032 11.9513 150.724 11.9513C150.925 11.9513 151.141 11.9946 151.372 12.0812C151.631 12.1678 151.761 12.3266 151.761 12.5575C151.761 12.8173 151.66 12.9905 151.458 13.0771C151.256 13.1637 151.04 13.2648 150.81 13.3802C150.493 13.4957 150.263 13.6834 150.119 13.9432C149.975 14.1741 149.903 14.5494 149.903 15.069C149.903 15.6175 150.004 16.166 150.205 16.7145L152.538 23.0365C152.538 23.0654 152.567 23.0798 152.625 23.0798C152.682 23.0798 152.711 23.0654 152.711 23.0365L155.562 16.2815C155.62 16.1371 155.663 15.9784 155.692 15.8051C155.75 15.6031 155.778 15.401 155.778 15.1989C155.778 14.9391 155.634 14.636 155.346 14.2896C155.087 13.9432 154.713 13.6689 154.223 13.4668C153.935 13.3514 153.733 13.2359 153.618 13.1204C153.503 12.9761 153.445 12.774 153.445 12.5142C153.445 12.2833 153.575 12.1389 153.834 12.0812C154.122 12.0235 154.396 11.9946 154.655 11.9946C155.433 11.9946 156.182 12.0235 156.902 12.0812C157.65 12.1389 158.212 12.1678 158.587 12.1678C159.335 12.1678 160.041 12.1389 160.703 12.0812C161.366 12.0235 162.144 11.9946 163.036 11.9946C163.238 11.9946 163.454 12.0379 163.684 12.1245C163.944 12.2111 164.073 12.3699 164.073 12.6008C164.073 12.8606 163.972 13.0338 163.771 13.1204C163.569 13.207 163.353 13.3081 163.123 13.4235C162.806 13.539 162.561 13.6978 162.388 13.8999C162.216 14.1019 162.129 14.4051 162.129 14.8092C162.129 15.1845 162.172 15.5453 162.259 15.8917C162.345 16.2093 162.432 16.4835 162.518 16.7145L164.937 23.1231C164.937 23.152 164.966 23.1664 165.024 23.1664C165.081 23.1664 165.11 23.152 165.11 23.1231L167.313 17.2341C167.429 16.9166 167.515 16.6134 167.573 16.3248C167.63 16.0072 167.645 15.7041 167.616 15.4154C167.616 14.9824 167.515 14.5927 167.313 14.2463C167.112 13.8999 166.809 13.6545 166.406 13.5101C166.176 13.4235 165.96 13.3369 165.758 13.2503C165.557 13.1349 165.456 12.9472 165.456 12.6874C165.456 12.4565 165.571 12.2977 165.801 12.2111C166.061 12.1245 166.291 12.0812 166.493 12.0812C167.357 12.1101 167.962 12.1389 168.307 12.1678C168.682 12.1678 169.056 12.1678 169.43 12.1678C169.661 12.1678 169.877 12.1678 170.078 12.1678C170.309 12.1678 170.597 12.1678 170.943 12.1678C171.288 12.1389 171.735 12.1101 172.282 12.0812C172.483 12.0812 172.714 12.1101 172.973 12.1678C173.232 12.2255 173.362 12.3699 173.362 12.6008C173.362 12.8606 173.304 13.0627 173.189 13.207C173.074 13.3225 172.872 13.438 172.584 13.5535C172.037 13.7555 171.547 14.0875 171.115 14.5494C170.683 14.9824 170.338 15.5309 170.078 16.1949L163.944 31.4371C163.828 31.6969 163.569 31.8268 163.166 31.8268C162.82 31.8268 162.576 31.6969 162.432 31.4371L156.815 18.7497C156.815 18.7208 156.786 18.7064 156.729 18.7064C156.671 18.7064 156.642 18.7208 156.642 18.7497L151.501 31.4371C151.357 31.7546 151.084 31.9134 150.68 31.9134Z" fill="var(--fill-0, #131111)"/>
<path d="M187.013 31.3505C186.927 31.3505 186.797 31.2494 186.624 31.0474C186.451 30.8453 186.365 30.6865 186.365 30.571C186.451 30.0803 186.509 29.6617 186.538 29.3153C186.566 28.94 186.595 28.608 186.624 28.3194V28.0595C185.99 29.0122 185.155 29.7627 184.118 30.3112C183.081 30.8597 182.001 31.134 180.878 31.134C179.294 31.134 177.868 30.7442 176.601 29.9648C175.334 29.1565 174.326 28.0595 173.577 26.6739C172.828 25.2882 172.454 23.7438 172.454 22.0406C172.454 20.0198 172.9 18.2445 173.793 16.7145C174.686 15.1556 175.924 13.9432 177.508 13.0771C179.092 12.2111 180.907 11.7781 182.952 11.7781C183.355 11.7781 183.773 11.8069 184.205 11.8647C184.666 11.9224 185.098 12.009 185.501 12.1245C185.933 12.2111 186.12 12.2544 186.062 12.2544C186.178 12.2544 186.235 12.0956 186.235 11.7781V6.88498C186.235 5.87461 186.12 5.13848 185.89 4.67659C185.659 4.18584 185.242 3.88273 184.637 3.76725C184.291 3.68065 184.118 3.44971 184.118 3.07443C184.118 2.69914 184.277 2.48263 184.594 2.4249C185.63 2.19396 186.754 1.89084 187.963 1.51556C189.202 1.14028 190.224 0.779432 191.031 0.433017C191.463 0.230943 191.751 0.115472 191.895 0.086605C192.039 0.0288683 192.125 0 192.154 0C192.5 0 192.672 0.187641 192.672 0.562923C192.672 0.418584 192.658 0.490754 192.629 0.779432C192.6 1.03924 192.572 1.38566 192.543 1.81867C192.514 2.22282 192.485 2.58367 192.456 2.90122L192.197 25.2449C192.197 26.2264 192.269 26.9337 192.413 27.3667C192.557 27.7709 192.816 27.9729 193.191 27.9729C193.335 27.9729 193.465 27.9729 193.58 27.9729C193.724 27.9441 194.156 27.9008 194.876 27.843C195.25 27.8142 195.437 27.9729 195.437 28.3194C195.437 28.5503 195.337 28.8101 195.135 29.0988C194.962 29.3586 194.804 29.4885 194.66 29.4885C193.565 29.604 192.413 29.806 191.204 30.0947C189.994 30.3545 188.856 30.6865 187.791 31.0907C187.618 31.1773 187.459 31.235 187.315 31.2639C187.2 31.3216 187.099 31.3505 187.013 31.3505ZM183.254 28.0162C183.6 28.0162 184.09 27.9296 184.723 27.7564C185.357 27.5544 185.861 27.2657 186.235 26.8904L186.192 16.8877C186.192 16.4547 186.005 16.0072 185.63 15.5453C185.256 15.0834 184.795 14.6937 184.248 14.3762C183.701 14.0586 183.182 13.8999 182.693 13.8999C182.001 13.8999 181.382 14.203 180.835 14.8092C180.316 15.3866 179.899 16.1949 179.582 17.2341C179.265 18.2733 179.107 19.4714 179.107 20.8281C179.107 21.8963 179.208 22.8778 179.409 23.7727C179.611 24.6387 179.899 25.3893 180.273 26.0244C180.648 26.6595 181.08 27.1502 181.569 27.4966C182.088 27.843 182.649 28.0162 183.254 28.0162Z" fill="var(--fill-0, #131111)"/>
<path d="M209.217 31.3505C209.13 31.3505 209.001 31.2494 208.828 31.0474C208.655 30.8453 208.569 30.6865 208.569 30.571C208.655 30.0803 208.713 29.6617 208.742 29.3153C208.77 28.94 208.799 28.608 208.828 28.3194V28.0595C208.194 29.0122 207.359 29.7627 206.322 30.3112C205.285 30.8597 204.205 31.134 203.082 31.134C201.498 31.134 200.072 30.7442 198.805 29.9648C197.538 29.1565 196.53 28.0595 195.781 26.6739C195.032 25.2882 194.657 23.7438 194.657 22.0406C194.657 20.0198 195.104 18.2445 195.997 16.7145C196.89 15.1556 198.128 13.9432 199.712 13.0771C201.296 12.2111 203.111 11.7781 205.156 11.7781C205.559 11.7781 205.977 11.8069 206.409 11.8647C206.869 11.9224 207.301 12.009 207.705 12.1245C208.137 12.2111 208.324 12.2544 208.266 12.2544C208.382 12.2544 208.439 12.0956 208.439 11.7781V6.88498C208.439 5.87461 208.324 5.13848 208.093 4.67659C207.863 4.18584 207.445 3.88273 206.841 3.76725C206.495 3.68065 206.322 3.44971 206.322 3.07443C206.322 2.69914 206.481 2.48263 206.797 2.4249C207.834 2.19396 208.958 1.89084 210.167 1.51556C211.406 1.14028 212.428 0.779432 213.235 0.433017C213.667 0.230943 213.955 0.115472 214.099 0.086605C214.243 0.0288683 214.329 0 214.358 0C214.704 0 214.876 0.187641 214.876 0.562923C214.876 0.418584 214.862 0.490754 214.833 0.779432C214.804 1.03924 214.775 1.38566 214.747 1.81867C214.718 2.22282 214.689 2.58367 214.66 2.90122L214.401 25.2449C214.401 26.2264 214.473 26.9337 214.617 27.3667C214.761 27.7709 215.02 27.9729 215.395 27.9729C215.539 27.9729 215.668 27.9729 215.784 27.9729C215.928 27.9441 216.36 27.9008 217.08 27.843C217.454 27.8142 217.641 27.9729 217.641 28.3194C217.641 28.5503 217.54 28.8101 217.339 29.0988C217.166 29.3586 217.008 29.4885 216.864 29.4885C215.769 29.604 214.617 29.806 213.407 30.0947C212.198 30.3545 211.06 30.6865 209.994 31.0907C209.822 31.1773 209.663 31.235 209.519 31.2639C209.404 31.3216 209.303 31.3505 209.217 31.3505ZM205.458 28.0162C205.804 28.0162 206.293 27.9296 206.927 27.7564C207.561 27.5544 208.065 27.2657 208.439 26.8904L208.396 16.8877C208.396 16.4547 208.209 16.0072 207.834 15.5453C207.46 15.0834 206.999 14.6937 206.452 14.3762C205.905 14.0586 205.386 13.8999 204.896 13.8999C204.205 13.8999 203.586 14.203 203.039 14.8092C202.52 15.3866 202.103 16.1949 201.786 17.2341C201.469 18.2733 201.311 19.4714 201.311 20.8281C201.311 21.8963 201.411 22.8778 201.613 23.7727C201.815 24.6387 202.103 25.3893 202.477 26.0244C202.852 26.6595 203.284 27.1502 203.773 27.4966C204.292 27.843 204.853 28.0162 205.458 28.0162Z" fill="var(--fill-0, #131111)"/>
<path d="M222.155 32C221.147 32 220.268 31.6247 219.52 30.8742C218.8 30.1525 218.44 29.2864 218.44 28.276C218.44 27.1791 218.8 26.2697 219.52 25.548C220.268 24.7975 221.147 24.4222 222.155 24.4222C223.249 24.4222 224.157 24.7975 224.877 25.548C225.626 26.2697 226 27.1791 226 28.276C226 29.2864 225.626 30.1525 224.877 30.8742C224.157 31.6247 223.249 32 222.155 32Z" fill="var(--fill-0, #131111)"/>
</g>
</svg>
