<svg width="64" height="32" viewBox="0 0 64 32" fill="none" xmlns="http://www.w3.org/2000/svg">
<path d="M9.69662 30.9119C8.14004 30.9119 6.62923 30.7291 5.16421 30.3636C3.74497 30.0437 2.41729 29.4726 1.18118 28.6501C0.723355 27.919 0.402881 26.7995 0.219754 25.2916C0.0366256 23.738 -0.0320474 22.0702 0.0137346 20.2881C0.0137346 19.6941 0.494445 19.3971 1.45587 19.3971C1.8679 19.3971 2.21127 19.5341 2.48596 19.8083C2.80644 20.0825 3.01245 20.3338 3.10402 20.5623C4.01966 22.39 5.02686 24.035 6.12563 25.4972C7.2244 26.9137 8.62075 27.622 10.3147 27.622C11.505 27.622 12.3749 27.2564 12.9243 26.5253C13.5194 25.7942 13.817 24.9946 13.817 24.1264C13.817 22.9383 13.3363 21.9559 12.3749 21.1791C11.4134 20.4023 10.3605 19.7398 9.21591 19.1914C7.93402 18.5517 6.67501 17.8206 5.4389 16.9981C4.20279 16.1299 3.17269 15.0561 2.34862 13.7767C1.52454 12.4973 1.1125 10.9437 1.1125 9.11593C1.1125 7.24248 1.6161 5.6432 2.62331 4.31807C3.67629 2.94726 5.07264 1.8963 6.81236 1.16519C8.55207 0.388398 10.452 0 12.5122 0C14.0688 0 15.5109 0.182776 16.8386 0.548326C18.2121 0.868184 19.1506 1.18804 19.6542 1.5079C20.0205 1.96484 20.2952 2.85587 20.4783 4.18099C20.7072 5.46042 20.8216 6.92263 20.8216 8.56761C20.8216 9.07024 20.3638 9.32156 19.4482 9.32156C19.1277 9.32156 18.7843 9.20732 18.4181 8.97885C18.0518 8.70469 17.8229 8.45337 17.7314 8.2249C17.1362 6.39715 16.3579 5.02633 15.3965 4.11245C14.4808 3.19857 13.4736 2.74163 12.3749 2.74163C11.3677 2.74163 10.452 3.06149 9.62795 3.70121C8.84966 4.34092 8.46051 5.18626 8.46051 6.23722C8.46051 7.1511 8.91833 7.99643 9.83397 8.77323C10.7954 9.50433 11.8942 10.1897 13.1303 10.8295C16.1519 12.383 18.3036 13.8909 19.5855 15.3532C20.8674 16.8154 21.5084 18.7802 21.5084 21.2477C21.5084 24.3092 20.5241 26.6852 18.5554 28.3759C16.5868 30.0666 13.6339 30.9119 9.69662 30.9119Z" fill="#131111"/>
<path d="M36.9141 30.9119C34.4419 30.9119 32.2215 30.2494 30.2528 28.9242C28.2842 27.5991 26.7276 25.8171 25.5831 23.5781C24.4385 21.2934 23.8662 18.7345 23.8662 15.9015C23.8662 12.9314 24.553 10.2583 25.9264 7.8822C27.3457 5.50612 29.2227 3.60982 31.5576 2.19331C33.8925 0.776795 36.5021 0.0685396 39.3863 0.0685396C43.3236 0.0685396 46.5512 1.39366 49.0692 4.04391C49.4355 4.50085 49.6186 4.91209 49.6186 5.27765C49.6186 5.55181 49.4126 5.96305 49.0005 6.51138C48.5885 7.01401 48.1078 7.4938 47.5584 7.95074C47.0548 8.36198 46.6199 8.56761 46.2536 8.56761C45.7958 8.56761 45.3609 8.43053 44.9488 8.15636C44.5368 7.8822 44.1477 7.58519 43.7814 7.26533C42.5453 6.21437 41.3092 5.39188 40.0731 4.79786C38.8827 4.15814 37.8297 3.83829 36.9141 3.83829C35.3117 3.83829 34.1214 4.50085 33.3431 5.82597C32.5648 7.1054 32.1757 9.36725 32.1757 12.6115C32.1757 14.8505 32.4962 16.7697 33.1371 18.3689C33.778 19.9682 34.7395 21.202 36.0214 22.0702C37.3033 22.8926 38.8827 23.3039 40.7598 23.3039C42.1333 23.3039 43.3236 23.0754 44.3308 22.6185C45.3838 22.1615 46.4596 21.5218 47.5584 20.6993C47.7873 20.5166 47.9933 20.3566 48.1765 20.2196C48.3596 20.0825 48.5656 20.0139 48.7945 20.0139C49.3439 20.0139 49.6186 20.3795 49.6186 21.1106C49.6186 21.2934 49.5957 21.5447 49.5499 21.8645C49.5042 22.1844 49.3897 22.5499 49.2066 22.9612C48.8403 23.8751 48.062 24.9717 46.8717 26.2511C45.6814 27.4849 44.2392 28.5815 42.5453 29.5411C40.8513 30.455 38.9743 30.9119 36.9141 30.9119Z" fill="#131111"/>
<path d="M57.8881 32C56.2857 32 54.8894 31.406 53.6991 30.2179C52.5545 29.0756 51.9822 27.7048 51.9822 26.1055C51.9822 24.3691 52.5545 22.9298 53.6991 21.7874C54.8894 20.5994 56.2857 20.0054 57.8881 20.0054C59.6278 20.0054 61.0699 20.5994 62.2145 21.7874C63.4048 22.9298 64 24.3691 64 26.1055C64 27.7048 63.4048 29.0756 62.2145 30.2179C61.0699 31.406 59.6278 32 57.8881 32Z" fill="#131111"/>
</svg>
