<svg preserveAspectRatio="none" width="100%" height="100%" overflow="visible" style="display: block;" viewBox="0 0 156 17" fill="none" xmlns="http://www.w3.org/2000/svg">
<g id="Vector">
<path d="M3.20555 16.5399C2.69096 16.5399 2.19152 16.4786 1.7072 16.3559C1.23802 16.2485 0.799116 16.0568 0.390477 15.7808C0.239129 15.5354 0.133186 15.1597 0.0726469 14.6536C0.0121078 14.1322 -0.0105943 13.5724 0.00454043 12.9743C0.00454043 12.7749 0.163456 12.6752 0.481286 12.6752C0.617499 12.6752 0.73101 12.7212 0.821818 12.8133C0.927762 12.9053 0.995868 12.9896 1.02614 13.0663C1.32883 13.6797 1.6618 14.2318 2.02503 14.7226C2.38827 15.198 2.84988 15.4357 3.40986 15.4357C3.80337 15.4357 4.09093 15.313 4.27255 15.0677C4.4693 14.8223 4.56768 14.5539 4.56768 14.2625C4.56768 13.8638 4.40876 13.5341 4.09093 13.2733C3.7731 13.0126 3.425 12.7903 3.04663 12.6062C2.62286 12.3915 2.20665 12.1461 1.79801 11.8701C1.38937 11.5787 1.04884 11.2183 0.776414 10.7889C0.503988 10.3595 0.367775 9.83807 0.367775 9.22463C0.367775 8.59585 0.534258 8.05909 0.867223 7.61434C1.21532 7.15426 1.67693 6.80153 2.25205 6.55616C2.82718 6.29545 3.45527 6.16509 4.13633 6.16509C4.65092 6.16509 5.12766 6.22643 5.56657 6.34912C6.02061 6.45647 6.33088 6.56383 6.49736 6.67118C6.61844 6.82454 6.70925 7.12359 6.76979 7.56834C6.84546 7.99774 6.8833 8.4885 6.8833 9.0406C6.8833 9.20929 6.73195 9.29364 6.42925 9.29364C6.32331 9.29364 6.2098 9.2553 6.08872 9.17862C5.96764 9.0866 5.89197 9.00226 5.8617 8.92558C5.66495 8.31213 5.40765 7.85205 5.08982 7.54533C4.78713 7.23861 4.45416 7.08525 4.09093 7.08525C3.75796 7.08525 3.45527 7.1926 3.18284 7.40731C2.92555 7.62201 2.79691 7.90573 2.79691 8.25846C2.79691 8.56518 2.94825 8.8489 3.25095 9.10961C3.56878 9.35498 3.93201 9.58503 4.34065 9.79973C5.33955 10.3212 6.05088 10.8272 6.47466 11.318C6.89843 11.8088 7.11032 12.4682 7.11032 13.2963C7.11032 14.3239 6.78492 15.1213 6.13412 15.6888C5.48333 16.2562 4.50714 16.5399 3.20555 16.5399Z" fill="var(--fill-0, #D93C42)"/>
<path d="M7.93132 16.2869C7.84051 16.2869 7.74213 16.2562 7.63619 16.1949C7.53025 16.1335 7.47728 16.0492 7.47728 15.9418C7.47728 15.8191 7.53025 15.7194 7.63619 15.6428C7.75727 15.5661 7.87835 15.5047 7.99943 15.4587C8.22645 15.382 8.4232 15.2977 8.58968 15.2057C8.75616 15.0983 8.83941 14.8913 8.83941 14.5846V9.24763C8.83941 8.94091 8.794 8.6802 8.70319 8.46549C8.61238 8.23545 8.43833 8.09743 8.18104 8.05142C8.1205 8.03609 8.05996 7.99774 7.99943 7.9364C7.93889 7.87506 7.90862 7.7677 7.90862 7.61434C7.90862 7.3843 7.99186 7.24628 8.15834 7.20027C8.52158 7.10826 8.93021 7.0009 9.38426 6.87821C9.8383 6.74019 10.2772 6.5945 10.701 6.44114C11.1399 6.28778 11.5031 6.13442 11.7907 5.98106C11.8512 5.95038 11.9042 5.91971 11.9496 5.88904C11.995 5.85837 12.0404 5.84303 12.0858 5.84303C12.2372 5.84303 12.3128 5.93505 12.3128 6.11908C12.3128 6.24177 12.2901 6.4488 12.2447 6.74019C12.2145 7.01624 12.1993 7.26162 12.1993 7.47632C12.1993 7.62968 12.2145 7.7217 12.2447 7.75237H12.2901C12.7744 7.26162 13.289 6.87821 13.8339 6.60217C14.3787 6.32612 14.9766 6.18809 15.6274 6.18809C16.0814 6.18809 16.5052 6.36446 16.8987 6.71719C17.3073 7.06992 17.6024 7.49932 17.7841 8.00541H17.8976C18.3365 7.42264 18.8359 6.9779 19.3959 6.67118C19.9559 6.34912 20.584 6.18809 21.2802 6.18809C21.7494 6.18809 22.1731 6.31845 22.5515 6.57916C22.945 6.83987 23.2553 7.21561 23.4823 7.70636C23.7245 8.19711 23.8455 8.79522 23.8455 9.50068V14.6076C23.8455 14.9143 23.9288 15.1137 24.0953 15.2057C24.2617 15.2977 24.4585 15.382 24.6855 15.4587C24.8066 15.5047 24.9125 15.5661 25.0033 15.6428C25.0942 15.7194 25.1396 15.8191 25.1396 15.9418C25.1396 16.0492 25.0942 16.1335 25.0033 16.1949C24.9277 16.2562 24.8444 16.2869 24.7536 16.2869C24.4509 16.2869 24.1558 16.2715 23.8682 16.2409C23.5807 16.2255 23.3007 16.2102 23.0283 16.1949C22.7558 16.1795 22.4834 16.1719 22.211 16.1719C21.9537 16.1719 21.704 16.1795 21.4618 16.1949C21.2348 16.2102 21.0002 16.2255 20.758 16.2409C20.5159 16.2715 20.2435 16.2869 19.9408 16.2869C19.85 16.2869 19.7667 16.2562 19.691 16.1949C19.6154 16.1335 19.5775 16.0492 19.5775 15.9418C19.5775 15.8191 19.6154 15.7194 19.691 15.6428C19.7818 15.5661 19.8878 15.5047 20.0089 15.4587C20.2056 15.3974 20.3418 15.3207 20.4175 15.2287C20.5083 15.1367 20.5537 14.9833 20.5537 14.7686V10.0758C20.5537 9.69238 20.5083 9.37032 20.4175 9.10961C20.3267 8.83356 20.1905 8.62652 20.0089 8.4885C19.8424 8.33514 19.6456 8.25846 19.4186 8.25846C19.2673 8.25846 19.0856 8.30447 18.8738 8.39648C18.6619 8.47316 18.45 8.60352 18.2381 8.78755C18.0716 8.94091 17.9884 9.20929 17.9884 9.59269V14.6076C17.9884 14.9143 18.0338 15.1137 18.1246 15.2057C18.2154 15.2977 18.3743 15.382 18.6013 15.4587C18.7224 15.5047 18.8284 15.5661 18.9192 15.6428C19.01 15.7194 19.0554 15.8191 19.0554 15.9418C19.0554 16.0492 19.01 16.1335 18.9192 16.1949C18.8435 16.2562 18.7603 16.2869 18.6694 16.2869C18.3667 16.2869 18.0868 16.2715 17.8295 16.2409C17.5873 16.2255 17.3451 16.2102 17.103 16.1949C16.876 16.1795 16.6262 16.1719 16.3538 16.1719C16.0965 16.1719 15.8468 16.1795 15.6047 16.1949C15.3776 16.2102 15.143 16.2255 14.9009 16.2409C14.6587 16.2715 14.3863 16.2869 14.0836 16.2869C13.9928 16.2869 13.9096 16.2562 13.8339 16.1949C13.7582 16.1335 13.7204 16.0492 13.7204 15.9418C13.7204 15.8191 13.7582 15.7194 13.8339 15.6428C13.9247 15.5661 14.0306 15.5047 14.1517 15.4587C14.3485 15.3974 14.4847 15.3207 14.5604 15.2287C14.6512 15.1367 14.6966 14.9833 14.6966 14.7686V10.0758C14.6966 9.69238 14.6512 9.37032 14.5604 9.10961C14.4695 8.8489 14.3409 8.64953 14.1744 8.5115C14.0079 8.35814 13.8112 8.28146 13.5842 8.28146C13.4328 8.28146 13.2512 8.3198 13.0393 8.39648C12.8274 8.47316 12.6004 8.59585 12.3582 8.76455C12.2069 8.8719 12.1312 9.11728 12.1312 9.50068V14.6076C12.1312 14.8683 12.1615 15.06 12.222 15.1827C12.2977 15.29 12.449 15.382 12.6761 15.4587C12.7971 15.5047 12.8955 15.5661 12.9712 15.6428C13.062 15.7194 13.1074 15.8191 13.1074 15.9418C13.1074 16.0338 13.0696 16.1182 12.9939 16.1949C12.9182 16.2562 12.835 16.2869 12.7442 16.2869C12.4415 16.2869 12.1615 16.2715 11.9042 16.2409C11.662 16.2255 11.4275 16.2102 11.2004 16.1949C10.9734 16.1795 10.7237 16.1719 10.4513 16.1719C10.194 16.1719 9.92911 16.1795 9.65668 16.1949C9.38426 16.2102 9.10426 16.2255 8.8167 16.2409C8.52914 16.2715 8.23401 16.2869 7.93132 16.2869Z" fill="var(--fill-0, #D93C42)"/>
<path d="M27.8065 16.5399C27.3676 16.5399 26.9665 16.4402 26.6033 16.2409C26.2401 16.0568 25.9525 15.8038 25.7406 15.4817C25.5287 15.1443 25.4228 14.7763 25.4228 14.3775C25.4228 13.8408 25.5893 13.3884 25.9222 13.0203C26.2703 12.6522 26.7698 12.3225 27.4206 12.0311L29.373 11.157C29.6757 11.0189 29.8649 10.8963 29.9405 10.7889C30.0162 10.6662 30.054 10.4592 30.054 10.1678L30.0767 8.90257C30.0919 8.45783 30.0238 8.12043 29.8724 7.89039C29.7211 7.64502 29.4865 7.52233 29.1687 7.52233C28.987 7.52233 28.7979 7.56834 28.6011 7.66035C28.4044 7.73703 28.2606 7.82905 28.1698 7.9364C28.1244 7.99774 28.0941 8.06676 28.079 8.14344C28.0638 8.22012 28.0563 8.2968 28.0563 8.37348C28.0563 8.46549 28.0638 8.58818 28.079 8.74154C28.0941 8.87957 28.1017 8.99459 28.1017 9.08661C28.1017 9.19396 27.973 9.32431 27.7157 9.47767C27.4584 9.6157 27.1633 9.74605 26.8303 9.86874C26.4974 9.97609 26.2098 10.0298 25.9677 10.0298C25.8466 10.0298 25.7406 9.98376 25.6498 9.89175C25.5741 9.78439 25.5363 9.65404 25.5363 9.50068C25.5363 9.2553 25.6196 9.01759 25.786 8.78755C25.9525 8.55751 26.2325 8.28146 26.626 7.9594C27.0347 7.62201 27.4811 7.32296 27.9654 7.06225C28.4498 6.80153 28.9265 6.5945 29.3957 6.44114C29.8649 6.27244 30.2659 6.18809 30.5989 6.18809C31.4616 6.18809 32.1502 6.47181 32.6648 7.03924C33.1794 7.59134 33.4215 8.33514 33.3913 9.27064L33.2777 13.7334C33.2626 14.0862 33.3156 14.3929 33.4367 14.6536C33.5729 14.899 33.7394 15.0217 33.9361 15.0217C34.2085 15.0217 34.4507 14.922 34.6626 14.7226C34.708 14.6766 34.7534 14.6536 34.7988 14.6536C34.8745 14.6536 34.935 14.6843 34.9804 14.7456C35.041 14.7916 35.0712 14.853 35.0712 14.9296C35.0712 15.1137 34.9199 15.359 34.6172 15.6658C34.3296 15.9571 34.0194 16.1719 33.6864 16.3099C33.3534 16.4632 33.0053 16.5399 32.6421 16.5399C31.7643 16.5399 31.0302 16.0952 30.44 15.2057H30.3946C29.8951 15.6811 29.4487 16.0185 29.0551 16.2179C28.6616 16.4326 28.2454 16.5399 27.8065 16.5399ZM29.2141 14.9526C29.3503 14.9526 29.4638 14.9296 29.5546 14.8836C29.6454 14.8376 29.7286 14.7609 29.8043 14.6536C29.8497 14.5922 29.88 14.5156 29.8951 14.4235C29.9254 14.3315 29.9405 14.2318 29.9405 14.1245L30.0086 12.3532C30.0086 12.2152 29.9859 12.1308 29.9405 12.1001C29.8951 12.0541 29.8422 12.0311 29.7816 12.0311C29.7513 12.0311 29.7135 12.0388 29.6681 12.0541C29.6378 12.0541 29.6 12.0695 29.5546 12.1001C29.1914 12.2995 28.9114 12.5065 28.7146 12.7212C28.533 12.9206 28.4422 13.2887 28.4422 13.8254C28.4422 14.2702 28.5254 14.5692 28.6919 14.7226C28.8735 14.876 29.0476 14.9526 29.2141 14.9526Z" fill="var(--fill-0, #D93C42)"/>
<path d="M35.0772 16.2869C34.9259 16.2869 34.8124 16.2562 34.7367 16.1949C34.661 16.1335 34.6232 16.0492 34.6232 15.9418C34.6232 15.8191 34.6686 15.7271 34.7594 15.6658C34.8502 15.5891 34.9789 15.5201 35.1454 15.4587C35.3724 15.382 35.5691 15.3054 35.7356 15.2287C35.9021 15.1367 35.9853 14.922 35.9853 14.5846V3.65765C35.9853 3.24357 35.9324 2.88318 35.8264 2.57645C35.7356 2.26973 35.501 2.07803 35.1227 2.00135C34.9562 1.97068 34.8729 1.84799 34.8729 1.63329C34.8729 1.43392 34.9486 1.3189 35.1 1.28823C35.4783 1.21155 35.9097 1.09653 36.394 0.943167C36.8934 0.774471 37.3626 0.605774 37.8015 0.437077C38.2556 0.268381 38.5961 0.145693 38.8231 0.0690127C38.9593 0.0230042 39.0653 0 39.1409 0C39.2469 0 39.315 0.0306721 39.3453 0.0920164C39.3755 0.153361 39.3907 0.222373 39.3907 0.299053C39.3907 0.406405 39.3755 0.590437 39.3453 0.85115C39.315 1.09653 39.2923 1.32657 39.2771 1.54127V14.5386C39.2771 14.876 39.3604 15.0907 39.5269 15.1827C39.6934 15.2594 39.8901 15.336 40.1171 15.4127C40.2836 15.4741 40.4123 15.5431 40.5031 15.6198C40.5939 15.6811 40.6393 15.7731 40.6393 15.8958C40.6393 16.0032 40.6014 16.0875 40.5258 16.1489C40.4501 16.2102 40.3366 16.2409 40.1852 16.2409C39.8825 16.2409 39.5798 16.2332 39.2771 16.2179C38.9745 16.2025 38.6793 16.1949 38.3918 16.1949C38.1042 16.1795 37.8242 16.1719 37.5518 16.1719C37.2945 16.1719 37.0296 16.1795 36.7572 16.1949C36.4999 16.2102 36.2275 16.2255 35.9399 16.2409C35.6675 16.2715 35.3799 16.2869 35.0772 16.2869Z" fill="var(--fill-0, #D93C42)"/>
<path d="M41.0915 16.2869C40.9402 16.2869 40.8267 16.2562 40.751 16.1949C40.6753 16.1335 40.6375 16.0492 40.6375 15.9418C40.6375 15.8191 40.6829 15.7271 40.7737 15.6658C40.8645 15.5891 40.9932 15.5201 41.1597 15.4587C41.3867 15.382 41.5834 15.3054 41.7499 15.2287C41.9164 15.1367 41.9996 14.922 41.9996 14.5846V3.65765C41.9996 3.24357 41.9467 2.88318 41.8407 2.57645C41.7499 2.26973 41.5153 2.07803 41.1369 2.00135C40.9705 1.97068 40.8872 1.84799 40.8872 1.63329C40.8872 1.43392 40.9629 1.3189 41.1142 1.28823C41.4926 1.21155 41.924 1.09653 42.4083 0.943167C42.9077 0.774471 43.3769 0.605774 43.8158 0.437077C44.2698 0.268381 44.6104 0.145693 44.8374 0.0690127C44.9736 0.0230042 45.0796 0 45.1552 0C45.2612 0 45.3293 0.0306721 45.3596 0.0920164C45.3898 0.153361 45.405 0.222373 45.405 0.299053C45.405 0.406405 45.3898 0.590437 45.3596 0.85115C45.3293 1.09653 45.3066 1.32657 45.2915 1.54127V14.5386C45.2915 14.876 45.3747 15.0907 45.5412 15.1827C45.7077 15.2594 45.9044 15.336 46.1314 15.4127C46.2979 15.4741 46.4266 15.5431 46.5174 15.6198C46.6082 15.6811 46.6536 15.7731 46.6536 15.8958C46.6536 16.0032 46.6157 16.0875 46.5401 16.1489C46.4644 16.2102 46.3509 16.2409 46.1995 16.2409C45.8968 16.2409 45.5941 16.2332 45.2915 16.2179C44.9888 16.2025 44.6936 16.1949 44.4061 16.1949C44.1185 16.1795 43.8385 16.1719 43.5661 16.1719C43.3088 16.1719 43.0439 16.1795 42.7715 16.1949C42.5142 16.2102 42.2418 16.2255 41.9542 16.2409C41.6818 16.2715 41.3942 16.2869 41.0915 16.2869Z" fill="var(--fill-0, #D93C42)"/>
<path d="M50.658 16.5399C49.8407 16.5399 49.1067 16.3175 48.4559 15.8728C47.8051 15.4281 47.2905 14.83 46.9122 14.0785C46.5338 13.3117 46.3446 12.4529 46.3446 11.502C46.3446 10.5052 46.5716 9.60803 47.0257 8.81056C47.4949 8.01308 48.1154 7.37664 48.8873 6.90122C49.6591 6.4258 50.5218 6.18809 51.4753 6.18809C52.7769 6.18809 53.8439 6.63284 54.6763 7.52233C54.7974 7.67569 54.8579 7.81371 54.8579 7.9364C54.8579 8.02842 54.7898 8.16644 54.6536 8.35047C54.5174 8.51917 54.3585 8.6802 54.1769 8.83356C54.0104 8.97158 53.8666 9.0406 53.7455 9.0406C53.5942 9.0406 53.4504 8.99459 53.3142 8.90257C53.178 8.81056 53.0493 8.71087 52.9282 8.60352C52.5196 8.25079 52.111 7.97474 51.7023 7.77537C51.3088 7.56067 50.9607 7.45332 50.658 7.45332C50.1283 7.45332 49.7348 7.67569 49.4775 8.12043C49.2202 8.54984 49.0916 9.30898 49.0916 10.3978C49.0916 11.1493 49.1975 11.7934 49.4094 12.3302C49.6213 12.8669 49.9391 13.281 50.3629 13.5724C50.7867 13.8484 51.3088 13.9865 51.9293 13.9865C52.3834 13.9865 52.7769 13.9098 53.1099 13.7564C53.458 13.6031 53.8136 13.3884 54.1769 13.1123C54.2525 13.051 54.3206 12.9973 54.3812 12.9513C54.4417 12.9053 54.5098 12.8823 54.5855 12.8823C54.7671 12.8823 54.8579 13.005 54.8579 13.2503C54.8579 13.3117 54.8504 13.396 54.8352 13.5034C54.8201 13.6107 54.7823 13.7334 54.7217 13.8714C54.6006 14.1782 54.3433 14.5462 53.9498 14.9756C53.5563 15.3897 53.0796 15.7578 52.5196 16.0798C51.9596 16.3866 51.3391 16.5399 50.658 16.5399Z" fill="var(--fill-0, #D93C42)"/>
<path d="M55.4507 16.2869C55.3447 16.2869 55.2388 16.2562 55.1328 16.1949C55.042 16.1335 54.9966 16.0492 54.9966 15.9418C54.9966 15.8191 55.042 15.7194 55.1328 15.6428C55.2388 15.5661 55.3674 15.5047 55.5188 15.4587C55.8669 15.3514 56.0939 15.244 56.1998 15.1367C56.3058 15.014 56.3588 14.83 56.3588 14.5846V9.22463C56.3588 8.91791 56.3209 8.67253 56.2452 8.4885C56.1696 8.30447 56.0031 8.17411 55.7458 8.09743C55.6701 8.06676 55.5944 8.02842 55.5188 7.98241C55.4582 7.92106 55.428 7.81371 55.428 7.66035C55.428 7.43031 55.5263 7.29229 55.7231 7.24628C56.2225 7.12359 56.775 6.97023 57.3804 6.7862C58.0009 6.58683 58.5382 6.37979 58.9922 6.16509C59.0679 6.11908 59.1663 6.0654 59.2873 6.00406C59.4084 5.94272 59.4992 5.91204 59.5598 5.91204C59.7111 5.91204 59.7868 6.00406 59.7868 6.18809C59.7868 6.26477 59.7792 6.4258 59.7641 6.67118C59.7641 6.91655 59.7565 7.1696 59.7414 7.43031C59.7262 7.67569 59.7187 7.87506 59.7187 8.02842C59.7187 8.18178 59.7489 8.25846 59.8095 8.25846C60.0365 7.9364 60.3014 7.61434 60.6041 7.29229C60.9219 6.97023 61.2624 6.70185 61.6257 6.48715C62.004 6.27244 62.3824 6.16509 62.7608 6.16509C63.3207 6.16509 63.7143 6.27244 63.9413 6.48715C64.1683 6.70185 64.2818 6.9779 64.2818 7.31529C64.2818 7.56067 64.2137 7.83672 64.0775 8.14344C63.9413 8.43482 63.7672 8.68787 63.5553 8.90257C63.3435 9.11728 63.1164 9.22463 62.8743 9.22463C62.7229 9.22463 62.564 9.18629 62.3975 9.10961C62.2462 9.03293 62.0873 8.95625 61.9208 8.87957C61.7694 8.80289 61.6181 8.73388 61.4667 8.67253C61.3154 8.59585 61.1792 8.55751 61.0581 8.55751C60.6646 8.55751 60.3316 8.71087 60.0592 9.01759C59.7868 9.30898 59.6506 9.89941 59.6506 10.7889V14.3315C59.6506 14.6689 59.7414 14.9143 59.923 15.0677C60.1046 15.221 60.4073 15.359 60.8311 15.4817C60.9976 15.5277 61.1186 15.5891 61.1943 15.6658C61.2851 15.7271 61.3305 15.8191 61.3305 15.9418C61.3305 16.1719 61.2094 16.2869 60.9673 16.2869C60.5132 16.2869 60.0138 16.2639 59.469 16.2179C58.9241 16.1872 58.4549 16.1719 58.0614 16.1719C57.8041 16.1719 57.5317 16.1795 57.2441 16.1949C56.9566 16.2102 56.6614 16.2255 56.3588 16.2409C56.0561 16.2715 55.7534 16.2869 55.4507 16.2869Z" fill="var(--fill-0, #D93C42)"/>
<path d="M68.7312 16.5399C67.808 16.5399 66.9756 16.3329 66.234 15.9188C65.4924 15.5047 64.9022 14.9296 64.4632 14.1935C64.0243 13.4574 63.8049 12.6216 63.8049 11.6861C63.8049 10.9346 63.9411 10.2291 64.2135 9.56969C64.5011 8.8949 64.887 8.30447 65.3713 7.79838C65.8708 7.29229 66.4459 6.89355 67.0967 6.60217C67.7626 6.31078 68.474 6.16509 69.2307 6.16509C70.1842 6.16509 71.0393 6.38746 71.796 6.83221C72.5679 7.27695 73.1809 7.86739 73.6349 8.60352C74.089 9.33965 74.316 10.1448 74.316 11.0189C74.316 12.0158 74.1041 12.936 73.6803 13.7794C73.2717 14.6229 72.6512 15.2977 71.8187 15.8038C71.0015 16.2945 69.9723 16.5399 68.7312 16.5399ZM69.1626 15.4587C69.435 15.4587 69.6696 15.4051 69.8664 15.2977C70.0631 15.175 70.2296 15.0063 70.3658 14.7916C70.5474 14.4849 70.6761 14.0631 70.7517 13.5264C70.8274 12.9896 70.8653 12.3378 70.8653 11.571C70.8653 10.7122 70.782 9.96076 70.6155 9.31665C70.4491 8.67253 70.2145 8.16644 69.9118 7.79838C69.6242 7.43031 69.2837 7.24628 68.8902 7.24628C68.6934 7.24628 68.5118 7.28462 68.3453 7.3613C68.1788 7.42264 68.0351 7.51466 67.914 7.63735C67.6567 7.9134 67.4751 8.34281 67.3691 8.92558C67.2783 9.49301 67.2329 10.2215 67.2329 11.111C67.2329 11.8318 67.3162 12.5295 67.4826 13.2043C67.6491 13.8638 67.8761 14.4082 68.1637 14.8376C68.4664 15.2517 68.7994 15.4587 69.1626 15.4587Z" fill="var(--fill-0, #D93C42)"/>
<path d="M79.1796 16.954C79.1039 16.954 79.0207 16.931 78.9298 16.885C78.8542 16.8543 78.8012 16.793 78.7709 16.7009L75.4564 8.53451C75.3202 8.18178 75.1613 7.89039 74.9797 7.66035C74.8132 7.41498 74.5862 7.23861 74.2986 7.13126C74.1473 7.06991 74.0413 7.00857 73.9808 6.94723C73.9202 6.87055 73.89 6.76319 73.89 6.62517C73.89 6.50248 73.9581 6.4258 74.0943 6.39513C74.2305 6.36446 74.3516 6.34912 74.4575 6.34912C74.8359 6.34912 75.131 6.36446 75.3429 6.39513C75.5699 6.41047 75.7818 6.43347 75.9786 6.46414C76.1904 6.47948 76.4629 6.48715 76.7958 6.48715C77.1288 6.48715 77.4012 6.47948 77.6131 6.46414C77.8401 6.43347 78.0672 6.41047 78.2942 6.39513C78.5363 6.36446 78.839 6.34912 79.2023 6.34912C79.3082 6.34912 79.4217 6.37213 79.5428 6.41813C79.679 6.46414 79.7471 6.54849 79.7471 6.67118C79.7471 6.8092 79.6941 6.90122 79.5882 6.94723C79.4823 6.99323 79.3688 7.04691 79.2477 7.10825C79.0812 7.1696 78.9601 7.26928 78.8844 7.40731C78.8088 7.53 78.7709 7.72936 78.7709 8.00541C78.7709 8.2968 78.8239 8.58818 78.9298 8.87957L80.1558 12.2382C80.1558 12.2535 80.1709 12.2612 80.2012 12.2612C80.2314 12.2612 80.2466 12.2535 80.2466 12.2382L81.7449 8.64953C81.7752 8.57285 81.7979 8.4885 81.813 8.39648C81.8433 8.28913 81.8584 8.18178 81.8584 8.07443C81.8584 7.9364 81.7827 7.77537 81.6314 7.59134C81.4952 7.40731 81.2984 7.26162 81.0411 7.15426C80.8898 7.09292 80.7838 7.03157 80.7233 6.97023C80.6628 6.89355 80.6325 6.7862 80.6325 6.64817C80.6325 6.52549 80.7006 6.44881 80.8368 6.41813C80.9882 6.38746 81.1319 6.37212 81.2682 6.37212C81.6768 6.37212 82.0703 6.38746 82.4487 6.41813C82.8422 6.44881 83.1373 6.46414 83.3341 6.46414C83.7276 6.46414 84.0984 6.44881 84.4465 6.41813C84.7946 6.38746 85.2032 6.37212 85.6724 6.37212C85.7783 6.37212 85.8918 6.39513 86.0129 6.44114C86.1491 6.48715 86.2172 6.57149 86.2172 6.69418C86.2172 6.83221 86.1643 6.92422 86.0583 6.97023C85.9524 7.01624 85.8389 7.06991 85.7178 7.13126C85.5513 7.1926 85.4227 7.27695 85.3319 7.3843C85.241 7.49166 85.1956 7.65268 85.1956 7.86739C85.1956 8.06676 85.2183 8.25846 85.2637 8.44249C85.3091 8.61119 85.3546 8.75688 85.4 8.87957L86.6713 12.2842C86.6713 12.2995 86.6864 12.3072 86.7167 12.3072C86.747 12.3072 86.7621 12.2995 86.7621 12.2842L87.9199 9.15562C87.9804 8.98692 88.0258 8.82589 88.0561 8.67253C88.0864 8.50383 88.0939 8.34281 88.0788 8.18945C88.0788 7.95941 88.0258 7.75237 87.9199 7.56834C87.814 7.3843 87.655 7.25395 87.4431 7.17727C87.3221 7.13126 87.2086 7.08525 87.1026 7.03924C86.9967 6.9779 86.9437 6.87821 86.9437 6.74019C86.9437 6.6175 87.0042 6.53315 87.1253 6.48715C87.2615 6.44114 87.3826 6.41813 87.4886 6.41813C87.9426 6.43347 88.2604 6.44881 88.442 6.46414C88.6388 6.46414 88.8355 6.46414 89.0323 6.46414C89.1534 6.46414 89.2669 6.46414 89.3728 6.46414C89.4939 6.46414 89.6453 6.46414 89.8269 6.46414C90.0085 6.44881 90.2431 6.43347 90.5306 6.41813C90.6366 6.41813 90.7577 6.43347 90.8939 6.46414C91.0301 6.49481 91.0982 6.57149 91.0982 6.69418C91.0982 6.83221 91.0679 6.93956 91.0074 7.01624C90.9469 7.07758 90.8409 7.13893 90.6896 7.20027C90.402 7.30762 90.1447 7.48399 89.9177 7.72936C89.6907 7.95941 89.509 8.25079 89.3728 8.60352L86.1491 16.7009C86.0886 16.839 85.9524 16.908 85.7405 16.908C85.5589 16.908 85.4302 16.839 85.3545 16.7009L82.4033 9.96076C82.4033 9.94542 82.3881 9.93775 82.3579 9.93775C82.3276 9.93775 82.3125 9.94542 82.3125 9.96076L79.6109 16.7009C79.5352 16.8696 79.3915 16.954 79.1796 16.954Z" fill="var(--fill-0, #D93C42)"/>
<path d="M98.2716 16.6549C98.2261 16.6549 98.158 16.6013 98.0672 16.4939C97.9764 16.3866 97.931 16.3022 97.931 16.2409C97.9764 15.9802 98.0067 15.7578 98.0218 15.5737C98.037 15.3744 98.0521 15.198 98.0672 15.0447V14.9066C97.7343 15.4127 97.2954 15.8115 96.7505 16.1028C96.2057 16.3942 95.6381 16.5399 95.0478 16.5399C94.2154 16.5399 93.4663 16.3329 92.8003 15.9188C92.1344 15.4894 91.6047 14.9066 91.2112 14.1705C90.8177 13.4344 90.6209 12.6139 90.6209 11.7091C90.6209 10.6355 90.8555 9.69238 91.3247 8.87957C91.7939 8.05142 92.4447 7.40731 93.2771 6.94723C94.1095 6.48715 95.063 6.2571 96.1375 6.2571C96.3494 6.2571 96.5689 6.27244 96.7959 6.30311C97.0381 6.33378 97.2651 6.37979 97.477 6.44114C97.704 6.48715 97.8024 6.51015 97.7721 6.51015C97.8326 6.51015 97.8629 6.4258 97.8629 6.2571V3.65765C97.8629 3.12088 97.8024 2.72982 97.6813 2.48444C97.5602 2.22373 97.3408 2.0627 97.0229 2.00135C96.8413 1.95535 96.7505 1.83266 96.7505 1.63329C96.7505 1.43392 96.8337 1.3189 97.0002 1.28823C97.5451 1.16554 98.1353 1.00451 98.771 0.805143C99.4218 0.605774 99.9591 0.414073 100.383 0.23004C100.61 0.122689 100.761 0.0613447 100.837 0.0460089C100.913 0.0153363 100.958 0 100.973 0C101.155 0 101.246 0.0996843 101.246 0.299053C101.246 0.222373 101.238 0.260713 101.223 0.414073C101.208 0.552098 101.193 0.73613 101.177 0.96617C101.162 1.18087 101.147 1.37258 101.132 1.54127L100.996 13.4114C100.996 13.9328 101.034 14.3085 101.109 14.5386C101.185 14.7533 101.321 14.8606 101.518 14.8606C101.594 14.8606 101.662 14.8606 101.722 14.8606C101.798 14.8453 102.025 14.8223 102.403 14.7916C102.6 14.7763 102.698 14.8606 102.698 15.0447C102.698 15.1673 102.646 15.3054 102.54 15.4587C102.449 15.5968 102.366 15.6658 102.29 15.6658C101.715 15.7271 101.109 15.8345 100.474 15.9878C99.838 16.1258 99.2402 16.3022 98.6802 16.5169C98.5894 16.5629 98.5061 16.5936 98.4305 16.6089C98.3699 16.6396 98.317 16.6549 98.2716 16.6549ZM96.2965 14.8836C96.4781 14.8836 96.7354 14.8376 97.0683 14.7456C97.4013 14.6383 97.6662 14.4849 97.8629 14.2855L97.8402 8.97158C97.8402 8.74154 97.7418 8.50383 97.5451 8.25846C97.3483 8.01308 97.1062 7.80604 96.8186 7.63735C96.531 7.46865 96.2586 7.3843 96.0013 7.3843C95.6381 7.3843 95.3127 7.54533 95.0251 7.86739C94.7527 8.17411 94.5333 8.60352 94.3668 9.15562C94.2003 9.70771 94.1171 10.3442 94.1171 11.065C94.1171 11.6324 94.17 12.1538 94.276 12.6292C94.3819 13.0893 94.5333 13.488 94.73 13.8254C94.9268 14.1628 95.1538 14.4235 95.4111 14.6076C95.6835 14.7916 95.9786 14.8836 96.2965 14.8836Z" fill="var(--fill-0, #D93C42)"/>
<path d="M109.939 16.6549C109.894 16.6549 109.826 16.6013 109.735 16.4939C109.644 16.3866 109.599 16.3022 109.599 16.2409C109.644 15.9802 109.674 15.7578 109.689 15.5737C109.705 15.3744 109.72 15.198 109.735 15.0447V14.9066C109.402 15.4127 108.963 15.8115 108.418 16.1028C107.873 16.3942 107.306 16.5399 106.716 16.5399C105.883 16.5399 105.134 16.3329 104.468 15.9188C103.802 15.4894 103.272 14.9066 102.879 14.1705C102.485 13.4344 102.289 12.6139 102.289 11.7091C102.289 10.6355 102.523 9.69238 102.992 8.87957C103.462 8.05142 104.112 7.40731 104.945 6.94723C105.777 6.48715 106.731 6.2571 107.805 6.2571C108.017 6.2571 108.237 6.27244 108.464 6.30311C108.706 6.33378 108.933 6.37979 109.145 6.44114C109.372 6.48715 109.47 6.51015 109.44 6.51015C109.5 6.51015 109.531 6.4258 109.531 6.2571V3.65765C109.531 3.12088 109.47 2.72982 109.349 2.48444C109.228 2.22373 109.008 2.0627 108.691 2.00135C108.509 1.95535 108.418 1.83266 108.418 1.63329C108.418 1.43392 108.501 1.3189 108.668 1.28823C109.213 1.16554 109.803 1.00451 110.439 0.805143C111.089 0.605774 111.627 0.414073 112.051 0.23004C112.278 0.122689 112.429 0.0613447 112.505 0.0460089C112.58 0.0153363 112.626 0 112.641 0C112.822 0 112.913 0.0996843 112.913 0.299053C112.913 0.222373 112.906 0.260713 112.891 0.414073C112.875 0.552098 112.86 0.73613 112.845 0.96617C112.83 1.18087 112.815 1.37258 112.8 1.54127L112.663 13.4114C112.663 13.9328 112.701 14.3085 112.777 14.5386C112.853 14.7533 112.989 14.8606 113.186 14.8606C113.261 14.8606 113.329 14.8606 113.39 14.8606C113.466 14.8453 113.693 14.8223 114.071 14.7916C114.268 14.7763 114.366 14.8606 114.366 15.0447C114.366 15.1673 114.313 15.3054 114.207 15.4587C114.116 15.5968 114.033 15.6658 113.958 15.6658C113.382 15.7271 112.777 15.8345 112.141 15.9878C111.506 16.1258 110.908 16.3022 110.348 16.5169C110.257 16.5629 110.174 16.5936 110.098 16.6089C110.038 16.6396 109.985 16.6549 109.939 16.6549ZM107.964 14.8836C108.146 14.8836 108.403 14.8376 108.736 14.7456C109.069 14.6383 109.334 14.4849 109.531 14.2855L109.508 8.97158C109.508 8.74154 109.41 8.50383 109.213 8.25846C109.016 8.01308 108.774 7.80604 108.486 7.63735C108.199 7.46865 107.926 7.3843 107.669 7.3843C107.306 7.3843 106.98 7.54533 106.693 7.86739C106.42 8.17411 106.201 8.60352 106.034 9.15562C105.868 9.70771 105.785 10.3442 105.785 11.065C105.785 11.6324 105.838 12.1538 105.944 12.6292C106.05 13.0893 106.201 13.488 106.398 13.8254C106.594 14.1628 106.821 14.4235 107.079 14.6076C107.351 14.7916 107.646 14.8836 107.964 14.8836Z" fill="var(--fill-0, #D93C42)"/>
<path d="M116.738 17C116.208 17 115.747 16.8006 115.353 16.4019C114.975 16.0185 114.786 15.5584 114.786 15.0217C114.786 14.4389 114.975 13.9558 115.353 13.5724C115.747 13.1737 116.208 12.9743 116.738 12.9743C117.313 12.9743 117.79 13.1737 118.168 13.5724C118.562 13.9558 118.758 14.4389 118.758 15.0217C118.758 15.5584 118.562 16.0185 118.168 16.4019C117.79 16.8006 117.313 17 116.738 17Z" fill="var(--fill-0, #D93C42)"/>
<path d="M124.336 16.5904C123.903 16.5904 123.565 16.482 123.322 16.2651C123.087 16.0392 122.97 15.7049 122.97 15.2622V9.62374H121.455V8.4581H122.983V6.0184H124.471V8.4581H126.595V9.62374H124.485V15.3977H126.811V16.5904H124.336Z" fill="var(--fill-0, #D93C42)"/>
<path d="M131.441 16.7531C130.594 16.7531 129.859 16.5814 129.236 16.238C128.614 15.8856 128.132 15.3887 127.789 14.7471C127.455 14.1056 127.289 13.3556 127.289 12.4972C127.289 11.6387 127.455 10.8978 127.789 10.2743C128.132 9.64181 128.61 9.15387 129.223 8.8105C129.836 8.46714 130.553 8.29545 131.374 8.29545C132.158 8.29545 132.834 8.45358 133.402 8.76984C133.98 9.0861 134.426 9.53338 134.742 10.1117C135.057 10.69 135.215 11.3767 135.215 12.1719V12.7818H128.749C128.795 13.6312 129.052 14.2953 129.52 14.7742C129.998 15.2441 130.634 15.479 131.428 15.479C131.978 15.479 132.442 15.3661 132.821 15.1402C133.2 14.9052 133.461 14.5619 133.605 14.1101H135.147C134.949 14.9504 134.521 15.601 133.862 16.0618C133.213 16.5227 132.406 16.7531 131.441 16.7531ZM128.804 11.6704H133.754C133.682 11.0017 133.434 10.4821 133.01 10.1117C132.595 9.7412 132.045 9.55597 131.36 9.55597C130.684 9.55597 130.12 9.7412 129.669 10.1117C129.218 10.4821 128.93 11.0017 128.804 11.6704Z" fill="var(--fill-0, #D93C42)"/>
<path d="M139.607 16.7531C138.48 16.7531 137.591 16.5181 136.942 16.0483C136.293 15.5784 135.937 14.9233 135.874 14.083H137.375C137.438 14.5799 137.655 14.9459 138.024 15.1808C138.394 15.4158 138.94 15.5332 139.661 15.5332C140.923 15.5332 141.555 15.1357 141.555 14.3405C141.555 14.0152 141.455 13.7667 141.257 13.595C141.068 13.4143 140.743 13.2833 140.283 13.202L138.511 12.8767C137.005 12.5966 136.252 11.8782 136.252 10.7216C136.252 9.97162 136.536 9.37977 137.105 8.94604C137.673 8.51232 138.448 8.29545 139.431 8.29545C140.45 8.29545 141.257 8.51683 141.852 8.9596C142.456 9.40236 142.799 10.0258 142.88 10.83H141.406C141.316 10.3782 141.104 10.0439 140.77 9.82704C140.446 9.61018 139.986 9.50175 139.39 9.50175C138.84 9.50175 138.412 9.59663 138.105 9.78638C137.808 9.97614 137.659 10.2517 137.659 10.6132C137.659 10.8933 137.754 11.1147 137.943 11.2773C138.142 11.4309 138.457 11.5484 138.89 11.6297L140.662 11.9686C141.455 12.1131 142.037 12.3707 142.407 12.7411C142.777 13.1116 142.961 13.6086 142.961 14.2321C142.961 15.0272 142.673 15.6462 142.096 16.0889C141.519 16.5317 140.689 16.7531 139.607 16.7531Z" fill="var(--fill-0, #D93C42)"/>
<path d="M146.081 16.5904C145.649 16.5904 145.31 16.482 145.067 16.2651C144.832 16.0392 144.715 15.7049 144.715 15.2622V9.62374H143.2V8.4581H144.729V6.0184H146.217V8.4581H148.34V9.62374H146.23V15.3977H148.557V16.5904H146.081Z" fill="var(--fill-0, #D93C42)"/>
<path d="M152.645 16.7531C151.518 16.7531 150.63 16.5181 149.981 16.0483C149.331 15.5784 148.975 14.9233 148.912 14.083H150.414C150.477 14.5799 150.693 14.9459 151.063 15.1808C151.433 15.4158 151.978 15.5332 152.7 15.5332C153.962 15.5332 154.593 15.1357 154.593 14.3405C154.593 14.0152 154.494 13.7667 154.296 13.595C154.106 13.4143 153.782 13.2833 153.322 13.202L151.55 12.8767C150.044 12.5966 149.291 11.8782 149.291 10.7216C149.291 9.97162 149.575 9.37977 150.143 8.94604C150.711 8.51232 151.487 8.29545 152.47 8.29545C153.489 8.29545 154.296 8.51683 154.891 8.9596C155.495 9.40236 155.838 10.0258 155.919 10.83H154.444C154.354 10.3782 154.142 10.0439 153.809 9.82704C153.484 9.61018 153.024 9.50175 152.429 9.50175C151.879 9.50175 151.451 9.59663 151.144 9.78638C150.846 9.97614 150.698 10.2517 150.698 10.6132C150.698 10.8933 150.792 11.1147 150.982 11.2773C151.18 11.4309 151.496 11.5484 151.929 11.6297L153.701 11.9686C154.494 12.1131 155.076 12.3707 155.445 12.7411C155.815 13.1116 156 13.6086 156 14.2321C156 15.0272 155.711 15.6462 155.134 16.0889C154.557 16.5317 153.728 16.7531 152.645 16.7531Z" fill="var(--fill-0, #D93C42)"/>
</g>
</svg>
