<svg preserveAspectRatio="none" width="100%" height="100%" overflow="visible" style="display: block;" viewBox="0 0 198 28" fill="none" xmlns="http://www.w3.org/2000/svg">
<g id="smallcrowdd.">
<path d="M5.34444 27.2422C4.48651 27.2422 3.6538 27.1412 2.84633 26.9391C2.0641 26.7623 1.33233 26.4465 0.651023 25.9919C0.398688 25.5877 0.222054 24.9689 0.121121 24.1353C0.0201868 23.2765 -0.0176634 22.3545 0.00757003 21.3694C0.00757003 21.041 0.272521 20.8769 0.802423 20.8769C1.02952 20.8769 1.21878 20.9526 1.37018 21.1042C1.54681 21.2558 1.66036 21.3947 1.71083 21.521C2.2155 22.5314 2.77063 23.4407 3.37623 24.249C3.98184 25.032 4.75146 25.4235 5.68509 25.4235C6.34116 25.4235 6.8206 25.2215 7.1234 24.8173C7.45144 24.4132 7.61545 23.9711 7.61545 23.4912C7.61545 22.8345 7.3505 22.2914 6.8206 21.862C6.2907 21.4326 5.71033 21.0663 5.07949 20.7632C4.37296 20.4096 3.67904 20.0054 2.99773 19.5507C2.31643 19.0708 1.74868 18.4772 1.29448 17.77C0.840274 17.0627 0.613173 16.2039 0.613173 15.1935C0.613173 14.1579 0.890741 13.2738 1.44588 12.5413C2.02625 11.7835 2.79587 11.2025 3.75474 10.7984C4.71361 10.369 5.7608 10.1543 6.8963 10.1543C7.75424 10.1543 8.54909 10.2553 9.28086 10.4574C10.0379 10.6342 10.5551 10.811 10.8327 10.9878C11.0346 11.2404 11.186 11.733 11.2869 12.4655C11.4131 13.1728 11.4762 13.9811 11.4762 14.8904C11.4762 15.1682 11.2238 15.3072 10.7192 15.3072C10.5425 15.3072 10.3533 15.244 10.1514 15.1177C9.94955 14.9662 9.82338 14.8272 9.77291 14.7009C9.44488 13.6906 9.01591 12.9328 8.48601 12.4276C7.98134 11.9224 7.4262 11.6698 6.8206 11.6698C6.26546 11.6698 5.7608 11.8466 5.30659 12.2003C4.87762 12.5539 4.66314 13.0212 4.66314 13.6022C4.66314 14.1074 4.91547 14.5747 5.42014 15.0041C5.95005 15.4082 6.55565 15.7871 7.23695 16.1407C8.90236 16.9995 10.0883 17.8331 10.7949 18.6414C11.5014 19.4497 11.8547 20.5359 11.8547 21.8999C11.8547 23.5922 11.3122 24.9057 10.2271 25.8403C9.14208 26.7749 7.51452 27.2422 5.34444 27.2422Z" fill="var(--fill-0, #FEF3D9)"/>
<path d="M13.2235 26.8254C13.0721 26.8254 12.9081 26.7749 12.7314 26.6739C12.5548 26.5728 12.4665 26.4339 12.4665 26.2571C12.4665 26.055 12.5548 25.8908 12.7314 25.7645C12.9333 25.6383 13.1352 25.5372 13.337 25.4614C13.7155 25.3351 14.0436 25.1962 14.3211 25.0447C14.5987 24.8678 14.7375 24.5268 14.7375 24.0217V15.2314C14.7375 14.7262 14.6618 14.2968 14.5104 13.9432C14.359 13.5643 14.0688 13.3369 13.6398 13.2612C13.5389 13.2359 13.438 13.1728 13.337 13.0717C13.2361 12.9707 13.1856 12.7939 13.1856 12.5413C13.1856 12.1624 13.3244 11.935 13.602 11.8593C14.2076 11.7077 14.8889 11.5309 15.6459 11.3288C16.4029 11.1015 17.1347 10.8615 17.8412 10.6089C18.573 10.3563 19.1786 10.1037 19.658 9.85115C19.7589 9.80063 19.8473 9.75011 19.923 9.69959C19.9987 9.64908 20.0744 9.62382 20.1501 9.62382C20.4024 9.62382 20.5286 9.77537 20.5286 10.0785C20.5286 10.2806 20.4907 10.6216 20.415 11.1015C20.3646 11.5562 20.3393 11.9603 20.3393 12.3139C20.3393 12.5665 20.3646 12.7181 20.415 12.7686H20.4907C21.2982 11.9603 22.1561 11.3288 23.0645 10.8742C23.9729 10.4195 24.9697 10.1922 26.0547 10.1922C26.8117 10.1922 27.5182 10.4826 28.1743 11.0636C28.8556 11.6446 29.3477 12.3518 29.6505 13.1854H29.8397C30.5715 12.2255 31.4042 11.493 32.3378 10.9878C33.2715 10.4574 34.3186 10.1922 35.4794 10.1922C36.2616 10.1922 36.9682 10.4069 37.599 10.8363C38.2551 11.2657 38.7723 11.8845 39.1509 12.6928C39.5546 13.5011 39.7565 14.4862 39.7565 15.6482V24.0595C39.7565 24.5647 39.8952 24.8931 40.1728 25.0447C40.4504 25.1962 40.7784 25.3351 41.1569 25.4614C41.3588 25.5372 41.5354 25.6383 41.6868 25.7645C41.8382 25.8908 41.9139 26.055 41.9139 26.2571C41.9139 26.4339 41.8382 26.5728 41.6868 26.6739C41.5606 26.7749 41.4219 26.8254 41.2705 26.8254C40.7658 26.8254 40.2737 26.8002 39.7943 26.7497C39.3149 26.7244 38.848 26.6991 38.3938 26.6739C37.9396 26.6486 37.4854 26.636 37.0312 26.636C36.6023 26.636 36.1859 26.6486 35.7822 26.6739C35.4037 26.6991 35.0126 26.7244 34.6088 26.7497C34.2051 26.8002 33.7509 26.8254 33.2462 26.8254C33.0948 26.8254 32.956 26.7749 32.8299 26.6739C32.7037 26.5728 32.6406 26.4339 32.6406 26.2571C32.6406 26.055 32.7037 25.8908 32.8299 25.7645C32.9813 25.6383 33.1579 25.5372 33.3598 25.4614C33.6878 25.3604 33.9149 25.2341 34.0411 25.0825C34.1925 24.931 34.2682 24.6784 34.2682 24.3248V16.5954C34.2682 15.9639 34.1925 15.4335 34.0411 15.0041C33.8897 14.5494 33.6626 14.2084 33.3598 13.9811C33.0822 13.7285 32.7542 13.6022 32.3757 13.6022C32.1233 13.6022 31.8205 13.6779 31.4673 13.8295C31.114 13.9558 30.7607 14.1705 30.4075 14.4736C30.1299 14.7262 29.9911 15.1682 29.9911 15.7997V24.0595C29.9911 24.5647 30.0668 24.8931 30.2182 25.0447C30.3696 25.1962 30.6346 25.3351 31.0131 25.4614C31.2149 25.5372 31.3916 25.6383 31.543 25.7645C31.6944 25.8908 31.7701 26.055 31.7701 26.2571C31.7701 26.4339 31.6944 26.5728 31.543 26.6739C31.4168 26.7749 31.278 26.8254 31.1266 26.8254C30.6219 26.8254 30.1551 26.8002 29.7262 26.7497C29.3224 26.7244 28.9187 26.6991 28.515 26.6739C28.1365 26.6486 27.7201 26.636 27.2659 26.636C26.8369 26.636 26.4206 26.6486 26.0168 26.6739C25.6383 26.6991 25.2472 26.7244 24.8435 26.7497C24.4398 26.8002 23.9856 26.8254 23.4809 26.8254C23.3295 26.8254 23.1907 26.7749 23.0645 26.6739C22.9384 26.5728 22.8753 26.4339 22.8753 26.2571C22.8753 26.055 22.9384 25.8908 23.0645 25.7645C23.2159 25.6383 23.3926 25.5372 23.5944 25.4614C23.9225 25.3604 24.1496 25.2341 24.2757 25.0825C24.4271 24.931 24.5028 24.6784 24.5028 24.3248V16.5954C24.5028 15.9639 24.4271 15.4335 24.2757 15.0041C24.1243 14.5747 23.9099 14.2463 23.6323 14.0189C23.3547 13.7664 23.0267 13.6401 22.6482 13.6401C22.3958 13.6401 22.093 13.7032 21.7398 13.8295C21.3865 13.9558 21.008 14.1579 20.6043 14.4357C20.3519 14.6125 20.2258 15.0167 20.2258 15.6482V24.0595C20.2258 24.4889 20.2762 24.8047 20.3772 25.0068C20.5033 25.1836 20.7557 25.3351 21.1342 25.4614C21.336 25.5372 21.5001 25.6383 21.6262 25.7645C21.7776 25.8908 21.8533 26.055 21.8533 26.2571C21.8533 26.4087 21.7902 26.5476 21.6641 26.6739C21.5379 26.7749 21.3991 26.8254 21.2477 26.8254C20.7431 26.8254 20.2762 26.8002 19.8473 26.7497C19.4435 26.7244 19.0524 26.6991 18.6739 26.6739C18.2954 26.6486 17.8791 26.636 17.4249 26.636C16.9959 26.636 16.5543 26.6486 16.1001 26.6739C15.6459 26.6991 15.1791 26.7244 14.6996 26.7497C14.2202 26.8002 13.7282 26.8254 13.2235 26.8254Z" fill="var(--fill-0, #FEF3D9)"/>
<path d="M46.3604 27.2422C45.6286 27.2422 44.96 27.078 44.3544 26.7497C43.7488 26.4465 43.2693 26.0298 42.9161 25.4993C42.5628 24.9436 42.3862 24.3374 42.3862 23.6806C42.3862 22.7966 42.6637 22.0514 43.2189 21.4452C43.7992 20.839 44.6319 20.2959 45.717 19.816L48.9721 18.3762C49.4767 18.1489 49.7922 17.9468 49.9183 17.77C50.0445 17.5679 50.1076 17.2269 50.1076 16.747L50.1454 14.6631C50.1707 13.9305 50.0571 13.3748 49.8048 12.9959C49.5524 12.5918 49.1613 12.3897 48.6314 12.3897C48.3286 12.3897 48.0132 12.4655 47.6852 12.6171C47.3571 12.7433 47.1174 12.8949 46.966 13.0717C46.8903 13.1728 46.8399 13.2864 46.8146 13.4127C46.7894 13.539 46.7768 13.6653 46.7768 13.7916C46.7768 13.9432 46.7894 14.1452 46.8146 14.3978C46.8399 14.6252 46.8525 14.8146 46.8525 14.9662C46.8525 15.143 46.638 15.3577 46.209 15.6103C45.78 15.8376 45.288 16.0523 44.7329 16.2544C44.1777 16.4312 43.6983 16.5196 43.2946 16.5196C43.0927 16.5196 42.9161 16.4438 42.7647 16.2923C42.6385 16.1155 42.5754 15.9008 42.5754 15.6482C42.5754 15.244 42.7142 14.8525 42.9918 14.4736C43.2693 14.0947 43.7361 13.6401 44.3922 13.1096C45.0735 12.5539 45.8179 12.0613 46.6254 11.6319C47.4328 11.2025 48.2277 10.8615 49.0099 10.6089C49.7922 10.3311 50.4609 10.1922 51.016 10.1922C52.4543 10.1922 53.6024 10.6595 54.4604 11.594C55.3183 12.5034 55.722 13.7285 55.6716 15.2693L55.4823 22.6198C55.4571 23.2007 55.5454 23.7059 55.7473 24.1353C55.9744 24.5395 56.2519 24.7415 56.58 24.7415C57.0342 24.7415 57.4379 24.5774 57.7912 24.249C57.8669 24.1732 57.9426 24.1353 58.0183 24.1353C58.1444 24.1353 58.2454 24.1858 58.3211 24.2869C58.422 24.3627 58.4725 24.4637 58.4725 24.59C58.4725 24.8931 58.2201 25.2972 57.7155 25.8024C57.236 26.2824 56.7187 26.636 56.1636 26.8633C55.6085 27.1159 55.0281 27.2422 54.4225 27.2422C52.959 27.2422 51.7351 26.5097 50.751 25.0447H50.6753C49.8426 25.8277 49.0982 26.3834 48.4422 26.7118C47.7861 27.0654 47.0922 27.2422 46.3604 27.2422ZM48.7071 24.6279C48.9342 24.6279 49.1235 24.59 49.2749 24.5142C49.4263 24.4384 49.5651 24.3121 49.6912 24.1353C49.7669 24.0343 49.8174 23.908 49.8426 23.7564C49.8931 23.6049 49.9183 23.4407 49.9183 23.2639L50.0319 20.3464C50.0319 20.1191 49.994 19.9802 49.9183 19.9296C49.8426 19.8539 49.7543 19.816 49.6534 19.816C49.6029 19.816 49.5398 19.8286 49.4641 19.8539C49.4137 19.8539 49.3506 19.8791 49.2749 19.9296C48.6693 20.258 48.2025 20.599 47.8744 20.9526C47.5716 21.281 47.4202 21.8872 47.4202 22.7713C47.4202 23.5038 47.559 23.9964 47.8366 24.249C48.1394 24.5016 48.4296 24.6279 48.7071 24.6279Z" fill="var(--fill-0, #FEF3D9)"/>
<path d="M58.4825 26.8254C58.2302 26.8254 58.0409 26.7749 57.9148 26.6739C57.7886 26.5728 57.7255 26.4339 57.7255 26.2571C57.7255 26.055 57.8012 25.9035 57.9526 25.8024C58.104 25.6761 58.3185 25.5625 58.5961 25.4614C58.9746 25.3351 59.3026 25.2088 59.5802 25.0825C59.8577 24.931 59.9965 24.5774 59.9965 24.0217V6.02436C59.9965 5.34236 59.9082 4.74876 59.7316 4.24357C59.5802 3.73839 59.1891 3.42264 58.5582 3.29635C58.2807 3.24583 58.1419 3.04375 58.1419 2.69012C58.1419 2.36175 58.268 2.17231 58.5204 2.12179C59.1512 1.99549 59.8704 1.80604 60.6778 1.55345C61.5105 1.2756 62.2928 0.997745 63.0245 0.719891C63.7815 0.442039 64.3493 0.239965 64.7278 0.113668C64.9549 0.0378893 65.1315 0 65.2577 0C65.4343 0 65.5479 0.0505188 65.5984 0.151556C65.6488 0.252594 65.6741 0.366261 65.6741 0.492558C65.6741 0.669373 65.6488 0.972485 65.5984 1.40189C65.5479 1.80605 65.51 2.18494 65.4848 2.53857V23.9459C65.4848 24.5016 65.6236 24.8552 65.9012 25.0068C66.1787 25.1331 66.5068 25.2594 66.8853 25.3857C67.1628 25.4867 67.3773 25.6004 67.5287 25.7267C67.6801 25.8277 67.7558 25.9793 67.7558 26.1813C67.7558 26.3581 67.6927 26.4971 67.5666 26.5981C67.4404 26.6991 67.2511 26.7497 66.9988 26.7497C66.4941 26.7497 65.9895 26.737 65.4848 26.7118C64.9801 26.6865 64.4881 26.6739 64.0086 26.6739C63.5292 26.6486 63.0624 26.636 62.6082 26.636C62.1792 26.636 61.7376 26.6486 61.2834 26.6739C60.8545 26.6991 60.4003 26.7244 59.9208 26.7497C59.4666 26.8002 58.9872 26.8254 58.4825 26.8254Z" fill="var(--fill-0, #FEF3D9)"/>
<path d="M68.5099 26.8254C68.2575 26.8254 68.0683 26.7749 67.9421 26.6739C67.8159 26.5728 67.7529 26.4339 67.7529 26.2571C67.7529 26.055 67.8286 25.9035 67.98 25.8024C68.1314 25.6761 68.3458 25.5625 68.6234 25.4614C69.0019 25.3351 69.3299 25.2088 69.6075 25.0825C69.8851 24.931 70.0239 24.5774 70.0239 24.0217V6.02436C70.0239 5.34236 69.9355 4.74876 69.7589 4.24357C69.6075 3.73839 69.2164 3.42264 68.5856 3.29635C68.308 3.24583 68.1692 3.04375 68.1692 2.69012C68.1692 2.36175 68.2954 2.17231 68.5477 2.12179C69.1785 1.99549 69.8977 1.80604 70.7052 1.55345C71.5379 1.2756 72.3201 0.997745 73.0519 0.719891C73.8089 0.442039 74.3766 0.239965 74.7551 0.113668C74.9822 0.0378893 75.1589 0 75.285 0C75.4617 0 75.5752 0.0505188 75.6257 0.151556C75.6762 0.252594 75.7014 0.366261 75.7014 0.492558C75.7014 0.669373 75.6762 0.972485 75.6257 1.40189C75.5752 1.80605 75.5374 2.18494 75.5121 2.53857V23.9459C75.5121 24.5016 75.6509 24.8552 75.9285 25.0068C76.2061 25.1331 76.5341 25.2594 76.9126 25.3857C77.1902 25.4867 77.4046 25.6004 77.5561 25.7267C77.7075 25.8277 77.7832 25.9793 77.7832 26.1813C77.7832 26.3581 77.7201 26.4971 77.5939 26.5981C77.4677 26.6991 77.2785 26.7497 77.0261 26.7497C76.5215 26.7497 76.0168 26.737 75.5121 26.7118C75.0075 26.6865 74.5154 26.6739 74.036 26.6739C73.5565 26.6486 73.0897 26.636 72.6355 26.636C72.2066 26.636 71.765 26.6486 71.3108 26.6739C70.8818 26.6991 70.4276 26.7244 69.9482 26.7497C69.494 26.8002 69.0145 26.8254 68.5099 26.8254Z" fill="var(--fill-0, #FEF3D9)"/>
<path d="M84.4596 27.2422C83.097 27.2422 81.8731 26.876 80.7881 26.1434C79.7031 25.4109 78.8451 24.4258 78.2143 23.1881C77.5835 21.9251 77.268 20.5106 77.268 18.9445C77.268 17.3027 77.6465 15.825 78.4035 14.5115C79.1858 13.198 80.2203 12.1498 81.5073 11.3667C82.7942 10.5837 84.2325 10.1922 85.8222 10.1922C87.9922 10.1922 89.7712 10.9247 91.159 12.3897C91.3609 12.6423 91.4618 12.8696 91.4618 13.0717C91.4618 13.2233 91.3483 13.4506 91.1212 13.7537C90.8941 14.0316 90.6291 14.2968 90.3263 14.5494C90.0488 14.7767 89.8091 14.8904 89.6072 14.8904C89.3549 14.8904 89.1151 14.8146 88.888 14.6631C88.6609 14.5115 88.4464 14.3473 88.2446 14.1705C87.5633 13.5895 86.882 13.1349 86.2007 12.8065C85.5446 12.4529 84.9642 12.2761 84.4596 12.2761C83.5764 12.2761 82.9203 12.6423 82.4914 13.3748C82.0624 14.0821 81.8479 15.3324 81.8479 17.1258C81.8479 18.3636 82.0245 19.4244 82.3778 20.3085C82.7311 21.1926 83.261 21.8746 83.9675 22.3545C84.6741 22.8092 85.5446 23.0365 86.5792 23.0365C87.3362 23.0365 87.9922 22.9102 88.5474 22.6576C89.1278 22.4051 89.7207 22.0514 90.3263 21.5968C90.4525 21.4957 90.5661 21.4073 90.667 21.3315C90.7679 21.2558 90.8815 21.2179 91.0076 21.2179C91.3104 21.2179 91.4618 21.4199 91.4618 21.8241C91.4618 21.9251 91.4492 22.0641 91.424 22.2409C91.3988 22.4177 91.3357 22.6198 91.2347 22.8471C91.0329 23.3523 90.6039 23.9585 89.9478 24.6658C89.2918 25.3478 88.4969 25.954 87.5633 26.4844C86.6296 26.9896 85.5951 27.2422 84.4596 27.2422Z" fill="var(--fill-0, #FEF3D9)"/>
<path d="M92.4501 26.8254C92.2735 26.8254 92.0968 26.7749 91.9202 26.6739C91.7688 26.5728 91.6931 26.4339 91.6931 26.2571C91.6931 26.055 91.7688 25.8908 91.9202 25.7645C92.0968 25.6383 92.3113 25.5372 92.5636 25.4614C93.144 25.2846 93.5225 25.1078 93.6991 24.931C93.8758 24.7289 93.9641 24.4258 93.9641 24.0217V15.1935C93.9641 14.6883 93.901 14.2842 93.7748 13.9811C93.6487 13.6779 93.3711 13.4632 92.9421 13.3369C92.816 13.2864 92.6898 13.2233 92.5636 13.1475C92.4627 13.0465 92.4122 12.8696 92.4122 12.6171C92.4122 12.2382 92.5763 12.0108 92.9043 11.935C93.737 11.733 94.658 11.4804 95.6674 11.1773C96.7019 10.8489 97.5977 10.5079 98.3547 10.1543C98.4809 10.0785 98.6449 9.99008 98.8468 9.88904C99.0486 9.788 99.2 9.73748 99.301 9.73748C99.5533 9.73748 99.6795 9.88904 99.6795 10.1922C99.6795 10.3184 99.6669 10.5837 99.6416 10.9878C99.6416 11.392 99.629 11.8088 99.6038 12.2382C99.5785 12.6423 99.5659 12.9707 99.5659 13.2233C99.5659 13.4759 99.6164 13.6022 99.7173 13.6022C100.096 13.0717 100.537 12.5413 101.042 12.0108C101.572 11.4804 102.14 11.0383 102.745 10.6847C103.376 10.3311 104.007 10.1543 104.638 10.1543C105.571 10.1543 106.228 10.3311 106.606 10.6847C106.985 11.0383 107.174 11.493 107.174 12.0487C107.174 12.4529 107.06 12.9075 106.833 13.4127C106.606 13.8926 106.316 14.3094 105.963 14.6631C105.609 15.0167 105.231 15.1935 104.827 15.1935C104.575 15.1935 104.31 15.1304 104.032 15.0041C103.78 14.8778 103.515 14.7515 103.237 14.6252C102.985 14.4989 102.733 14.3852 102.48 14.2842C102.228 14.1579 102.001 14.0947 101.799 14.0947C101.143 14.0947 100.588 14.3473 100.134 14.8525C99.6795 15.3324 99.4524 16.3049 99.4524 17.77V23.6049C99.4524 24.1606 99.6038 24.5647 99.9066 24.8173C100.209 25.0699 100.714 25.2972 101.421 25.4993C101.698 25.5751 101.9 25.6761 102.026 25.8024C102.178 25.9035 102.253 26.055 102.253 26.2571C102.253 26.636 102.051 26.8254 101.648 26.8254C100.891 26.8254 100.058 26.7876 99.1496 26.7118C98.2412 26.6613 97.4589 26.636 96.8029 26.636C96.3739 26.636 95.9197 26.6486 95.4403 26.6739C94.9608 26.6991 94.4688 26.7244 93.9641 26.7497C93.4594 26.8002 92.9548 26.8254 92.4501 26.8254Z" fill="var(--fill-0, #FEF3D9)"/>
<path d="M114.592 27.2422C113.053 27.2422 111.665 26.9012 110.429 26.2192C109.192 25.5372 108.208 24.59 107.476 23.3775C106.745 22.1651 106.379 20.7885 106.379 19.2476C106.379 18.0099 106.606 16.848 107.06 15.7618C107.539 14.6504 108.183 13.6779 108.99 12.8444C109.823 12.0108 110.782 11.3541 111.867 10.8742C112.977 10.3942 114.163 10.1543 115.425 10.1543C117.015 10.1543 118.44 10.5205 119.702 11.253C120.989 11.9856 122.011 12.9581 122.768 14.1705C123.525 15.383 123.903 16.7091 123.903 18.1489C123.903 19.7907 123.55 21.3063 122.843 22.6955C122.162 24.0848 121.128 25.1962 119.74 26.0298C118.377 26.8381 116.661 27.2422 114.592 27.2422ZM115.311 25.4614C115.766 25.4614 116.157 25.373 116.485 25.1962C116.813 24.9941 117.09 24.7163 117.317 24.3627C117.62 23.8575 117.835 23.1628 117.961 22.2788C118.087 21.3947 118.15 20.3212 118.15 19.0582C118.15 17.6437 118.011 16.406 117.734 15.3451C117.456 14.2842 117.065 13.4506 116.56 12.8444C116.081 12.2382 115.513 11.935 114.857 11.935C114.529 11.935 114.226 11.9982 113.949 12.1245C113.671 12.2255 113.431 12.3771 113.23 12.5792C112.801 13.0338 112.498 13.7411 112.321 14.7009C112.17 15.6355 112.094 16.8354 112.094 18.3004C112.094 19.4876 112.233 20.6369 112.51 21.7483C112.788 22.8345 113.166 23.7312 113.646 24.4384C114.151 25.1204 114.706 25.4614 115.311 25.4614Z" fill="var(--fill-0, #FEF3D9)"/>
<path d="M132.012 27.9242C131.886 27.9242 131.747 27.8863 131.596 27.8106C131.47 27.76 131.381 27.659 131.331 27.5074L125.805 14.0568C125.578 13.4759 125.313 12.9959 125.01 12.6171C124.732 12.2129 124.354 11.9224 123.874 11.7456C123.622 11.6446 123.445 11.5435 123.344 11.4425C123.243 11.3162 123.193 11.1394 123.193 10.912C123.193 10.71 123.307 10.5837 123.534 10.5332C123.761 10.4826 123.963 10.4574 124.139 10.4574C124.77 10.4574 125.262 10.4826 125.615 10.5332C125.994 10.5584 126.347 10.5963 126.675 10.6468C127.028 10.6721 127.483 10.6847 128.038 10.6847C128.593 10.6847 129.047 10.6721 129.4 10.6468C129.779 10.5963 130.157 10.5584 130.536 10.5332C130.94 10.4826 131.444 10.4574 132.05 10.4574C132.227 10.4574 132.416 10.4953 132.618 10.571C132.845 10.6468 132.958 10.7857 132.958 10.9878C132.958 11.2152 132.87 11.3667 132.693 11.4425C132.517 11.5183 132.328 11.6067 132.126 11.7077C131.848 11.8088 131.646 11.9729 131.52 12.2003C131.394 12.4023 131.331 12.7307 131.331 13.1854C131.331 13.6653 131.419 14.1452 131.596 14.6252L133.64 20.157C133.64 20.1822 133.665 20.1949 133.715 20.1949C133.766 20.1949 133.791 20.1822 133.791 20.157L136.289 14.2463C136.34 14.12 136.377 13.9811 136.403 13.8295C136.453 13.6527 136.478 13.4759 136.478 13.2991C136.478 13.0717 136.352 12.8065 136.1 12.5034C135.873 12.2003 135.545 11.9603 135.116 11.7835C134.863 11.6825 134.687 11.5814 134.586 11.4804C134.485 11.3541 134.434 11.1773 134.434 10.9499C134.434 10.7479 134.548 10.6216 134.775 10.571C135.027 10.5205 135.267 10.4953 135.494 10.4953C136.176 10.4953 136.832 10.5205 137.463 10.571C138.119 10.6216 138.611 10.6468 138.939 10.6468C139.595 10.6468 140.213 10.6216 140.793 10.571C141.374 10.5205 142.055 10.4953 142.837 10.4953C143.014 10.4953 143.203 10.5332 143.405 10.6089C143.632 10.6847 143.746 10.8236 143.746 11.0257C143.746 11.253 143.657 11.4046 143.481 11.4804C143.304 11.5562 143.115 11.6446 142.913 11.7456C142.635 11.8466 142.421 11.9856 142.269 12.1624C142.118 12.3392 142.042 12.6044 142.042 12.9581C142.042 13.2864 142.08 13.6022 142.156 13.9053C142.232 14.1831 142.307 14.4231 142.383 14.6252L144.503 20.2327C144.503 20.258 144.528 20.2706 144.578 20.2706C144.629 20.2706 144.654 20.258 144.654 20.2327L146.584 15.0798C146.685 14.802 146.761 14.5368 146.811 14.2842C146.862 14.0063 146.875 13.7411 146.849 13.4885C146.849 13.1096 146.761 12.7686 146.584 12.4655C146.408 12.1624 146.143 11.9477 145.79 11.8214C145.588 11.7456 145.398 11.6698 145.222 11.594C145.045 11.493 144.957 11.3288 144.957 11.1015C144.957 10.8994 145.058 10.7605 145.26 10.6847C145.487 10.6089 145.689 10.571 145.865 10.571C146.622 10.5963 147.152 10.6216 147.455 10.6468C147.783 10.6468 148.111 10.6468 148.439 10.6468C148.641 10.6468 148.83 10.6468 149.007 10.6468C149.209 10.6468 149.461 10.6468 149.764 10.6468C150.067 10.6216 150.458 10.5963 150.937 10.571C151.114 10.571 151.316 10.5963 151.543 10.6468C151.77 10.6973 151.883 10.8236 151.883 11.0257C151.883 11.253 151.833 11.4299 151.732 11.5562C151.631 11.6572 151.454 11.7582 151.202 11.8593C150.723 12.0361 150.294 12.3266 149.915 12.7307C149.537 13.1096 149.234 13.5895 149.007 14.1705L143.632 27.5074C143.531 27.7348 143.304 27.8484 142.951 27.8484C142.648 27.8484 142.433 27.7348 142.307 27.5074L137.387 16.406C137.387 16.3807 137.362 16.3681 137.311 16.3681C137.261 16.3681 137.235 16.3807 137.235 16.406L132.731 27.5074C132.605 27.7853 132.365 27.9242 132.012 27.9242Z" fill="var(--fill-0, #FEF3D9)"/>
<path d="M163.843 27.4317C163.767 27.4317 163.654 27.3433 163.503 27.1664C163.351 26.9896 163.275 26.8507 163.275 26.7497C163.351 26.3203 163.402 25.954 163.427 25.6509C163.452 25.3225 163.477 25.032 163.503 24.7794V24.5521C162.947 25.3857 162.216 26.0424 161.307 26.5223C160.399 27.0023 159.453 27.2422 158.468 27.2422C157.081 27.2422 155.832 26.9012 154.721 26.2192C153.611 25.512 152.728 24.5521 152.072 23.3396C151.416 22.1272 151.088 20.7758 151.088 19.2855C151.088 17.5174 151.479 15.9639 152.261 14.6252C153.043 13.2612 154.128 12.2003 155.516 11.4425C156.904 10.6847 158.494 10.3058 160.285 10.3058C160.639 10.3058 161.004 10.3311 161.383 10.3816C161.787 10.4321 162.165 10.5079 162.518 10.6089C162.897 10.6847 163.061 10.7226 163.01 10.7226C163.111 10.7226 163.162 10.5837 163.162 10.3058V6.02436C163.162 5.14028 163.061 4.49617 162.859 4.09202C162.657 3.66261 162.291 3.39738 161.761 3.29635C161.459 3.22057 161.307 3.01849 161.307 2.69012C161.307 2.36175 161.446 2.17231 161.724 2.12179C162.632 1.91971 163.616 1.65449 164.676 1.32612C165.761 0.997745 166.657 0.682003 167.363 0.37889C167.742 0.202075 167.994 0.101038 168.12 0.0757794C168.246 0.0252598 168.322 0 168.347 0C168.65 0 168.802 0.164186 168.802 0.492558C168.802 0.366261 168.789 0.42941 168.764 0.682003C168.738 0.909337 168.713 1.21245 168.688 1.59134C168.663 1.94497 168.638 2.26071 168.612 2.53857L168.385 22.0893C168.385 22.9481 168.448 23.567 168.574 23.9459C168.701 24.2995 168.928 24.4763 169.256 24.4763C169.382 24.4763 169.495 24.4763 169.596 24.4763C169.723 24.4511 170.101 24.4132 170.732 24.3627C171.06 24.3374 171.224 24.4763 171.224 24.7794C171.224 24.9815 171.136 25.2088 170.959 25.4614C170.808 25.6888 170.669 25.8024 170.543 25.8024C169.584 25.9035 168.574 26.0803 167.515 26.3329C166.455 26.5602 165.458 26.8507 164.524 27.2043C164.373 27.2801 164.234 27.3306 164.108 27.3559C164.007 27.4064 163.919 27.4317 163.843 27.4317ZM160.55 24.5142C160.853 24.5142 161.282 24.4384 161.837 24.2869C162.392 24.1101 162.834 23.8575 163.162 23.5291L163.124 14.7767C163.124 14.3978 162.96 14.0063 162.632 13.6022C162.304 13.198 161.9 12.857 161.421 12.5792C160.941 12.3013 160.487 12.1624 160.058 12.1624C159.453 12.1624 158.91 12.4276 158.431 12.9581C157.976 13.4632 157.611 14.1705 157.333 15.0798C157.055 15.9892 156.917 17.0374 156.917 18.2246C156.917 19.1592 157.005 20.018 157.182 20.8011C157.358 21.5589 157.611 22.2156 157.939 22.7713C158.267 23.327 158.645 23.7564 159.074 24.0595C159.528 24.3627 160.02 24.5142 160.55 24.5142Z" fill="var(--fill-0, #FEF3D9)"/>
<path d="M183.296 27.4317C183.22 27.4317 183.107 27.3433 182.955 27.1664C182.804 26.9896 182.728 26.8507 182.728 26.7497C182.804 26.3203 182.855 25.954 182.88 25.6509C182.905 25.3225 182.93 25.032 182.955 24.7794V24.5521C182.4 25.3857 181.669 26.0424 180.76 26.5223C179.852 27.0023 178.905 27.2422 177.921 27.2422C176.534 27.2422 175.284 26.9012 174.174 26.2192C173.064 25.512 172.181 24.5521 171.525 23.3396C170.869 22.1272 170.541 20.7758 170.541 19.2855C170.541 17.5174 170.932 15.9639 171.714 14.6252C172.496 13.2612 173.581 12.2003 174.969 11.4425C176.357 10.6847 177.947 10.3058 179.738 10.3058C180.091 10.3058 180.457 10.3311 180.836 10.3816C181.24 10.4321 181.618 10.5079 181.971 10.6089C182.35 10.6847 182.514 10.7226 182.463 10.7226C182.564 10.7226 182.615 10.5837 182.615 10.3058V6.02436C182.615 5.14028 182.514 4.49617 182.312 4.09202C182.11 3.66261 181.744 3.39738 181.214 3.29635C180.912 3.22057 180.76 3.01849 180.76 2.69012C180.76 2.36175 180.899 2.17231 181.176 2.12179C182.085 1.91971 183.069 1.65449 184.129 1.32612C185.214 0.997745 186.11 0.682003 186.816 0.37889C187.195 0.202075 187.447 0.101038 187.573 0.0757794C187.699 0.0252598 187.775 0 187.8 0C188.103 0 188.254 0.164186 188.254 0.492558C188.254 0.366261 188.242 0.42941 188.217 0.682003C188.191 0.909337 188.166 1.21245 188.141 1.59134C188.116 1.94497 188.09 2.26071 188.065 2.53857L187.838 22.0893C187.838 22.9481 187.901 23.567 188.027 23.9459C188.154 24.2995 188.381 24.4763 188.709 24.4763C188.835 24.4763 188.948 24.4763 189.049 24.4763C189.175 24.4511 189.554 24.4132 190.185 24.3627C190.513 24.3374 190.677 24.4763 190.677 24.7794C190.677 24.9815 190.589 25.2088 190.412 25.4614C190.261 25.6888 190.122 25.8024 189.996 25.8024C189.037 25.9035 188.027 26.0803 186.968 26.3329C185.908 26.5602 184.911 26.8507 183.977 27.2043C183.826 27.2801 183.687 27.3306 183.561 27.3559C183.46 27.4064 183.372 27.4317 183.296 27.4317ZM180.003 24.5142C180.306 24.5142 180.735 24.4384 181.29 24.2869C181.845 24.1101 182.287 23.8575 182.615 23.5291L182.577 14.7767C182.577 14.3978 182.413 14.0063 182.085 13.6022C181.757 13.198 181.353 12.857 180.874 12.5792C180.394 12.3013 179.94 12.1624 179.511 12.1624C178.905 12.1624 178.363 12.4276 177.884 12.9581C177.429 13.4632 177.063 14.1705 176.786 15.0798C176.508 15.9892 176.37 17.0374 176.37 18.2246C176.37 19.1592 176.458 20.018 176.634 20.8011C176.811 21.5589 177.063 22.2156 177.391 22.7713C177.72 23.327 178.098 23.7564 178.527 24.0595C178.981 24.3627 179.473 24.5142 180.003 24.5142Z" fill="var(--fill-0, #FEF3D9)"/>
<path d="M194.631 28C193.748 28 192.979 27.6716 192.322 27.0149C191.692 26.3834 191.376 25.6256 191.376 24.7415C191.376 23.7817 191.692 22.986 192.322 22.3545C192.979 21.6978 193.748 21.3694 194.631 21.3694C195.59 21.3694 196.385 21.6978 197.016 22.3545C197.672 22.986 198 23.7817 198 24.7415C198 25.6256 197.672 26.3834 197.016 27.0149C196.385 27.6716 195.59 28 194.631 28Z" fill="var(--fill-0, #FEF3D9)"/>
</g>
</svg>
